{
    "accessors" : [
        {
            "bufferView" : 0,
            "componentType" : 5125,
            "count" : 201798,
            "max" : [
                201797
            ],
            "min" : [
                0
            ],
            "type" : "SCALAR"
        },
        {
            "bufferView" : 1,
            "componentType" : 5126,
            "count" : 201798,
            "max" : [
                36.394508361816406,
                25.057710647583008,
                -164.9603729248047
            ],
            "min" : [
                20.255281448364258,
                11.744550704956055,
                -169.25799560546875
            ],
            "type" : "VEC3"
        },
        {
            "bufferView" : 2,
            "componentType" : 5126,
            "count" : 201798,
            "max" : [
                0.9999682903289795,
                0.9999974966049194,
                0.9999997615814209
            ],
            "min" : [
                -0.9999769330024719,
                -0.9999718070030212,
                -0.9999932646751404
            ],
            "type" : "VEC3"
        },
        {
            "bufferView" : 3,
            "componentType" : 5126,
            "count" : 201798,
            "max" : [
                1.0,
                0.9999999403953552,
                0.4197929799556732,
                1.0
            ],
            "min" : [
                -1.0,
                -0.9999998807907104,
                -0.37149420380592346,
                -1.0
            ],
            "type" : "VEC4"
        },
        {
            "bufferView" : 4,
            "componentType" : 5126,
            "count" : 201798,
            "max" : [
                0.9999600052833557,
                0.053550004959106445
            ],
            "min" : [
                1.9999999494757503e-05,
                0.0
            ],
            "type" : "VEC2"
        },
        {
            "bufferView" : 5,
            "componentType" : 5125,
            "count" : 511704,
            "max" : [
                511703
            ],
            "min" : [
                0
            ],
            "type" : "SCALAR"
        },
        {
            "bufferView" : 6,
            "componentType" : 5126,
            "count" : 511704,
            "max" : [
                43.17124938964844,
                25.002853393554688,
                -161.45501708984375
            ],
            "min" : [
                13.97006893157959,
                -2.281688928604126,
                -186.27735900878906
            ],
            "type" : "VEC3"
        },
        {
            "bufferView" : 7,
            "componentType" : 5126,
            "count" : 511704,
            "max" : [
                0.9999558925628662,
                0.999993622303009,
                0.9999936819076538
            ],
            "min" : [
                -0.9999583959579468,
                -0.9999757409095764,
                -0.9999943375587463
            ],
            "type" : "VEC3"
        },
        {
            "bufferView" : 8,
            "componentType" : 5126,
            "count" : 511704,
            "max" : [
                0.9999997019767761,
                0.9999963641166687,
                0.9997910261154175,
                1.0
            ],
            "min" : [
                -0.9999794363975525,
                -0.9999861717224121,
                -0.9999979734420776,
                -1.0
            ],
            "type" : "VEC4"
        },
        {
            "bufferView" : 9,
            "componentType" : 5126,
            "count" : 511704,
            "max" : [
                0.9980499744415283,
                0.9980500000528991
            ],
            "min" : [
                0.1535699963569641,
                0.0019500255584716797
            ],
            "type" : "VEC2"
        },
        {
            "bufferView" : 10,
            "componentType" : 5125,
            "count" : 1082022,
            "max" : [
                1082021
            ],
            "min" : [
                0
            ],
            "type" : "SCALAR"
        },
        {
            "bufferView" : 11,
            "componentType" : 5126,
            "count" : 1082022,
            "max" : [
                65.66703033447266,
                39.87165832519531,
                -0.021270999684929848
            ],
            "min" : [
                -0.2480199933052063,
                -3.30704402923584,
                -181.0112762451172
            ],
            "type" : "VEC3"
        },
        {
            "bufferView" : 12,
            "componentType" : 5126,
            "count" : 1082022,
            "max" : [
                0.9999969005584717,
                0.9999995827674866,
                0.9999980330467224
            ],
            "min" : [
                -0.9999993443489075,
                -0.9999989867210388,
                -0.9999828338623047
            ],
            "type" : "VEC3"
        },
        {
            "bufferView" : 13,
            "componentType" : 5126,
            "count" : 1082022,
            "max" : [
                1.0,
                0.9999231100082397,
                0.999871015548706,
                1.0
            ],
            "min" : [
                -0.9999995231628418,
                -0.9999946355819702,
                -0.9999819993972778,
                -1.0
            ],
            "type" : "VEC4"
        },
        {
            "bufferView" : 14,
            "componentType" : 5126,
            "count" : 1082022,
            "max" : [
                0.999019980430603,
                0.8352999985218048
            ],
            "min" : [
                0.0009800000116229057,
                0.0009800195693969727
            ],
            "type" : "VEC2"
        }
    ],
    "asset" : {
        "generator" : "Khronos Blender glTF 2.0 exporter",
        "version" : "2.0"
    },
    "bufferViews" : [
        {
            "buffer" : 0,
            "byteLength" : 807192,
            "byteOffset" : 0,
            "target" : 34963
        },
        {
            "buffer" : 0,
            "byteLength" : 2421576,
            "byteOffset" : 807192,
            "target" : 34962
        },
        {
            "buffer" : 0,
            "byteLength" : 2421576,
            "byteOffset" : 3228768,
            "target" : 34962
        },
        {
            "buffer" : 0,
            "byteLength" : 3228768,
            "byteOffset" : 5650344,
            "target" : 34962
        },
        {
            "buffer" : 0,
            "byteLength" : 1614384,
            "byteOffset" : 8879112,
            "target" : 34962
        },
        {
            "buffer" : 0,
            "byteLength" : 2046816,
            "byteOffset" : 10493496,
            "target" : 34963
        },
        {
            "buffer" : 0,
            "byteLength" : 6140448,
            "byteOffset" : 12540312,
            "target" : 34962
        },
        {
            "buffer" : 0,
            "byteLength" : 6140448,
            "byteOffset" : 18680760,
            "target" : 34962
        },
        {
            "buffer" : 0,
            "byteLength" : 8187264,
            "byteOffset" : 24821208,
            "target" : 34962
        },
        {
            "buffer" : 0,
            "byteLength" : 4093632,
            "byteOffset" : 33008472,
            "target" : 34962
        },
        {
            "buffer" : 0,
            "byteLength" : 4328088,
            "byteOffset" : 37102104,
            "target" : 34963
        },
        {
            "buffer" : 0,
            "byteLength" : 12984264,
            "byteOffset" : 41430192,
            "target" : 34962
        },
        {
            "buffer" : 0,
            "byteLength" : 12984264,
            "byteOffset" : 54414456,
            "target" : 34962
        },
        {
            "buffer" : 0,
            "byteLength" : 17312352,
            "byteOffset" : 67398720,
            "target" : 34962
        },
        {
            "buffer" : 0,
            "byteLength" : 8656176,
            "byteOffset" : 84711072,
            "target" : 34962
        }
    ],
    "buffers" : [
        {
            "byteLength" : 93367248,
            "uri" : "kura_ar.bin"
        }
    ],
    "images" : [
        {
            "name" : "kura3dTex3",
            "uri" : "kura3dTex3.jpg"
        },
        {
            "name" : "kura3dTex1",
            "uri" : "kura3dTex1.jpg"
        },
        {
            "name" : "kura3dTex2",
            "uri" : "kura3dTex2.jpg"
        }
    ],
    "materials" : [
        {
            "name" : "Material.002",
            "pbrMetallicRoughness" : {
                "baseColorTexture" : {
                    "index" : 0
                }
            }
        },
        {
            "name" : "Material.003",
            "pbrMetallicRoughness" : {
                "baseColorTexture" : {
                    "index" : 1
                }
            }
        },
        {
            "name" : "Material.004",
            "pbrMetallicRoughness" : {
                "baseColorTexture" : {
                    "index" : 2
                }
            }
        }
    ],
    "meshes" : [
        {
            "name" : "obj1",
            "primitives" : [
                {
                    "attributes" : {
                        "NORMAL" : 2,
                        "POSITION" : 1,
                        "TANGENT" : 3,
                        "TEXCOORD_0" : 4
                    },
                    "indices" : 0,
                    "material" : 2
                }
            ]
        },
        {
            "name" : "obj0",
            "primitives" : [
                {
                    "attributes" : {
                        "NORMAL" : 7,
                        "POSITION" : 6,
                        "TANGENT" : 8,
                        "TEXCOORD_0" : 9
                    },
                    "indices" : 5,
                    "material" : 1
                }
            ]
        },
        {
            "name" : "obj2",
            "primitives" : [
                {
                    "attributes" : {
                        "NORMAL" : 12,
                        "POSITION" : 11,
                        "TANGENT" : 13,
                        "TEXCOORD_0" : 14
                    },
                    "indices" : 10,
                    "material" : 0
                }
            ]
        }
    ],
    "nodes" : [
        {
            "mesh" : 1,
            "name" : "obj0",
            "rotation" : [
                0.7071068286895752,
                0.0,
                -0.0,
                0.7071067094802856
            ],
            "scale" : [
                0.10000002384185791,
                0.10000002384185791,
                0.10000002384185791
            ]
        },
        {
            "mesh" : 0,
            "name" : "obj1",
            "rotation" : [
                0.7071068286895752,
                0.0,
                -0.0,
                0.7071067094802856
            ],
            "scale" : [
                0.10000002384185791,
                0.10000002384185791,
                0.10000002384185791
            ]
        },
        {
            "mesh" : 2,
            "name" : "obj2",
            "rotation" : [
                0.7071068286895752,
                0.0,
                -0.0,
                0.7071067094802856
            ],
            "scale" : [
                0.10000002384185791,
                0.10000002384185791,
                0.10000002384185791
            ]
        }
    ],
    "samplers" : [
        {}
    ],
    "scene" : 0,
    "scenes" : [
        {
            "name" : "Scene",
            "nodes" : [
                0,
                2,
                1
            ]
        }
    ],
    "textures" : [
        {
            "sampler" : 0,
            "source" : 0
        },
        {
            "sampler" : 0,
            "source" : 1
        },
        {
            "sampler" : 0,
            "source" : 2
        }
    ]
}
