<svg viewBox="0 0 908.12 786.31" xmlns="http://www.w3.org/2000/svg"><g stroke="#231815" stroke-width=".25"><path d="m804.37 370.16c-10.84 15.84-10.26 12 1.34 23.74 9.49 9.64 13.2 21.4 11.09 34.84-.61 3.86-1.45 7.68-1.95 10.3 7 11 14 20.89 19.86 31.35 8.35 14.81 9.94 30.75 6.38 47.4-2.07 9.68-7.34 16.66-16.32 20.23-10.35 4.1-21 7.36-31.59 11-1.69.57-3.44 1-5 1.4-2.26 3.93-.73 7 2.17 8.87 6.2 4 7.66 10.15 7.17 16.56-.34 4.37 1.11 7.52 3.18 10.9 5.2 8.5 10 17.29 15.5 25.56 5.19 7.75 11 15.06 16.79 22.43 5.09 6.54 5.1 8.67-.29 14.82-11.05 12.62-25 19.67-41.56 21.63-8.34 1-16.64 2.2-25.47 3.38 1.26 10.34 2.57 20.11 3.63 29.9 1.76 16.2 3.3 32.41 5.1 48.6.39 3.57 1.55 7.05 2.24 10.59 1.61 8.3 0 10.68-8 13.25-10.74 3.46-21.58 5.7-32.93 4.51-6.47-.68-12.38-2.58-16.92-7.81-7.92 5-16.31 7-25.78 4.88-5.24-1.15-10.79-1.07-16.21-1.19-9.29-.21-11.55-2.58-11.53-12 .08-28.91 0-57.83 0-87.56a48.14 48.14 0 0 0 -6.48-1.18 95.33 95.33 0 0 1 -40.62-11.32c-6.39-3.38-13.08-6.19-19.62-9.29-9.06-4.29-10.3-10.07-3.84-18 5.9-7.25 12.25-14.19 17.68-21.78 8.06-11.27 15.59-22.92 23.13-34.54 5.68-8.76 6-18.68 6.07-28.31-9.22-2.91-17.84-5.52-26.39-8.34-34.5-11.41-36.88-45.83-28.13-67.21 6.5-15.89 13.16-31.68 24-45.26a8.35 8.35 0 0 0 1.24-3.34c2.72-12.29 7.56-23.49 17.71-33.12-11-8.18-15-19.46-15.27-32.86-11.58.6-22.66 1.77-33.71 1.57-9.88-.17-19.78-1.55-29.6-2.94-16.47-2.33-27.49-13.2-37-25.57-3.11-4.08-4.3-9.8-5.76-14.94-4.41-15.51-1.88-30.61 4.19-45.07 8.55-20.36 19-39.78 32.77-57.15 16.32-20.54 32.21-41.48 49.51-61.18 20.32-23.14 42.25-44.62 69.1-60.66 17-10.18 34.28-11.88 53-7.2 18.41 4.6 35.48 11.85 50 24.26 15.37 13.12 31.1 25.88 45.63 39.88 10.38 10 19 21.79 28.48 32.77 8.84 10.28 18.78 19.83 26.31 31 14.45 21.46 29.79 42.61 37 68.07 4.7 16.55 4.68 32.86-3.11 48.48-6.65 13.36-18.48 21-31.43 27.5-19.46 9.77-40 10.28-61 8.55zm-.37-12.16c4.05.31 6 .4 8 .62 17.33 2 34.4 1.07 50.59-5.86 19-8.13 30.48-22 31.69-43.37a69.09 69.09 0 0 0 -9.67-39c-13.66-23.45-26.77-47.4-46.18-66.94q-6.7-6.75-13-13.86c-12.56-14.26-23.9-29.61-38.86-41.66a231 231 0 0 1 -19.57-17.63c-16.32-16.53-36.66-25.3-58.76-30.09-8-1.73-16.63-3.3-24.94.27a152.74 152.74 0 0 0 -30.5 17.63c-19.31 14.29-35.87 31.44-51.46 49.51q-21.34 24.68-41.34 50.48c-13.52 17.45-25.07 36.11-33.46 56.74-4.27 10.49-8.23 20.86-7.86 32.21.26 8.07.33 16.69 5.72 23.32 6.9 8.51 15.17 15.47 26.17 18.55 19.88 5.55 39.82 3.85 59.79 1.73 0-1 .16-1.35 0-1.52a12 12 0 0 0 -1.77-2c-9.7-8-14.66-18.58-14.59-30.91.05-9.29.72-18.84 3-27.81 4.65-18.49 16.48-31.64 33.56-40.12 8.11-4 16.12-8.24 24.11-12.48a102.42 102.42 0 0 0 27.33-20.68c9.15-9.83 13.29-21.38 12.84-34.71-.13-3.57-.06-7.15-.08-10.53 6.73-2 9.24-1.34 12.5 3.94 2.53 4.09 4.45 8.57 6.64 12.87 3.84 7.53 7.29 15.44 14.57 20.41 10.46 7.15 20.53 15.2 31.82 20.7 24.13 11.76 42.62 29.07 57 51.43 14.66 22.79 11.85 55.09-8.19 72.85-1.46 1.29-2.58 2.96-5.1 5.91zm-97.9-161.23c-14.83 31.09-24.04 40.23-55.1 55.4-6 2.92-11.82 6.07-17.52 9.44-13.67 8.09-22.93 19.83-25.88 35.44a84.31 84.31 0 0 0 -1 26c1.87 14.66 12.56 19.74 26 13.65a11.2 11.2 0 0 1 3.43-1.07c13.63-1.28 25.84 1.38 34.87 12.74 1.81 2.28 3.67 4.52 5.62 6.91 23-8.23 45.23-10.49 68.21 1.61 1.46-14.16 11.55-18.81 22.51-22.2 11.83-3.66 21.67 1.61 30.74 8.08 14.36-11 23.8-37.58 7.79-59.73-14-19.36-30.81-35-52.57-45.79-18.53-9.25-36.32-20.35-47.07-40.53zm-9.91 279.76c13.26 3.67 26.34-.63 39.46-1.13 20.26-.76 38-8.38 54.37-20 15.84-11.2 20.6-39.5 3.82-53.92a59.09 59.09 0 0 1 -5.78-5.74c-8.1-9.23-8.1-14-.17-23.15 5.79-6.65 5.55-13.65-1.17-19.5a19.45 19.45 0 0 0 -8.66-4.62c-12.25-2.24-25.05 3.78-21.35 19.05.21.88.41 1.77.58 2.65.61 3 1.27 6.28-2 8.12-3.46 2-6.21.41-8.64-2.47a25.76 25.76 0 0 0 -5.4-4.56c-13.87-9.31-29.25-10.56-45.13-7.7-5.89 1.06-11.59 3.25-17.3 5.16-6.64 2.21-7.92 2-12.1-3.53-2.37-3.12-4.75-6.24-7-9.42-5.46-7.58-21.73-8.67-26.24-3.77-11.83 12.86-10.41 21.25-1.43 31.46 1.33 1.52 3.4 2.4 5.17 3.52a8.09 8.09 0 0 1 4.1 8.33 20.2 20.2 0 0 1 -7.07 14c-17.95 16.35-12.57 46.65 9.31 55.62a142.25 142.25 0 0 0 24 7.4c9.44 1.93 19.12 2.79 28.66 4.15zm-91.02 168.41c7.43 4 14.11 7.93 21.08 11.26 11.51 5.48 23.42 9.49 36.51 9 9.34-.35 18.72-.43 28 .08 33 1.78 65.7-1.67 98.36-5.46 13.41-1.56 24.56-7.6 33-19.12-15.36-16.12-25.17-35.89-36.31-53.79l-18.66-1.42c-1.86 7.87-8.11 10.64-15.24 11.75-5.91.91-11.91 1.27-17.89 1.64-5.76.36-9.67-2.15-12-7.66-1.16-2.76-3.47-5-6.13-8.72-2.22 3.75-3.31 6.19-5 8.18a15.94 15.94 0 0 1 -5.3 4.38 27.24 27.24 0 0 1 -8.5 2.43c-7.45.79-15 1.85-22.39 1.51-6.53-.3-11.6-5.46-12.09-10.48-1.13-11.52-2.12-23-3.17-34.59-3.3 1.69-3.4 1.69-3.53 3.55a65.43 65.43 0 0 1 -10.25 31.43c-7.81 12.16-16.16 24-24.59 35.74-4.76 6.83-10.28 13.22-15.9 20.29zm37.66-165.72c-13.46-6.1-24.29-13.89-28.65-28.56-1.21 1.25-2.31 1.94-2.77 2.93-5.67 12.27-12.32 24.22-16.55 37-4.84 14.62-2.08 33.49 20.68 41.83 25.6 9.37 51.43 10.41 78.28 7.09.49-6.48 1.1-12.4 1.33-18.35.14-3.55-1.85-5.64-5.57-5.6-6 .06-12.07-.39-18 .42-8.12 1.11-15.69.18-22.74-3.81-10.71-6.06-13.86-16.64-8.54-27.7zm148.88-7.75c12.43 11.54 8.82 25.3-.48 33.47-9 7.85-19.55 11.66-31.77 9.59-3.42-.57-6.94-.57-11.76-.94.45 8 .82 14.75 1.23 22.18 5.6.43 10.08.56 14.49 1.14 19.84 2.59 38.31-1.89 56.14-10.28 4.41-2.07 7.37-5 8.71-9.72a59 59 0 0 0 1-27.66c-2.65-14.12-10.66-25.17-18.94-36.31zm-92.42 113.8c2.58-3.55 5.11-6.93 7.51-10.39 6.5-9.42 13.44-6.41 19.14-1.73a20 20 0 0 1 6 7.75c2.38 6.25 7 6.83 12.39 6.07 2.64-.36 5.23-1.13 7.91-1.73.62-8.1 1.63-15.85 1.67-23.6 0-7-6-14.61-11.2-14.3-6.11.37-12.7.44-17.24 6.37a13.61 13.61 0 0 1 1.43 3.24c.38 2.45 1.5 5.62.44 7.27-1.84 2.83-5.15 1.94-8.2.73-2-.78-4.33-.46-6.47-.85-2.46-.45-5.52-.46-7.08-2-1.05-1-.09-4.28.24-6.49a13 13 0 0 1 1.55-3.25c-5.38-2.75-10.08-4.49-15.58-.95-2.09 1.34-5.25 1-7.92 1.47l-13.51 2.23c4.07 10.64.77 22 7.32 31.61zm5.24 155.55c3.88 1.79 8.39 3 11.79 5.67s5.71 6.76 8.63 10.39l9.42-6.26c-3-24-1.84-48.43-7-72.91l-23.12-.14c.12 21.43.2 42.13.28 63.25zm-9.29-237.82 27.09 5.3 23.73-8.3c.55-4.21 1.05-7.94 1.67-12.64-9.44 1.42-17.91 3.34-26.47 3.79-8.82.46-17.72-.52-26.7-.87.24 4.33.44 7.87.68 12.72zm44.47 173.62 3.72 39.73 15.92.27c-1.93-13.9-3.73-26.81-5.65-40.57zm-61.87 35 13.79-.4c-.15-11.54-.29-22.28-.42-32.68l-13.14-1c-.07 11.75-.15 22.53-.23 34.12zm-27.67-217.79c6.57 12 20.82 13 30.28 2.52a26.34 26.34 0 0 0 -21.28-9.47c-4.58.12-7.25 2.39-9 6.95zm28 271.57c7.72 1.18 15.31 2.61 23 3.36 2.42.23 5.3-.89 7.47-2.22 4.34-2.66 4.34-6.49 0-9.14-5.35-3.25-11.31-3.37-17.35-2.07-3.47.75-7 1.37-10.45 2.12a6.18 6.18 0 0 0 -1.65 1.09 40.19 40.19 0 0 0 -1.2 4.11 10.67 10.67 0 0 0 .14 2.75zm106.2-280.92c-8.7-1.74-16.58.19-21.31 5-2.5 2.56-3.78 8.4-2 10.88 2.48 3.47 5.59 2.42 8.82.87 3-1.42 6.26-2.18 9.16-3.7 4.96-2.63 7.72-6.53 5.29-13.05zm-22.57 271.69c-11.53 1.92-23 1.58-31.94 10.81 7.85 3.88 19.66 3 32.54-1.94-.18-2.67-.4-5.54-.6-8.87zm-84.21-33.45c.23 7.67.43 14.36.63 21.22l11.17 1.67 1.67-21.86zm82.4 5.82-15.75-.2c.44 6.4.79 11.62 1.21 17.73l17.43-1.29c-1-5.62-1.83-10.27-2.88-16.24zm-51.85-188.54c5.07-3.46 11.16-3.71 11.73-10.09.51-5.61-3.85-10.13-11.54-12.46-.06 7.23-.12 14.24-.19 22.55zm76 31.86c-3.88-5.25-8.9-7.21-16.82-6.46 1.23 3 1.52 5.81 3.09 7 4.14 3.22 9.34 2.79 13.71-.53zm-49.34-57.22c-2 2-3.53 2.75-3.47 3.39.6 5.84 1.47 11.66 2.26 17.48l2.22-.22c-.31-6.36-.62-12.71-1.01-20.65zm32.49 39.86 7.2-1.49c-5.3-4.18-5.3-4.18-7.2 1.49z" stroke-miterlimit="10"/><path d="m804 358c2.49-2.9 3.61-4.57 5.06-5.86 20-17.76 22.85-50.06 8.19-72.85-14.38-22.36-32.87-39.67-57-51.43-11.29-5.5-21.36-13.55-31.82-20.7-7.28-5-10.73-12.88-14.57-20.41-2.19-4.3-4.11-8.78-6.64-12.87-3.26-5.28-5.77-5.94-12.5-3.94 0 3.38 0 7 .08 10.53.45 13.33-3.69 24.88-12.84 34.71a102.42 102.42 0 0 1 -27.3 20.69c-8 4.24-16 8.45-24.11 12.48-17.08 8.48-28.91 21.63-33.56 40.12-2.26 9-2.93 18.52-3 27.81-.07 12.33 4.89 22.89 14.59 30.91a12 12 0 0 1 1.77 2c.14.17 0 .54 0 1.52-20 2.12-39.91 3.82-59.79-1.73-11-3.08-19.27-10-26.17-18.55-5.39-6.63-5.46-15.25-5.72-23.32-.37-11.35 3.59-21.72 7.86-32.21 8.47-20.69 19.97-39.35 33.47-56.8q20-25.77 41.29-50.48c15.59-18.07 32.15-35.22 51.46-49.51a152.74 152.74 0 0 1 30.5-17.63c8.31-3.57 17-2 24.94-.27 22.1 4.79 42.44 13.56 58.76 30.09a231 231 0 0 0 19.58 17.53c15 12 26.3 27.4 38.86 41.66q6.29 7.13 13 13.86c19.41 19.54 32.52 43.49 46.18 66.94a69.09 69.09 0 0 1 9.67 39c-1.21 21.39-12.71 35.24-31.69 43.37-16.19 6.93-33.26 7.86-50.59 5.86-1.96-.17-3.88-.26-7.96-.52z" fill="#e2c851" stroke-miterlimit="10"/><path d="m706.13 196.72c10.75 20.18 28.54 31.29 47.14 40.52 21.73 10.76 38.58 26.43 52.57 45.76 16 22.15 6.57 48.77-7.79 59.73-9.07-6.47-18.91-11.74-30.74-8.08-11 3.39-21 8-22.51 22.2-23-12.1-45.24-9.84-68.21-1.61-2-2.39-3.81-4.63-5.62-6.91-9-11.36-21.24-14-34.87-12.74a11.2 11.2 0 0 0 -3.43 1.07c-13.49 6.09-24.18 1-26-13.65a84.31 84.31 0 0 1 1-26c2.95-15.61 12.21-27.35 25.88-35.44 5.7-3.37 11.57-6.52 17.52-9.44 30.99-15.13 40.2-24.27 55.06-55.41zm78.48 103.7c1.2-14.43-6.5-29.32-18.4-35.61-8.37-4.42-19.65-3.88-26.16 2.63-12.34 12.34-16.49 27.46-9.6 43.79 3.46 8.19 11 13.45 18.62 15.71 15.11 4.47 34.23-10.66 35.54-26.52zm-135.38-11.6c.12 10.51 1.41 21.71 12.81 28.75a12.23 12.23 0 0 1 3.7 3.84c2.84 4.57 6.71 4.66 11 2.7a67.26 67.26 0 0 0 9.59-5 30.93 30.93 0 0 0 13.17-33.92c-3.69-14.91-13.25-23.83-26.93-25.64a14.84 14.84 0 0 0 -12.44 3.85c-7.46 6.36-9.81 14.9-10.9 25.42zm58.07 37.25c2.84-1.9 4.85-3.19 6.8-4.56 2.8-1.95 4.49-4.92 2.19-7.59-1.67-1.94-5.76-4-7.53-3.22-5.35 2.37-11.09 5.08-13.41 11.15-.78 2-1.25 5.32-.16 6.71a58.69 58.69 0 0 0 11.27 11.27c1.38 1 5.31-.19 7.14-1.6.9-.7.14-4.37-.74-6.31-.81-1.78-2.78-3.03-5.56-5.85z" fill="#fae4cd" stroke-miterlimit="10"/><path d="m696.22 476.48c-9.54-1.36-19.19-2.22-28.59-4.23a142.25 142.25 0 0 1 -24-7.4c-21.88-9-27.26-39.27-9.31-55.62a20.2 20.2 0 0 0 7.07-14 8.09 8.09 0 0 0 -4.1-8.33c-1.77-1.12-3.84-2-5.17-3.52-9-10.21-10.4-18.6 1.43-31.46 4.51-4.9 20.78-3.81 26.24 3.77 2.29 3.18 4.67 6.3 7 9.42 4.18 5.49 5.46 5.74 12.1 3.53 5.71-1.91 11.41-4.1 17.3-5.16 15.88-2.86 31.26-1.61 45.13 7.7a25.76 25.76 0 0 1 5.4 4.56c2.43 2.88 5.18 4.43 8.64 2.47 3.24-1.84 2.58-5.1 2-8.12-.17-.88-.37-1.77-.58-2.65-3.7-15.27 9.1-21.29 21.35-19.05a19.45 19.45 0 0 1 8.66 4.62c6.72 5.85 7 12.85 1.17 19.5-7.93 9.12-7.93 13.92.17 23.15a59.09 59.09 0 0 0 5.78 5.74c16.78 14.42 12 42.72-3.82 53.92-16.42 11.6-34.11 19.22-54.37 20-13.16.53-26.24 4.83-39.5 1.16zm29.18-60a32.73 32.73 0 0 0 7.74 22.15c7.59 8.86 17.1 9.82 26.26 2.86 9.86-7.49 11.38-18.24 10.05-29.22-1.45-12.27-12.72-21.33-23.62-20.63-12.98.83-19.15 7.48-20.43 24.84zm-28-6.45c.79-5.61-1.19-13.26-6.1-20.24-6.56-9.32-23.89-8.85-30.3.65-7.49 11.12-3.9 33 7.28 42.05 7.14 5.8 13.1 5.4 20.26-.41 6.23-5.03 7.82-11.87 8.9-22.08zm-1 25.53c.19.91.2 3.17 1.12 4.95 3.89 7.46 9.54 14.05 10.48 23 .12 1.14 3.4 2.87 5 2.63 1.37-.21 2.61-2.67 3.46-4.37.49-1 .15-2.36.07-3.55-.29-4.76.35-8.75 5.51-11.09 4.46-2 4.94-6.35 4.55-10.85-.59-6.8-4.59-10.58-10.46-13.28-8.9-4.19-19.13 1.57-19.71 12.56zm77-66.28c3.72.2 6.31-1.92 6.71-5.51.43-3.89-2.35-7.28-6-7.27s-6.49 2.95-6.77 6.88c-.23 3.62 1.83 5.62 6.08 5.9zm-127.53 6.65c4 .33 8-2.49 7.3-5.44a10.8 10.8 0 0 0 -4.85-6.49c-2.64-1.36-6.68 2.7-7.06 6.31-.39 3.9 1.92 5.27 4.63 5.62z" fill="#ecb957" stroke-miterlimit="10"/><path d="m605.17 644.94c5.62-7.07 11.14-13.46 16-20.29 8.43-11.75 16.78-23.58 24.59-35.74a65.43 65.43 0 0 0 10.25-31.43c.13-1.86.23-1.86 3.53-3.55 1 11.54 2 23.07 3.17 34.59.49 5 5.56 10.18 12.09 10.48 7.42.34 14.94-.72 22.39-1.51a27.24 27.24 0 0 0 8.5-2.43 15.94 15.94 0 0 0 5.3-4.38c1.64-2 2.73-4.43 5-8.18 2.66 3.7 5 6 6.13 8.72 2.32 5.51 6.23 8 12 7.66 6-.37 12-.73 17.89-1.64 7.13-1.11 13.38-3.88 15.24-11.75l18.66 1.42c11.14 17.9 21 37.67 36.31 53.79-8.48 11.52-19.63 17.56-33 19.12-32.66 3.79-65.36 7.24-98.36 5.46-9.32-.51-18.7-.43-28-.08-13.09.49-25-3.52-36.51-9-7.07-3.33-13.75-7.26-21.18-11.26z" fill="#b1dae6" stroke-miterlimit="10"/><path d="m642.83 479.22-2.5 5.23c-5.32 11.06-2.17 21.64 8.54 27.7 7 4 14.62 4.92 22.74 3.81 5.9-.81 12-.36 18-.42 3.72 0 5.71 2.05 5.57 5.6-.23 6-.84 11.87-1.33 18.35-26.85 3.32-52.68 2.28-78.28-7.09-22.76-8.34-25.52-27.21-20.68-41.83 4.23-12.76 10.88-24.71 16.55-37 .46-1 1.56-1.68 2.77-2.93 4.33 14.69 15.16 22.48 28.62 28.58z" fill="#b1dae6" stroke-miterlimit="10"/><path d="m791.71 471.47 18.64-18.53c8.28 11.14 16.29 22.19 18.94 36.31a59 59 0 0 1 -1 27.66c-1.34 4.7-4.3 7.65-8.71 9.72-17.83 8.39-36.3 12.87-56.14 10.28-4.41-.58-8.89-.71-14.49-1.14-.41-7.43-.78-14.15-1.23-22.18 4.82.37 8.34.37 11.76.94 12.22 2.07 22.81-1.74 31.77-9.59 9.28-8.17 12.89-21.94.46-33.47z" fill="#b1dae6" stroke-miterlimit="10"/><path d="m699.29 585.27-21.58 1.5c-6.55-9.65-3.25-21-7.32-31.61l13.51-2.23c2.67-.44 5.83-.13 7.92-1.47 5.5-3.54 10.2-1.8 15.58.95a13 13 0 0 0 -1.55 3.25c-.33 2.21-1.29 5.48-.24 6.49 1.56 1.49 4.62 1.5 7.08 2 2.14.39 4.51.07 6.47.85 3.05 1.21 6.36 2.1 8.2-.73 1.06-1.65-.06-4.82-.44-7.27a13.61 13.61 0 0 0 -1.43-3.24c4.54-5.93 11.13-6 17.24-6.37 5.23-.31 11.24 7.28 11.2 14.3 0 7.75-1 15.5-1.67 23.6-2.68.6-5.27 1.37-7.91 1.73-5.41.76-10 .18-12.39-6.07a20 20 0 0 0 -6-7.75c-5.7-4.68-12.64-7.69-19.14 1.73-2.42 3.41-4.95 6.79-7.53 10.34z" fill="#ecb957" stroke-miterlimit="10"/><path d="m695.24 503c-.26-4.85-.44-8.39-.68-12.75 9 .35 17.88 1.33 26.7.87 8.56-.45 17-2.37 26.47-3.79-.62 4.7-1.12 8.43-1.67 12.64l-23.73 8.33z" fill="#ecb957" stroke-miterlimit="10"/><path d="m739.71 676.62 14-.57c1.92 13.76 3.72 26.67 5.65 40.57l-15.92-.27z" fill="#fae4cd" stroke-miterlimit="10"/><path d="m677.84 711.66c.08-11.59.15-22.37.23-34.08l13.14 1c.13 10.4.27 21.14.42 32.68z" fill="#fae4cd" stroke-miterlimit="10"/><path d="m650.17 493.83c1.75-4.56 4.42-6.85 9-6.95a26.34 26.34 0 0 1 21.28 9.47c-9.45 10.5-23.71 9.48-30.28-2.52z" fill="#ecb957" stroke-miterlimit="10"/><path d="m678.13 765.4a10.67 10.67 0 0 1 -.25-2.75 40.19 40.19 0 0 1 1.2-4.11 6.18 6.18 0 0 1 1.65-1.09c3.47-.75 7-1.37 10.45-2.12 6-1.3 12-1.18 17.35 2.07 4.38 2.65 4.38 6.48 0 9.14-2.17 1.33-5.05 2.45-7.47 2.22-7.62-.76-15.21-2.18-22.93-3.36z" fill="#eba7b0" stroke-miterlimit="10"/><path d="m784.33 484.48c2.43 6.49-.29 10.42-5.33 13.07-2.9 1.52-6.2 2.28-9.16 3.7-3.23 1.55-6.34 2.6-8.82-.87-1.78-2.48-.5-8.32 2-10.88 4.73-4.83 12.61-6.76 21.31-5.02z" fill="#ecb957" stroke-miterlimit="10"/><path d="m761.8 756.17c.23 3.33.42 6.2.6 8.87-12.88 5-24.69 5.82-32.54 1.94 8.91-9.23 20.41-8.89 31.94-10.81z" fill="#eba7b0" stroke-miterlimit="10"/><path d="m677.59 722.72 13.47 1-1.67 21.86-11.17-1.67c-.22-6.83-.4-13.52-.63-21.19z" fill="#fff" stroke-miterlimit="10"/><path d="m760 728.54c1.06 6 1.89 10.62 2.89 16.24l-17.43 1.29c-.42-6.11-.77-11.33-1.21-17.73z" fill="#fff" stroke-miterlimit="10"/><path d="m708.14 540c.07-8.32.13-15.33.19-22.55 7.69 2.33 12 6.85 11.54 12.46-.57 6.39-6.66 6.64-11.73 10.09z" fill="#fae4cd" stroke-miterlimit="10"/><path d="m784.12 571.87c-4.37 3.32-9.57 3.75-13.73.55-1.57-1.2-1.86-4.06-3.09-7 7.92-.76 12.94 1.2 16.82 6.45z" fill="#ecb957" stroke-miterlimit="10"/><path d="m734.8 514.64c.39 7.94.7 14.29 1 20.65l-2.22.22c-.79-5.82-1.66-11.64-2.26-17.48-.05-.64 1.43-1.44 3.48-3.39z" fill="#fae4cd" stroke-miterlimit="10"/><path d="m767.29 554.5c1.9-5.67 1.9-5.67 7.2-1.49z" fill="#fff" stroke-miterlimit="10"/><path d="m784.61 300.42c-1.31 15.86-20.43 31-35.54 26.52-7.63-2.26-15.16-7.52-18.62-15.71-6.89-16.33-2.74-31.45 9.6-43.79 6.51-6.51 17.79-7.05 26.16-2.63 11.9 6.29 19.6 21.19 18.4 35.61zm-38.75-20c1.31 1.26 2.13 2.1 3 2.88 9.41 8.3 10.34 11.92 6.14 23.73-.79 2.23-1.52 4.5-2.44 7.24 19.3-4 23.8-13.18 15.41-29.31-.42-.8-.77-1.65-1.25-2.41-5.35-8.55-11.57-9.38-20.86-2.17z" stroke-miterlimit="10"/><path d="m649.23 288.82c1.09-10.52 3.44-19.06 10.89-25.45a14.84 14.84 0 0 1 12.44-3.85c13.68 1.81 23.24 10.73 26.93 25.64a30.93 30.93 0 0 1 -13.17 33.92 67.26 67.26 0 0 1 -9.59 5c-4.28 2-8.15 1.87-11-2.7a12.23 12.23 0 0 0 -3.7-3.84c-11.39-7.01-12.68-18.21-12.8-28.72zm18.51 21.71c2.1 0 4.83.92 6.19-.07 4.29-3.13 8.93-6.38 11.84-10.67 4.35-6.43.78-18.9-5.66-23.55-5.42-3.9-11.81-3.22-16.51 2 4.82 4.1 11.67 6.21 12.23 14.36.51 7.5-2.57 12.54-8.09 17.93z" stroke-miterlimit="10"/><path d="m707.3 326.07c2.78 2.82 4.75 4.07 5.56 5.85.88 1.94 1.64 5.61.74 6.31-1.83 1.41-5.76 2.61-7.14 1.6a58.69 58.69 0 0 1 -11.27-11.27c-1.09-1.39-.62-4.68.16-6.71 2.32-6.07 8.06-8.78 13.41-11.15 1.77-.78 5.86 1.28 7.53 3.22 2.3 2.67.61 5.64-2.19 7.59-1.95 1.37-3.96 2.66-6.8 4.56z" stroke-miterlimit="10"/><path d="m725.4 416.48c1.28-17.36 7.45-24 20.43-24.84 10.9-.7 22.14 8.38 23.62 20.63 1.33 11-.19 21.73-10.05 29.22-9.16 7-18.67 6-26.26-2.86a32.73 32.73 0 0 1 -7.74-22.15zm15.21 15.59c5.53 3.17 7.91 2.85 12-1.63 5.66-6.2 6.84-15.53 2.73-21.57-3.44-5.08-5.77-5.59-12.91-2.84 7.88 9.6 12.42 15.97-1.82 26.04z" stroke-miterlimit="10"/><path d="m697.44 410c-1.08 10.18-2.67 17-8.86 22.05-7.16 5.81-13.12 6.21-20.26.41-11.18-9.07-14.77-30.93-7.28-42.05 6.41-9.5 23.74-10 30.3-.65 4.91 7.01 6.89 14.66 6.1 20.24zm-27.44 13.88c5.22 3.2 9 3.12 11.6-2a44.21 44.21 0 0 0 5-17c.46-7.47-6.37-11.11-14.14-8.61 8.71 11.28 9.54 19.93-2.46 27.61z" stroke-miterlimit="10"/><path d="m696.42 435.56c.59-11 10.81-16.75 19.71-12.6 5.89 2.74 9.84 6.52 10.43 13.28.39 4.5-.09 8.83-4.55 10.85-5.16 2.34-5.8 6.33-5.51 11.09.08 1.19.42 2.6-.07 3.55-.85 1.7-2.09 4.16-3.46 4.37-1.55.24-4.83-1.49-5-2.63-.94-8.91-6.59-15.5-10.48-23-.87-1.74-.88-4-1.07-4.91zm20.12 2.26c-1.95-4.22-4.68-5.95-8-4.53s-3.09 4.44-.87 7.79z" stroke-miterlimit="10"/><path d="m773.42 369.28c-4.25-.24-6.31-2.25-6-5.9.28-3.93 3.19-6.88 6.77-6.88s6.41 3.38 6 7.27c-.46 3.59-3.05 5.71-6.77 5.51z" stroke-miterlimit="10"/><path d="m645.89 375.93c-2.71-.35-5-1.72-4.61-5.62.38-3.61 4.42-7.67 7.06-6.31a10.8 10.8 0 0 1 4.85 6.49c.69 2.95-3.31 5.77-7.3 5.44z" stroke-miterlimit="10"/><path d="m745.86 280.38c9.29-7.21 15.51-6.36 20.87 2.13.48.76.83 1.61 1.25 2.41 8.39 16.13 3.89 25.32-15.41 29.31.92-2.74 1.65-5 2.44-7.24 4.2-11.81 3.27-15.43-6.14-23.73-.87-.78-1.7-1.62-3.01-2.88z" fill="#fff" stroke-miterlimit="10"/><path d="m667.74 310.53c5.52-5.39 8.6-10.43 8.09-17.92-.56-8.15-7.41-10.26-12.23-14.36 4.7-5.23 11.09-5.91 16.51-2 6.44 4.65 10 17.12 5.66 23.55-2.91 4.29-7.55 7.54-11.84 10.67-1.36.98-4.09.09-6.19.06z" fill="#fff" stroke-miterlimit="10"/><path d="m740.61 432.07c14.24-10.05 9.7-16.44 1.83-26 7.14-2.75 9.47-2.24 12.91 2.84 4.11 6 2.93 15.37-2.73 21.57-4.1 4.44-6.48 4.76-12.01 1.59z" fill="#fff" stroke-miterlimit="10"/><path d="m670 423.88c11.94-7.68 11.15-16.33 2.5-27.61 7.77-2.5 14.6 1.14 14.14 8.61a44.21 44.21 0 0 1 -5 17c-2.64 5.12-6.4 5.2-11.64 2z" fill="#fff" stroke-miterlimit="10"/><path d="m716.54 437.82-8.9 3.26c-2.22-3.35-2.53-6.33.87-7.79s6.08.31 8.03 4.53z" fill="#f4c43a" stroke-miterlimit="10"/></g><path d="m799.91 137.23c18.1 11.05 26.3 27 28.71 46.37a101.43 101.43 0 0 1 .39 10.18c.22 9.77-4.83 16.89-11.92 22.76-2.68 2.23-5.4 1.78-9.17.56-10-3.25-15-10.69-19.19-19.15-4.89-9.81-7.49-20.07-4.8-31.1 2.16-8.84 3.9-17.88 10.43-24.86a69.76 69.76 0 0 1 5.55-4.76zm10.36 70.37c3.28-2.88 6.44-5.71 7-10.67 1.78-16.12-3.63-29.86-13.6-42.12-.89-1.1-2.39-1.71-3.65-2.58-12.27 23.09-5.18 44.33 10.25 55.37z"/><path d="m810.27 207.6c-15.43-11-22.52-32.28-10.26-55.37 1.26.87 2.76 1.48 3.65 2.58 10 12.26 15.38 26 13.6 42.12-.55 4.96-3.71 7.79-6.99 10.67z" fill="#29a539"/><path d="m537.44 332c1.47-4.16 3.87-11.54 6.71-18.75 1.13-2.88 5.43-3.75 9-1.51 4.14 2.63 8.68 5.42 11.43 9.29a172.65 172.65 0 0 1 13.42 22.97c5.55 11.09 2.71 22-2.41 32.37-2.08 4.23-5.22 4.82-9.61 2.46-.66-.36-1.42-1.44-1.79-1.3-7.07 2.7-10.32-3.19-13.54-6.91-8.58-9.97-13.86-21.51-13.21-38.62zm28.42 39.17c2.43-9.42 6.27-18.17 1.59-27.13-4-7.64-7.48-15.78-14.9-21.18-10.8 13.97-2.98 38.85 13.31 48.3z"/><path d="m565.86 371.16c-16.29-9.45-24.11-34.33-13.31-48.31 7.42 5.4 10.92 13.54 14.9 21.18 4.68 8.97.84 17.71-1.59 27.13z" fill="#29a539"/><path d="m767.15 659.1c-11.9-1.69-18-12.06-11.95-22s12.34-20.25 23.33-26c5.18-2.74 10.32-4.53 16.51-3.15 4.11.92 5.81 3.21 6.55 6.68 2.69 12.53-.89 23.89-7.29 34.43a14.2 14.2 0 0 1 -7.46 5.4c-6.42 1.99-13.11 3.14-19.69 4.64zm-4.24-10.65c3.67.19 7.42 1 10.87.39 3.93-.76 9-1.81 11.12-4.6a35 35 0 0 0 6.61-28.47c-11.63 3.08-26.01 19.61-28.6 32.68z"/><path d="m762.91 648.45c2.59-13.07 17-29.6 28.6-32.68a35 35 0 0 1 -6.61 28.47c-2.12 2.79-7.19 3.84-11.12 4.6-3.45.66-7.2-.2-10.87-.39z" fill="#29a539"/><path d="m294.69 407.3c1.8 16.77 3.13 32 5.14 47.11 3.9 29.34 8.2 58.62 12.31 87.93 1.12 7.94 1.91 15.94 3.34 23.82 1.19 6.57 1.22 12.52-5.4 16.78 1.82 5 3.52 9.53 5.12 14.09 3 8.52 2.73 11.42-4.87 15.72-8.64 4.88-18.1 8.29-29 13.14q2.09 50.11 4.37 104.91c3.13.31 6.72.83 10.33 1 17.29.74 30.42 13.47 31.17 30.34.47 10.47-7.13 19.17-18.14 21.27-18.72 3.57-37.53 2.56-56.3 1.11-8.6-.66-17.07-2.8-25.65-3.91-2.18-.29-4.57.63-6.81 1.23-3.65 1-7.22 3-10.87 3.11-20.86.45-41.73 2.87-62.63-.05-4.7-.66-8.62-1.36-11.68-5.55-1.75-2.41-4.91-3.83-7.52-5.56-11.95-7.92-11.36-23.3-4-32.14 6.94-8.35 16.43-11.51 26.44-13.53 5.76-1.17 11.7-1.5 18.11-2.27l4.18-98.08c-10.13-3.24-19.75-5.91-29.06-9.39-10.4-3.9-10.85-5.08-9.59-16.45.47-4.14 1.57-8.22 2.05-12.36.27-2.33.69-5.27-.4-7-7.34-11.74-6.64-24.54-4.24-37 4.52-23.6 10.36-46.94 15.18-70.48 4.26-20.8 7.92-41.73 11.72-62.62.74-4.06.92-8.23 1.58-14.38-4.65 1.88-8 3.14-11.24 4.57-7 3.07-14 6.33-21 9.3-6.07 2.55-12 1.24-16.64-2.89a171.36 171.36 0 0 1 -16.79-17.08c-7.19-8.42-13.82-17.32-21.47-27-4.89 5.93-8.62 10.78-12.7 15.33q-9.76 10.89-19.93 21.41c-3.36 3.5-6.44 3.31-10.89.29-14.31-9.76-21.17-24.47-24.91-39.81a138.15 138.15 0 0 1 7.08-87.21 135 135 0 0 1 35-48.9c11.72-10.43 23.2-21.1 35.52-32.31q-7.36-9.09-3-21.46c2.94-8.39 7.47-14 16.59-14.41-2.45-8.69-4.92-16.59-6.89-24.61-5.82-23.69-2.29-47.08 2.64-70.4 5.93-28.09 26.21-41 51.7-47 13.16-3.13 26.83-2.73 40.45.18 14.46 3.08 25.51 10.58 34.49 21.91 1.48 1.86 3.31 3.45 5.53 5.73a37.42 37.42 0 0 0 2.32-3.77c9.2-20.37 26.09-32.3 46.62-37.3 29.26-7.12 57.18-.59 74 30.17 6.21 11.17 13.21 22.43 16.72 34.57 3.09 10.73 3.44 22.88 2.22 34.1-2.76 25.44-13 48.3-28.56 68.63-5.29 6.91-11.2 13.34-14.7 17.47-1.69 8.92-1.9 15.24-4.12 20.76-6.24 15.57-13.63 30.49-27 41.67-6.65 5.56-11.91 12.78-18.59 18.3-11 9.07-21.95 18.56-36.69 19.83-1.21 13.89-1 15.25 9.82 19.59 18.66 7.49 34.6 19.43 51.36 30 12.64 8 13.25 7.81 20-5.2 11.26-21.65 22.49-43.37 39.49-61.37 2.63-2.8 2.13-5.44 1.83-8.6-.63-6.57-1-13.18-1.22-19.78-.6-15.65 15.41-21.7 25.34-13.69a32.36 32.36 0 0 0 4.09 2.32c2.82-3.92 5.29-7.67 8.08-11.15a52.75 52.75 0 0 1 7.8-8.4c4.57-3.68 11.33-4.3 14.54-1.15 8.54 8.41 16.73 17.23 22.73 27.67 1.32 2.28.63 6.12 0 9-.9 4-10 8.65-11.58 13.2 3-1.19 13.26-2.9 15.15-2.55 7 3.2 8.38 7.07 5.42 17.27-6.78 9.29-15.6 17.27-26.86 20-9.79 2.41-14.75 12.26-17.79 21.75-10.69 33.45-32.05 60.93-51.5 89.38-3.76 5.51-10.19 9.41-15.94 13.24-2.16 1.43-6.19 1.44-8.81.53-8.54-3-16.82-6.67-25.21-10.09-2-.71-3.93-1.46-7.38-2.83zm5.59 163c.25-2.9.71-4.65.51-6.33-2.79-23.52-5.48-47.06-8.6-70.54-2.34-17.6-5.46-35.09-7.84-52.67-1.82-13.47-2.25-27.16-4.71-40.49-3.53-19.13-8.76-38-12.4-57.07-1.48-7.73-5.32-11.27-13.38-13 .11 8 .24 15.23.3 22.49.1 11.17-5.23 17.64-16.35 18.55a241.25 241.25 0 0 1 -27.16.48c-7.67-.24-13.93-5.36-14.32-11.18-.53-8-1.23-16-.8-24 .31-5.68-1.73-8.9-7.17-12-1.51 8-2.88 15.09-4.21 22.22-2.69 14.33-5.26 28.69-8.09 43-1.35 6.78-3.53 13.39-4.76 20.19-3.54 19.5-6.51 39.12-10.26 58.58-2.5 13-6.26 25.72-8.9 38.68q-5.1 25-9.22 50.29c-1.32 8.1 0 9.75 7.83 11.9 8.39 2.31 16.92 4.09 25.34 6.29a205.42 205.42 0 0 0 84 4.19c13.31-2.02 26.3-6.22 40.19-9.62zm-15.06-406.3c-1.27 6.59-1.92 11.69-3.27 16.6-3.23 11.71-7 15.23-22.91 17.49-10.64 1.51-16.47-2.73-22.18-13.22-7-12.92-3.73-25.93-.36-38.69 3.42-12.95 10.05-17.14 23.72-17.1 1.28 0 2.56-.15 4.65-.27-1.66-3.79-3.11-6.89-4.4-10.05-6.82-16.7-18.64-30.2-28.68-44.82-3.69-5.36-7.88-10.37-12.57-16.48l-44 65.73c3.16.45 5.16.84 7.18 1 13.73 1.09 21.38 9.08 24.61 21.87a69.75 69.75 0 0 1 2 12.35c1.45 21.75-2.57 26.59-24.6 30.51-16.81 3-29.5-7.35-30.48-24.29-.11-1.9.14-3.82.22-5.73-5.83 5.21-9.74 11.26-14.13 16.93-3.69 4.75-4.57 9.05-.58 14.09 1.43 1.81 1.92 4.45 2.57 6.78 2.51 9 4.34 18.26 7.48 27.05 10.65 29.82 33.83 44.83 63.2 52.09a16.1 16.1 0 0 0 7.31.16c11.54-2.75 23.22-5.34 32.4-13.65s18.23-17.18 27.7-25.35c11.26-9.7 17.54-22.41 22.7-35.83.93-2.42 1.53-6 .41-8-5.43-9.58-11.47-18.77-17.99-29.17zm-52.57-112.3c3.06 4.19 5.79 8.2 8.78 12 21.12 27 37.37 56.94 54 86.69 4.84 8.65 10 17.08 16.71 28.38 2.3-3.7 3.17-5.69 4.55-7.21a126.64 126.64 0 0 0 21.1-32c16-34.44 17-67.8-5.86-99.78-5.64-7.9-11.19-16.29-21-19.66-12.75-4.39-25.88-6.05-38.95-1.72-13.37 4.44-26.09 10-32.26 24.32-1.29 3.06-4.21 5.44-7.07 8.98zm-200.07 338.21c10.48-11.43 19.45-22 27.08-33.63 12.1-18.48 20-39 28.57-59.18a277.65 277.65 0 0 0 17.7-61c1.6-9.06 2.81-17.89-5.6-25-2.47-2.08-3.44-5.93-5.31-9.35a277.35 277.35 0 0 0 -52.51 48.95c-8.77 10.72-16.81 22.5-20.71 36.08-6.32 22-8.48 44.42-5.08 67.27 1.9 12.79 8.09 23.45 15.86 35.86zm177.83-340.5c-12.58-17-21.22-19.81-36.56-21.54-9.88-1.11-20.46-1.22-30 1.1-22.1 5.38-38.39 18-42.4 42.08-1.54 9.24-2.25 18.63-3.34 28-3.35 28.69 8.15 53 22.69 76.35.63 1 1.91 1.61 3.58 3 28.87-43.35 57.36-86.04 86.03-128.99zm74.09 299.45a161.93 161.93 0 0 0 7.19 36.62c.68 2.21 3.47 4.19 5.75 5.41 7 3.78 14.29 7.19 21.51 10.66 11.46 5.52 15.13 4.59 22.74-6 3.66-5.09 7-10.44 10.57-15.56 13.88-19.68 26.29-40.07 35.2-62.65 7.62-19.31 8.35-20.15-10.57-34-5.6-4.13-9.08-4-13.6 1.43a129.32 129.32 0 0 0 -13.18 18.75c-8.44 14.79-16.3 29.91-24.47 44.85a41.82 41.82 0 0 1 -4.15 6c-4.92 6.12-8.14 7.3-15.48 4.44-6.77-2.66-13.23-6.09-21.51-9.95zm-184.56-39.47c3.2 2.25 6.28 3.9 8.69 6.23 5 4.82 9.6 10 14.4 15 6.41 6.69 6.78 6.83 15.11 2.22 8.51-4.72 16.89-9.7 25.34-14.54 8.71-5 17-10.83 27.8-10.77 2.83 0 5.67-2 8.72-3.19-.25-3.13-.42-5.51-.62-7.89-.23-2.71-.48-5.41-.73-8.18-33.07-12.66-56.17-34.65-66.35-69.06l-9.61 3.32c-2.46 30.82-11.23 59.31-22.75 86.86zm74.23 19.07c-12 6.61-21.84 12.46-32 17.59-14.1 7.09-16.28 6.53-27.22-4.36-1-1-1.87-2.07-2.87-3-5.62-5.4-11.27-10.78-17.48-16.71l-14.6 29.48c9.89 12 19.08 23.29 28.34 34.48a69.42 69.42 0 0 0 6.37 6.9c6.8 6.24 7.92 6.27 16.56 2.06 9.69-4.72 19.34-9.54 29.18-13.91 3.61-1.6 5.5-3.67 6.12-7.55 2.32-14.38 4.84-28.74 7.6-44.98zm42.24 305.6c-.24 5.73-.64 10.55-.61 15.37 0 8.34.5 16.67.51 25 0 20.85.19 41.7-.32 62.54-.22 8.69 2.64 14.54 9.86 17.31l15.4-3.61c-.77-39.54-1.54-78.57-2.32-118.36zm-68.68-31.16c24.62 8.4 48.3 16.36 73.9 14.9 36.42-2.08 70.25-9.46 80.06-17.36-1.66-4.18-3.4-8.54-5.35-13.46-4.72 1.24-8.33 2.42-12 3.12-14.33 2.7-28.61 6.72-43.07 7.54a244.29 244.29 0 0 1 -79.7-8.27c-3.48-1-7.18-1.2-11.25-1.85-.92 5.32-1.59 9.38-2.59 15.38zm259.76-374.83-2-.83c-3.94 5.68-7.82 11.4-11.81 17-5.12 7.23-10.72 7.85-17.4 2.14-1.68-1.43-3.61-2.55-7.3-5.12-.26 6-.54 10-.57 14 0 4.9 1.24 8.29 7.08 9.66 4.56 1.07 9 3.88 12.73 6.91 6.42 5.26 12.22 11.29 19.06 17.74 9.51-2.31 24-10 30.66-19.29 6.8-3.19-11.68-2.76-18.24-3.23-2.85.18-6.05-1.87-9.8-1.63-2.77-3.06-3-4.93-3.32-8.53-10.75-3.49-9.47-5.88-5.37-14.88.72-1.58 1.84-3 2.53-4.57 1.36-3.06 2.52-6.23 3.75-9.37zm-240.3 510.58a45 45 0 0 0 -25.18 4c-3.49 1.66-6.55 5.24-8.61 8.66-3.68 6.13-1.87 9.69 3.71 14.06 6.87 5.37 14.64 5.75 22.56 5.56 18.37-.45 36.73-1.18 55.08-2 1.41-.06 2.76-1.66 4.14-2.54-.17-.55-.34-1.1-.52-1.65l-44-1.88c-7.85-6.86-6.8-15.21-7.18-24.21zm14.66 9.68 21.62.92c-.9-16.43-1.74-31.86-2.64-48.18l-17 .12zm55.53 17.67v2.5c24.91 2.13 49.75 6.26 74.88 1.82.07-19.65-9.57-28.27-24.71-22.81-2.45 17.52-2.81 17.57-21.11 17.3-9.68-.18-19.37.72-29.06 1.19zm31.68-74c-1.05-22.46-2-43.14-3-64.55l-12.27 2.91c-.21 20.85-1.1 41.2.94 62.33zm-67.62-5c0-10 .1-18.68-.11-27.31-.22-8.88-.76-17.76-1.17-27l-13.16-2.09-2.38 55.72zm70.3 63.17c.5-3.55 2.4-7.59 1.14-9.93-3.2-5.95-2.42-11.93-2.4-18 0-5.12-.3-10.23-.5-16.26l-14.55.72c-1.69 14.89-.49 35.81 2.27 42.92zm-59.12-457.39c.57 6.13 2.46 11.7 1.12 16.33-1.22 4.2-6 7.39-9.22 11.11 12.13 15.21 15.88 14.46 31.67-1-9.52-4.52-13.39-12.53-14.32-22.5-.5-5.25-3.96-5.66-9.25-3.94zm26.52 46.05-1.77-2.45c-7.07 9.82-17.15 7-26.67 7.29.26 5.17.46 9.24.72 14.44l28.48-.34c-.29-7.37-.52-13.15-.76-18.94zm26.91-157.46c-10-2.44-11.39-9.76-12.93-16.9-1.82-8.44 4.05-13.82 9.11-19.62-8.68-2.13-10.76-1.66-13 4.19a68.61 68.61 0 0 0 -3.83 15c-2.59 18.76 2.9 21 18 19.29.24-.04.48-.33 2.65-1.96zm-80.1-5.8c-12.59-15.26-12-21.95 2.74-33-3.35-3.82-7.52-6.68-11.15-1.95-6.47 8.43-10 18.3-8.2 29.25.62 3.68 2.93 6.34 7.19 6.19 2.98-.06 5.96-.29 9.47-.49zm-72.62 30.9c11.37 2.14 14.9-2 11.52-13.63l-9.14-1.63c-1 4.37-2 8.36-2.87 12.39-.19.91.32 1.95.49 2.87zm-20.4-36.24c-1.12 4.52-2.39 8-2.71 11.61-.14 1.65 1.39 4.77 2.49 4.93a8.2 8.2 0 0 0 6.19-2c4.46-4.56 2.91-8.98-5.97-14.54z"/><path d="m300.28 570.26c-13.89 3.4-26.88 7.6-40.2 9.64a205.42 205.42 0 0 1 -84-4.19c-8.42-2.2-17-4-25.34-6.29-7.8-2.15-9.15-3.8-7.83-11.9q4.11-25.23 9.22-50.29c2.64-13 6.4-25.7 8.9-38.68 3.75-19.46 6.72-39.08 10.26-58.58 1.23-6.8 3.41-13.41 4.76-20.19 2.83-14.31 5.4-28.67 8.09-43 1.33-7.13 2.7-14.25 4.21-22.22 5.44 3.09 7.48 6.31 7.17 12-.43 8 .27 16 .8 24 .39 5.82 6.65 10.94 14.32 11.18a241.25 241.25 0 0 0 27.16-.48c11.12-.91 16.45-7.38 16.35-18.55-.06-7.26-.19-14.52-.3-22.49 8.06 1.7 11.9 5.24 13.38 13 3.64 19.12 8.87 37.94 12.4 57.07 2.46 13.33 2.89 27 4.71 40.49 2.38 17.58 5.5 35.07 7.84 52.67 3.12 23.48 5.81 47 8.6 70.54.22 1.62-.25 3.37-.5 6.27z" fill="#f1998b"/><path d="m285.22 164c6.52 10.44 12.56 19.63 18 29.18 1.12 2 .52 5.58-.41 8-5.16 13.42-11.44 26.13-22.7 35.83-9.47 8.17-18.41 17-27.7 25.35s-20.9 10.86-32.41 13.64a16.1 16.1 0 0 1 -7.27-.17c-29.37-7.26-52.55-22.27-63.2-52.09-3.14-8.79-5-18-7.48-27.05-.65-2.33-1.14-5-2.57-6.78-4-5-3.11-9.34.58-14.09 4.39-5.67 8.3-11.72 14.13-16.93-.08 1.91-.33 3.83-.22 5.73 1 16.94 13.67 27.28 30.48 24.29 22-3.92 26.05-8.76 24.6-30.51a69.75 69.75 0 0 0 -2.05-12.4c-3.23-12.79-10.88-20.78-24.61-21.87-2-.16-4-.55-7.18-1l44-65.73c4.69 6.11 8.88 11.12 12.57 16.48 10 14.62 21.86 28.12 28.68 44.82 1.29 3.16 2.74 6.26 4.4 10.05-2.09.12-3.37.27-4.65.27-13.67 0-20.3 4.15-23.72 17.1-3.37 12.76-6.66 25.77.36 38.69 5.71 10.49 11.54 14.73 22.18 13.22 15.92-2.26 19.68-5.78 22.91-17.49 1.36-4.89 2.06-9.99 3.28-16.54zm-57.46 88.55c5.44 1.51 10.41.68 13.84-4.2 7.18-10.22 2.63-30.24-8.5-35.57-9.12-4.37-18.52-3.1-26.93 2-12.26 7.36-13.79 23.81-3.52 34.29a9.45 9.45 0 0 0 5.48 2.58c6.52.48 13.08.58 19.63.86zm-9.11-56.91c2.46 2.9 4.16 5.63 6.53 7.52 2.79 2.24 6.24 1.45 8.49-.91 1.41-1.47 2.62-4.52 2.05-6.25-3.86-11.68-17.63-19-27.6-8-2.08 2.3-4 4.74-6.41 7.62l5.53 8.22z" fill="#fdf1dd"/><path d="m232.65 51.7c2.86-3.54 5.78-5.92 7.1-9 6.17-14.34 18.89-19.88 32.26-24.32 13.07-4.33 26.2-2.67 38.95 1.72 9.79 3.37 15.34 11.76 21 19.66 22.83 32 21.87 65.34 5.86 99.78a126.64 126.64 0 0 1 -21.1 32c-1.38 1.52-2.25 3.51-4.55 7.21-6.67-11.3-11.87-19.73-16.71-28.38-16.64-29.75-32.89-59.73-54-86.69-3.02-3.78-5.75-7.79-8.81-11.98z" fill="#e2c851"/><path d="m32.58 389.91c-7.77-12.41-14-23.07-15.86-35.86-3.4-22.85-1.24-45.28 5.08-67.27 3.9-13.58 11.94-25.36 20.71-36.09a277.35 277.35 0 0 1 52.49-48.95c1.87 3.42 2.84 7.27 5.31 9.35 8.41 7.08 7.2 15.91 5.6 25a277.65 277.65 0 0 1 -17.7 61c-8.59 20.19-16.47 40.7-28.57 59.18-7.64 11.67-16.58 22.21-27.06 33.64z" fill="#e2c851"/><path d="m210.41 49.41c-28.67 43-57.16 85.64-86 128.9-1.67-1.35-3-1.95-3.58-3-14.59-23.31-26.09-47.62-22.74-76.31 1.09-9.32 1.8-18.71 3.34-27.95 4-24.07 20.3-36.7 42.4-42.08 9.56-2.32 20.14-2.21 30-1.1 15.36 1.73 24 4.56 36.58 21.54zm-86.64 39.2c1.09 1.71 2.23 5.53 4.71 6.9 3.28 1.81 6-.53 8.34-3.92 5.09-7.46 5.73-7.39 15.53-4.62 3.25.91 6.08 1.29 8.19-2.17s1.59-7.09-1.25-9.47c-6.25-5.24-13.44-7.19-21.45-4.15-7.4 2.82-12.25 7.82-14.07 17.43z" fill="#e2c851"/><path d="m284.5 348.86c8.28 3.86 14.74 7.29 21.51 9.92 7.34 2.86 10.56 1.68 15.48-4.44a41.82 41.82 0 0 0 4.15-6c8.17-14.94 16-30.06 24.47-44.85a129.32 129.32 0 0 1 13.18-18.75c4.52-5.39 8-5.56 13.6-1.43 18.92 13.9 18.19 14.74 10.57 34-8.91 22.58-21.32 43-35.2 62.65-3.61 5.12-6.91 10.47-10.57 15.56-7.61 10.59-11.28 11.52-22.74 6-7.22-3.47-14.47-6.88-21.51-10.66-2.28-1.22-5.07-3.2-5.75-5.41a161.93 161.93 0 0 1 -7.19-36.59z" fill="#fcead6"/><path d="m174.17 328.46c-2.76 16.24-5.28 30.6-7.59 45-.62 3.88-2.51 5.95-6.12 7.55-9.84 4.37-19.49 9.19-29.18 13.91-8.64 4.21-9.76 4.18-16.56-2.06a69.42 69.42 0 0 1 -6.37-6.9c-9.26-11.21-18.45-22.46-28.35-34.5l14.54-29.52c6.21 5.93 11.86 11.31 17.48 16.71 1 1 1.88 2.06 2.87 3 10.94 10.89 13.12 11.45 27.22 4.36 10.22-5.09 20.08-10.94 32.06-17.55z" fill="#fcead6"/><path d="m147.73 602.9c1-6 1.67-10.06 2.56-15.38 4.07.65 7.77.87 11.25 1.85a244.29 244.29 0 0 0 79.7 8.27c14.46-.82 28.74-4.84 43.07-7.54 3.7-.7 7.31-1.88 12-3.12 2 4.92 3.69 9.28 5.35 13.46-9.81 7.9-43.64 15.28-80.06 17.36-25.6 1.46-49.25-6.5-73.87-14.9z" fill="#fcead6"/><path d="m407.49 228.07c-1.23 3.14-2.39 6.31-3.72 9.4-.69 1.59-1.81 3-2.53 4.57-4.1 9-4.24 14 5.17 13.77.36 3.6 3.11 5.56 3.52 9.64 3.75-.24 9.9 1 12.75.78 16.32-.24 22.21 1 18.4 5.36-6.64 9.34-24.26 15.7-33.77 18-6.84-6.45-12.64-12.48-19.06-17.74-3.69-3-8.17-5.84-12.73-6.91-5.84-1.37-7.12-4.76-7.08-9.66 0-4 .31-8 .57-14 3.69 2.57 5.62 3.69 7.3 5.12 6.68 5.71 12.28 5.09 17.4-2.14 4-5.64 7.87-11.36 11.81-17z" fill="#fdf1dd"/><path d="m167.19 738.65c.38 9-.67 17.32 7.17 24.18l44 1.88c.18.55.35 1.1.52 1.65-1.38.88-2.73 2.48-4.14 2.54-18.35.81-36.71 1.54-55.08 2-7.92.19-15.69-.19-22.56-5.56-5.58-4.37-7.39-7.93-3.71-14.06 2.06-3.42 5.12-7 8.61-8.66a45 45 0 0 1 25.19-3.97z" fill="#f4bad1"/><path d="m181.85 748.33 2-47.14 17-.12c.9 16.32 1.74 31.75 2.64 48.18z" fill="#fff"/><path d="m237.38 766c9.69-.43 19.38-1.33 29.06-1.19 18.3.27 18.66.22 21.11-17.3 15.14-5.46 24.78 3.16 24.71 22.81-25.13 4.44-50 .31-74.88-1.82z" fill="#f4bad1"/><path d="m269.06 692-14.35.69c-2-21.13-1.15-41.48-.94-62.33l12.23-2.89c1 21.41 2 42.09 3.06 64.53z" fill="#fdf1dd"/><path d="m201.44 687-16.87-.72 2.43-55.68 13.21 2.18c.41 9.19 1 18.07 1.17 27 .16 8.58.03 17.22.06 27.22z" fill="#fdf1dd"/><path d="m271.74 750.21-14-.6c-2.76-7.11-4-28-2.27-42.92l14.53-.69c.2 6 .52 11.14.5 16.26 0 6.12-.8 12.1 2.4 18 1.24 2.36-.66 6.4-1.16 9.95z" fill="#fff"/><path d="m212.62 292.78c5.29-1.72 8.75-1.31 9.25 4 .93 10 4.8 18 14.32 22.5-15.79 15.41-19.54 16.16-31.67 1 3.27-3.72 8-6.91 9.22-11.11 1.34-4.69-.55-10.26-1.12-16.39z" fill="#fdf1dd"/><path d="m239.14 338.83c.24 5.79.47 11.57.76 18.94l-28.48.34c-.26-5.2-.46-9.27-.72-14.44 9.52-.32 19.6 2.53 26.67-7.29z" fill="#fcead6"/><path d="m266.05 181.37c-2.17 1.59-2.41 1.92-2.69 1.95-15.06 1.72-20.55-.53-18-19.29a68.61 68.61 0 0 1 3.83-15c2.24-5.85 4.32-6.32 13-4.19-5.06 5.8-10.93 11.18-9.11 19.62 1.58 7.15 3.01 14.47 12.97 16.91z" fill="#fff"/><path d="m186 175.57c-3.46.2-6.44.42-9.42.52-4.26.15-6.57-2.51-7.19-6.19-1.84-11 1.73-20.82 8.2-29.25 3.63-4.73 7.8-1.87 11.15 1.95-14.8 11.02-15.38 17.71-2.74 32.97z" fill="#fff"/><path d="m113.33 206.47c-.17-.92-.68-2-.49-2.87.82-4 1.83-8 2.87-12.39l9.14 1.63c3.38 11.64-.15 15.77-11.52 13.63z" fill="#e14a0f"/><path d="m92.93 170.23c8.88 5.56 10.43 10 6 14.51a8.2 8.2 0 0 1 -6.19 2c-1.1-.16-2.63-3.28-2.49-4.93.29-3.55 1.56-7.06 2.68-11.58z" fill="#e14a0f"/><path d="m227.76 252.51c-6.55-.28-13.11-.38-19.63-.94a9.45 9.45 0 0 1 -5.48-2.58c-10.27-10.48-8.74-26.93 3.52-34.29 8.41-5.06 17.81-6.33 26.93-2 11.13 5.33 15.68 25.35 8.5 35.57-3.43 4.92-8.4 5.73-13.84 4.24zm-10.92-13.9c8.35.47 12.51-1.72 12.62-6.39.12-4.85-3.8-8.24-9.73-8.4-6.36-.18-10.31 3.18-10.26 8.87.04 5.31 3.53 6.11 7.37 5.92z"/><path d="m218.65 195.6-11.41 8.21-5.53-8.22c2.41-2.88 4.33-5.32 6.41-7.62 10-11 23.74-3.69 27.6 8 .57 1.73-.64 4.78-2.05 6.25-2.25 2.36-5.7 3.15-8.49.91-2.37-1.9-4.07-4.63-6.53-7.53z"/><path d="m123.77 88.61c1.82-9.61 6.67-14.61 14.07-17.43 8-3 15.2-1.09 21.45 4.15 2.84 2.38 3.45 5.88 1.25 9.47s-4.94 3.08-8.19 2.17c-9.8-2.77-10.44-2.84-15.53 4.62-2.32 3.39-5.06 5.73-8.34 3.92-2.48-1.37-3.62-5.19-4.71-6.9z"/><path d="m216.84 238.61c-3.8.19-7.33-.64-7.37-5.92-.05-5.69 3.9-9.05 10.26-8.87 5.93.16 9.85 3.55 9.73 8.4-.11 4.67-4.27 6.86-12.62 6.39z" fill="#f4bacb"/><path d="m401.48 258.21 14.58-22.02" fill="#fdf2e5" stroke="#fdf2e5" stroke-linecap="round" stroke-miterlimit="10" stroke-width="4"/><path d="m410.25 264.02 14.58-22.03" fill="#fdf2e5" stroke="#fdf2e5" stroke-linecap="round" stroke-miterlimit="10" stroke-width="4"/></svg>