<svg viewBox="0 0 76.02 61.04" xmlns="http://www.w3.org/2000/svg"><path d="m39.42 60.8c-1.23.45-1.54.29-1.9-.72-.58-1.62-.07-3.11.51-4.58a11.81 11.81 0 0 1 3.12-4.5 8 8 0 0 0 -3.28-2.22 34.76 34.76 0 0 0 -3.65-.91 1.77 1.77 0 0 0 -1.59.6c-1.13 1-1.59.95-2.27-.45a7 7 0 0 0 -3.15-3.37 10.39 10.39 0 0 0 -5.72-1.06 4 4 0 0 0 -3.26 2l-1.33 2.41c-1.11-.1-1.2-.21-1.35-1.3a7.24 7.24 0 0 0 -5.32-6.41c-3.88-1.13-8.17.87-8.84 5.53 0 .23-.06.47-.09.7s-.1.72-.5.63-.53-.37-.79-.58c0 0 0-.08 0-.12.09-1.46.11-3 1.24-4.11.13-.13.17-.35.3-.48.6-.61 1.12-1.44 1.86-1.75a11.49 11.49 0 0 1 6.18-1.11 8.85 8.85 0 0 1 5.65 3.53 26.11 26.11 0 0 1 1.56 2.32c.09 0 .18-.06.22-.11 1.45-1.93 3.55-2.23 5.7-2.17a10.72 10.72 0 0 1 6.7 2.2 29.61 29.61 0 0 1 2.33 2.4c0-.07.25-.29.2-.39-.57-1.24.07-2.27.57-3.31a14 14 0 0 1 3.89-5.09 20.7 20.7 0 0 0 -2.1 0 3.15 3.15 0 0 1 -2.8-1.21 13.53 13.53 0 0 1 -1.15-1.47c-.51-.75-.52-.74-1.3-.42a41.66 41.66 0 0 1 -8.57 2.92 13.1 13.1 0 0 1 -6.28-.44 2 2 0 0 1 -1.08-.76 16.25 16.25 0 0 1 -2-5.37 21.21 21.21 0 0 1 .57-7.93 70.78 70.78 0 0 1 4.82-12 28.28 28.28 0 0 1 5.73-7.7c2.62-2.65 5.86-3.53 9.37-3.87.7-.06 1.38-.07 2.12-.13a7.05 7.05 0 0 1 3.86.85c2.57 1.37 5.13 2.74 7.63 4.22a27.22 27.22 0 0 1 3.18 2.42c.75.62 1.48 1.28 2.18 2a17.3 17.3 0 0 1 3.8 5.18c.51 1.14 1 2.28 1.48 3.44a6.23 6.23 0 0 1 -.95 6.34c-.64.84-1.85 1.26-2.81 1.87a6.75 6.75 0 0 1 -.76.37c.08.75.16 1.48.22 2.22a3.59 3.59 0 0 1 -1.76 3.48c-.74.5-1.46 1-2.29 1.61a5 5 0 0 0 .75.3 5.06 5.06 0 0 1 3.16 2.1 12.63 12.63 0 0 1 1.41 2 1.45 1.45 0 0 0 1.9.92 10.41 10.41 0 0 1 .94-6.07 16.82 16.82 0 0 1 4-4.93 10.77 10.77 0 0 1 5.95-2.16c-.56-4 .53-7.3 4.37-9.28 2.08-1.08 4.85-1.39 6-.59 0 .53-.26.69-.84.65a8 8 0 0 0 -5.77 2 7.1 7.1 0 0 0 -2.12 7.59 2.6 2.6 0 0 1 .16.44c.07.48-.28.85-.68.63-1.39-.75-2.67-.14-3.83.4a11.68 11.68 0 0 0 -6.52 7.74c-.35 1.22 0 2.63 0 4a1.72 1.72 0 0 1 -.15 1c-.1.13-.59.07-.85 0a2.36 2.36 0 0 0 -1.87.12 7 7 0 0 0 -3.35 2.81 9.7 9.7 0 0 0 -2 5.19 8.46 8.46 0 0 0 .14 1.5c.09.65-.1.89-.75.84s-1.33-.14-2-.21a4.68 4.68 0 0 0 -4.14 1.79 10.66 10.66 0 0 0 -2.43 4.99 6.61 6.61 0 0 0 .13 2 7.13 7.13 0 0 0 .29 1.03zm-9.63-48c.9 1 1.76 1.88 2.63 2.79a10.67 10.67 0 0 0 6.11 3.28 28.63 28.63 0 0 1 6.56 1.81 3.43 3.43 0 0 1 2 1.85c.52 1.31 1.06 2.6 1.62 3.94 0 0 .27 0 .29-.08a1.16 1.16 0 0 1 1.65-.79.81.81 0 0 0 .45-.07c2-.76 3.45-2 3.69-4.28a5.68 5.68 0 0 0 -.41-3.33c-.24-.45-.42-.93-.62-1.4a17.66 17.66 0 0 0 -5-6.86 14.2 14.2 0 0 1 -1.21-1.12 18.2 18.2 0 0 0 -4.6-3.44l-5.49-3a6.17 6.17 0 0 0 -2.88-.93 22.17 22.17 0 0 0 -7.4 1.26 7.88 7.88 0 0 0 -2.28 1.18 22.79 22.79 0 0 0 -6.26 7.39 102.17 102.17 0 0 0 -4.31 9.68 22 22 0 0 0 -1.68 8.61 14.59 14.59 0 0 0 1.88 6.85 2 2 0 0 0 1 .9 8.22 8.22 0 0 0 2.3.39 15.33 15.33 0 0 0 5.86-1.11c2.31-.89 4.63-1.72 7-2.59a5.83 5.83 0 0 0 .53-.29c-.43-.09-.64-.16-.87-.18a8.35 8.35 0 0 1 -4.35-1.75 3.61 3.61 0 0 1 -1.41-4.14 10.27 10.27 0 0 1 1.78-3.16c.45-.55.9-1.09 1.34-1.65a6.13 6.13 0 0 0 1.16-5.87c-.34-1.11-.66-2.24-1-3.46zm1.63 21.93 1.47 1.8a2.28 2.28 0 0 0 2.3.85 21.88 21.88 0 0 0 3.33-.7c1.73-.6 3.4-1.39 5.11-2.07a22.31 22.31 0 0 0 5.37-3.26 2.12 2.12 0 0 0 .75-1 4.9 4.9 0 0 0 0-2.71c-.75 0-1.41 0-2.06-.05a.68.68 0 0 1 -.71-.77 7.75 7.75 0 0 0 -1.44-4 3.84 3.84 0 0 0 -2.92-1.66c.13.52.24.85.29 1.2a3.61 3.61 0 0 1 -1.94 4.17c-1.77 1.08-3.7-.13-4.52-1.71-.91-1.75-1.12-3.5.3-5.22a12.58 12.58 0 0 1 -6.28-4.09 10.94 10.94 0 0 1 .31 4.88 3.28 3.28 0 0 0 .41.11 3.54 3.54 0 0 1 3.59 2.81 5.25 5.25 0 0 1 -.3 4.43c-.2.31-.54.71-.84.74a4.92 4.92 0 0 1 -3.79-.81 6.56 6.56 0 0 1 -1.94-2.79 4.89 4.89 0 0 0 -1.47 2.12c-.74 1.72-.34 2.95 1.26 4.05a7.59 7.59 0 0 0 4 1.29c.43 0 .94-.14 1.29.28a2.32 2.32 0 0 1 -1.57 2.06zm20.49 5.19c-.86-2.53-2.81-4.46-4.56-4.49-.35 2.39-2.19 2.57-4.11 2.5-.39 1.25-.92 2.14-2.33 2.26a3.61 3.61 0 0 1 -3.09-1.19 11.67 11.67 0 0 0 -4 5.32 1.92 1.92 0 0 0 .32 0c3.23-.66 5.34.72 6 3.91a1 1 0 0 0 .33.56c.56.44 1.14.85 1.72 1.24a.89.89 0 0 0 .55.11c1.23-.16 2.46-.35 3.73-.53a15.94 15.94 0 0 1 .35-2.5 2.33 2.33 0 0 0 -.28-2.06 3.49 3.49 0 0 1 1.9-5.18 4.91 4.91 0 0 1 3.47 0zm-18.57-15.37a2.87 2.87 0 0 0 -1.6-2.72 1.57 1.57 0 0 0 -2.14.58c-.67 1.06-.49 2.22.52 3.5a4.42 4.42 0 0 1 3.22-1.36zm8.08-1.55a12.08 12.08 0 0 0 -.56-1.46 2.62 2.62 0 0 0 -2.18-1.38 1 1 0 0 0 -1.16.74 4.31 4.31 0 0 0 .26 3 4.61 4.61 0 0 1 3.64-.9zm-3 24.59a2.84 2.84 0 0 0 -.25-.72 4.8 4.8 0 0 0 -2.46-1.68.53.53 0 0 0 -.35 0 12.25 12.25 0 0 0 -1.49.86c-.11.08-.07.38-.09.54zm12.24-6.92c-2.48-.23-3.72 1.43-2.77 3.52zm-11.3-3a3.44 3.44 0 0 0 .25.75 1.25 1.25 0 0 0 1.17.65c.56 0 .71-.45.82-.86s.15-.94.24-1.55zm3.59-1.57c.86.51 1.54.88 2.26.43.48-.31.53-.87.34-1.54z"/><path d="m29.79 12.75-1.94.48c.36 1.22.68 2.35 1 3.46a6.13 6.13 0 0 1 -1.16 5.87c-.44.56-.89 1.1-1.34 1.65a10.27 10.27 0 0 0 -1.78 3.16 3.61 3.61 0 0 0 1.43 4.14 8.35 8.35 0 0 0 4.29 1.78c.23 0 .44.09.87.18a5.83 5.83 0 0 1 -.53.29c-2.32.87-4.64 1.7-6.95 2.59a15.33 15.33 0 0 1 -5.86 1.11 8.22 8.22 0 0 1 -2.3-.39 2 2 0 0 1 -1-.9 14.59 14.59 0 0 1 -1.88-6.85 22 22 0 0 1 1.68-8.61 102.17 102.17 0 0 1 4.32-9.71 22.79 22.79 0 0 1 6.26-7.39 7.88 7.88 0 0 1 2.27-1.21 22.17 22.17 0 0 1 7.4-1.26 6.17 6.17 0 0 1 2.88.93l5.49 3a18.2 18.2 0 0 1 4.6 3.44 14.2 14.2 0 0 0 1.21 1.12 17.66 17.66 0 0 1 5 6.86c.2.47.38 1 .62 1.4a5.68 5.68 0 0 1 .41 3.33c-.24 2.3-1.69 3.52-3.69 4.28a.81.81 0 0 1 -.45.07 1.16 1.16 0 0 0 -1.65.79c0 .08-.28.08-.29.08-.56-1.34-1.1-2.63-1.62-3.94a3.43 3.43 0 0 0 -2-1.85 28.63 28.63 0 0 0 -6.56-1.81 10.67 10.67 0 0 1 -6.11-3.28c-.86-.93-1.72-1.85-2.62-2.81zm11.29-4.61a3.51 3.51 0 0 0 -1.54 2.86 5.07 5.07 0 0 0 2.07 5.25 1.19 1.19 0 0 0 1.76-.14 4.49 4.49 0 0 0 1.12-4.32 5.5 5.5 0 0 0 -3.41-3.65zm-18.94 26.79c1.24-.3 1.43-.63 1-1.86a1.89 1.89 0 0 0 -.13-.33 7.25 7.25 0 0 0 -4.15-3.42 4.12 4.12 0 0 0 -3 .29c-.68.34-.72.6-.46 1.31a5.86 5.86 0 0 0 3.6 3.51c1 .41 2 1 3.14.5z" fill="#e2c952"/><path d="m31.42 34.68a2.32 2.32 0 0 0 1.58-2.06c-.35-.42-.86-.25-1.29-.28a7.59 7.59 0 0 1 -4-1.29c-1.6-1.1-2-2.33-1.26-4.05a4.89 4.89 0 0 1 1.43-2.17 6.56 6.56 0 0 0 1.94 2.79 4.92 4.92 0 0 0 3.79.81c.3 0 .64-.43.84-.74a5.25 5.25 0 0 0 .3-4.43 3.54 3.54 0 0 0 -3.59-2.81 3.28 3.28 0 0 1 -.41-.11 10.94 10.94 0 0 0 -.31-4.88 12.58 12.58 0 0 0 6.28 4.09c-1.42 1.72-1.21 3.47-.3 5.22.82 1.58 2.75 2.79 4.52 1.71a3.61 3.61 0 0 0 1.94-4.17c0-.35-.16-.68-.29-1.2a3.84 3.84 0 0 1 2.92 1.66 7.75 7.75 0 0 1 1.44 4 .68.68 0 0 0 .71.77c.65 0 1.31 0 2.06.05a4.9 4.9 0 0 1 0 2.71 2.12 2.12 0 0 1 -.75 1 22.31 22.31 0 0 1 -5.32 3.21c-1.71.68-3.38 1.47-5.11 2.07a21.88 21.88 0 0 1 -3.33.7 2.28 2.28 0 0 1 -2.3-.85zm7.24-4.74a4.22 4.22 0 0 0 -2.79 2.41 1.19 1.19 0 0 0 .27 1.49c.37.33.7.74 1.32.49 1.19-.47 2.4-.9 3.59-1.35a.77.77 0 0 0 .36-.27 1.73 1.73 0 0 0 -.92-2.59 11 11 0 0 0 -1.83-.18zm-1.66-1.19a3.91 3.91 0 0 0 1.23.29c.26 0 .52-.37.7-.63 0-.05-.27-.43-.47-.54a3.81 3.81 0 0 0 -1-.3 1.62 1.62 0 0 0 -2 1.39c-.07.37-.06.78.37.84a1.36 1.36 0 0 0 .91-.31c.07-.14.1-.49.26-.74z" fill="#fbe5ce"/><path d="m51.91 39.87a4.91 4.91 0 0 0 -3.44 0 3.49 3.49 0 0 0 -1.9 5.18 2.33 2.33 0 0 1 .28 2.06 15.94 15.94 0 0 0 -.35 2.5c-1.27.18-2.5.37-3.73.53a.89.89 0 0 1 -.55-.11c-.58-.39-1.16-.8-1.72-1.24a1 1 0 0 1 -.33-.56c-.68-3.19-2.79-4.57-6-3.91a1.92 1.92 0 0 1 -.32 0 11.67 11.67 0 0 1 4-5.32 3.61 3.61 0 0 0 3.09 1.16c1.41-.12 1.94-1 2.33-2.26 1.92 0 3.78-.11 4.11-2.55 1.72.06 3.67 1.99 4.53 4.52z" fill="#b3dbe7"/><path d="m33.34 24.55a4.42 4.42 0 0 0 -3.22 1.36c-1-1.28-1.19-2.44-.52-3.5a1.57 1.57 0 0 1 2.14-.58 2.87 2.87 0 0 1 1.6 2.72z" fill="#fff"/><path d="m41.42 23a4.61 4.61 0 0 0 -3.64.89 4.31 4.31 0 0 1 -.26-3 1 1 0 0 1 1.16-.74 2.62 2.62 0 0 1 2.18 1.38 12.08 12.08 0 0 1 .56 1.47z" fill="#fff"/><path d="m38.4 47.6-4.64-1c0-.16 0-.46.09-.54a12.25 12.25 0 0 1 1.49-.86.53.53 0 0 1 .35 0 4.8 4.8 0 0 1 2.46 1.68 2.84 2.84 0 0 1 .25.72z" fill="#fbe5ce"/><path d="m50.64 40.68-2.77 3.52c-.95-2.09.29-3.75 2.77-3.52z" fill="#fbe5ce"/><path d="m39.34 37.7 2.48-1c-.09.61-.13 1.09-.24 1.55s-.26.84-.82.86a1.25 1.25 0 0 1 -1.17-.65 3.44 3.44 0 0 1 -.25-.76z" fill="#fff"/><path d="m42.93 36.13 2.6-1.13c.19.67.14 1.23-.34 1.54-.72.46-1.4.1-2.26-.41z" fill="#fff"/><path d="m41.08 8.14a5.5 5.5 0 0 1 3.41 3.69 4.49 4.49 0 0 1 -1.12 4.32 1.19 1.19 0 0 1 -1.76.14 5.07 5.07 0 0 1 -2.07-5.29 3.51 3.51 0 0 1 1.54-2.86zm1.47 7a3.48 3.48 0 0 0 -1.3-5.28 4 4 0 0 0 1.3 5.3z"/><path d="m22.14 34.93c-1.15.5-2.14-.09-3.14-.5a5.86 5.86 0 0 1 -3.54-3.51c-.26-.71-.22-1 .46-1.31a4.12 4.12 0 0 1 3-.29 7.25 7.25 0 0 1 4.08 3.42 1.89 1.89 0 0 1 .13.33c.44 1.23.25 1.56-.99 1.86zm-.25-.85a6.19 6.19 0 0 0 -.46-1.27 7 7 0 0 0 -2.8-2.44 1.61 1.61 0 0 0 -1.64.08 5.17 5.17 0 0 0 4.9 3.63z"/><path d="m38.66 29.94a11 11 0 0 1 1.83.18 1.73 1.73 0 0 1 .92 2.59.77.77 0 0 1 -.36.27c-1.19.45-2.4.88-3.59 1.35-.62.25-1-.16-1.32-.49a1.19 1.19 0 0 1 -.27-1.49 4.22 4.22 0 0 1 2.79-2.41zm1.42 2.28c.22-.64 0-1-.52-1.18a2 2 0 0 0 -2.19 2.13z"/><path d="m37 28.75c-.11.27-.14.6-.32.74a1.36 1.36 0 0 1 -.91.31c-.43-.06-.44-.47-.37-.84a1.62 1.62 0 0 1 2-1.39 3.81 3.81 0 0 1 1 .3c.2.11.51.49.47.54-.18.26-.44.59-.7.63a3.91 3.91 0 0 1 -1.17-.29z"/><path d="m42.55 15.16a4 4 0 0 1 -1.3-5.28 3.48 3.48 0 0 1 1.3 5.28z" fill="#22ac38"/><path d="m21.89 34.08a5.17 5.17 0 0 1 -4.89-3.63 1.61 1.61 0 0 1 1.64-.08 7 7 0 0 1 2.8 2.44 6.19 6.19 0 0 1 .45 1.27z" fill="#22ac38"/><path d="m40.08 32.22-2.71 1a2 2 0 0 1 2.19-2.22c.54.18.74.58.52 1.22z" fill="#eca9b1"/></svg>