<svg xmlns="http://www.w3.org/2000/svg" viewBox="0 0 213.6 411.16"><defs><style>.cls-1{fill:#e51413;}.cls-2{fill:#fce8e0;}.cls-3{fill:#b28146;}.cls-4{fill:#946134;}.cls-5{fill:#fff000;}.cls-6{fill:#009fe8;}.cls-7{fill:#fff;}.cls-8{fill:#d60050;}.cls-9{fill:#ffe100;}.cls-10{fill:#e9608f;}</style></defs><title>img06</title><g id="レイヤー_2" data-name="レイヤー 2"><g id="レイヤー_2-2" data-name="レイヤー 2"><path d="M144.27,290.18c.66,3,1.27,5.66,1.84,8.35.3,1.43.56,2.86.77,4.3a5.89,5.89,0,0,1-3.83,6.78,69.7,69.7,0,0,1-8.16,2.72,47.89,47.89,0,0,1-4.85.87c-.35,8.17-.61,16.22-1,24.26-.54,9.93-1.15,19.84-1.9,29.75a9.89,9.89,0,0,0,1.59,6.75c5.13,7.66,5.46,16.23,4.28,24.86-.47,3.51-3.45,5.78-7.11,6.42a71.87,71.87,0,0,1-10.28.84c-2.1.06-3.94.12-5.85,1.35a15.09,15.09,0,0,1-5.86,1.79c-5.18.77-10.38,1.48-15.6,1.88-4.87.38-7.25-1.07-8.61-5.63a89.13,89.13,0,0,1-2.13-11.67c-.29-1.81-.19-3.69-.59-5.47-1.32-5.83-.22-8.22,5.17-11.05,2.54-1.33,5-2.88,7.5-4.21a3.09,3.09,0,0,0,1.87-3.2c-.51-12.57-1.06-25.13-1.41-37.7-.19-6.86,0-13.74,0-20.78a27.09,27.09,0,0,0-3-.67,72.92,72.92,0,0,1-16.76-4.29c-1.82-.66-3.76-1.23-3.87-3.59,0-.13,0-.33-.1-.37-4.51-2.47-2.78-6.61-3-10.23,0-.27-.07-.53-.13-1-1-.55-2.27-1.11-3.39-1.81-4.86-3.08-6.61-8.79-4.11-13.58.54-1,1.26-2.33,2.25-2.74,2.61-1.11,3.11-3.17,3.32-5.45.72-7.51,1.77-15,2-22.54.43-14.16.33-28.33.6-42.5,0-2.3,1.21-4.59,1.24-6.89s-.87-4.33-1.2-6.51a5.88,5.88,0,0,1,.25-2.76c3.12-8.73,8.38-15.53,18.33-17.75a25.52,25.52,0,0,1,10.25-.48c2.59.46,5.44-.4,8.5-.7v-7.56c-9.56-3.42-17.67-8.93-23.54-17.08a12,12,0,0,0-1.46.44c-1.82.89-3.7,2.57-5.72,1.24-2.51-1.65-4.61-3.88-5-7a53,53,0,0,1,0-5.43c-3.45-2.49-5.09-6.54-5.14-11.28,0-5.27,1.94-8.57,6.72-10.51-.82-1.23-1.58-2.44-2.42-3.6a48.09,48.09,0,0,1-7.73-16.13C55.2,84,56.32,77.72,58.6,71.51c1.18-3.2,1.18-3.23-1.6-5.23-2-1.42-4-2.81-6.2-4.34-.84,2.31-1.59,4.48-2.43,6.62-3,7.74-14.95,11.76-23,5.79-2.63-1.93-4.71-2.58-7.72-1a12,12,0,0,1-8.48.79c-4.37-1-6.79-4-8.09-7.78C-.81,61-.41,56,4.16,51.8c-7.67-9.62,1.33-24.52,16.29-24.33C24,14.38,39.31,9.36,47,20.82c4.09-4.4,8.56-8.57,15.27-5.61S69.63,23.93,67.82,30c8.59,5.37,9.71,17.78-3.52,22.15l6.23,6.28c13.29-4.59,24.73-1.42,34.58,7.71,8.09-7.62,17.35-12.56,29.1-11.31,2.53.27,5,1.5,7.36,2.54,4.27,1.9,4.85,1.83,7.36-1.92.67-1,1.25-2.06,1.93-3.06s1.42-1.94,2.09-2.85c-2.77-1.81-5.7-3.31-8.11-5.38a12.41,12.41,0,0,1-1.33-17.82A9.35,9.35,0,0,0,145.63,21c1-6.52,3.39-12.63,8.17-17.41,2.92-2.93,7-4.5,11.34-3,3.59,1.24,7,3,10.9,4.71a24.42,24.42,0,0,1,11-4.64c6.45-1.08,14.55,3.18,16.41,9,.62,1.95.33,4.2.33,6.32,0,1.44-.25,2.89-.39,4.38,1.64,1.36,3.37,2.64,4.91,4.11,3.84,3.68,5.29,8.34,5.27,13.38,0,4.34-2.32,7.58-6.31,9.56-1.94,1-4.08,1.56-6.34,2.41.08.92.14,1.8.23,2.68.73,7.44-5.59,14.41-13.46,14.79a6.69,6.69,0,0,1-2.45-.24A84.81,84.81,0,0,1,174.49,63c-2.36-1.2-4.19-3.34-6.69-5.43l-10.11,12c9.66,15.05,7.72,29-4.09,42.13,5.12,6.75,1.44,12.6-2.35,18.69,1.09,2.46,2.42,5.07-.33,7.75-3.54,3.43-7.44,3.55-11.88,1.53-5,7.75-10.7,14.78-19,19.45v8.07c1.5-.07,2.83-.18,4.15-.17,1,0,2.22-.17,2.82.32,2.91,2.36,6.69,2.17,10,3.39,7.09,2.63,13.56,6,17.7,12.43,3.25,5,3.72,10.71,4.17,16.38.05.58-.68,1.31-1.2,1.84-1.14,1.13-2.37,2.18-3.73,3.42a38.72,38.72,0,0,1,.75,4.56c.28,5.41.82,10.84.56,16.23-.47,9.65-1.61,19.27-2.13,28.92a114.31,114.31,0,0,0,.35,15,21.13,21.13,0,0,0,2.27,8.55c3.2,6.05-.21,8.92-6,10.95A42.79,42.79,0,0,1,144.27,290.18Zm-3,14.82c-.44-2.07-.77-3.61-1.1-5.15-1.24-5.83-3-11.61-3.63-17.5-1.8-16.79-.81-33.59.35-50.39.71-10.12,2.58-20.29-.21-30.43a52.93,52.93,0,0,1-1-6.42c3.49-.5,3.95-.39,5.51,1.83.85,1.22,1.44,2.57,3.34,2.53,2.74-.05,5.48,0,8.17,0,1.21-12.22-7.81-22.15-23.76-25.2-2.52,5-6.93,8.44-11.29,11.91a7.74,7.74,0,0,1-8.13,1.17,25.74,25.74,0,0,1-11.19-7.94c-1.74-2.18-3.11-4.62-4.63-6.91-8.88-.26-14.73,1.58-19.38,6.35s-6.46,10-4.68,16.49l5.64,2.39c1.19-1.28,2.2-2.53,3.39-3.6.92-.83,2.22-1.56,3.33-.56a7,7,0,0,1,1.62,3c.16.53-.33,1.25-.55,1.87a34.32,34.32,0,0,0-1.61,12.15c.13,5.16.2,10.33.24,15.5.08,9-.06,18.08-2.2,26.86-3,12.49-5,25.25-10.1,37.24-1.42,3.35-1.6,6.67.48,10,3.24,1,6.56,2.63,10,3.15,9.54,1.42,18.94,3.95,28.74,3.48a57.8,57.8,0,0,1,7.86.55C124.79,308.15,132.76,306.76,141.3,305ZM107.21,72.51c-1.6,1.62-2.83,2.69-3.85,3.93-3.83,4.67-7.56,9.43-11.4,14.1C87.43,96,82.79,101.46,78.26,107c-1.48,1.8-3.51,3.28-3.51,6,0,9.35,3.07,17.92,7,26.27a13.11,13.11,0,0,0,2.06,2.94c5.58,6.37,12.75,10.47,20.92,13a13.39,13.39,0,0,0,10-.61c6.63-3,11.34-7.91,15.23-13.59a56.92,56.92,0,0,0,9.52-22.63,51.5,51.5,0,0,1,1.48-5.11C131.39,98.8,118.71,86.39,107.21,72.51ZM195,26.63c-1.33-1.95-1.7-3.51.3-5.34a7.07,7.07,0,0,0,1.8-4.25c.6-5.85-1.95-8.66-8-10.23-4.24-1.1-6.62-.1-9.17,3.46a16.83,16.83,0,0,1-1.9,2.58c-2,1.9-5,1.77-6.3-.58-1.72-3.22-4.89-4.16-7.93-5.27-4-1.45-6.14-.68-8.16,3-1.46,2.68-2.31,5.66-3.62,8.42a5,5,0,0,0,.11,4.51,19.78,19.78,0,0,1,.86,4.65c-6.21,2.81-7.68,5.67-5.79,10.48,2,5.12,7.55,7,14.34,5,3.36,2.39,6.72,4.67,9.93,7.11.92.7,1.36,1.92,2.14,2.81,1.38,1.6,2.57,3.62,4.35,4.59a41.63,41.63,0,0,0,8.88,3.22c2.94.8,5.06-.2,6.73-2.67a5.81,5.81,0,0,0-.12-7.07c-1.22-1.77-2.47-3.51-1.9-5.78a7.73,7.73,0,0,1,5.87-1.49,17,17,0,0,0,5.3-.41A4.91,4.91,0,0,0,206.91,39a13.22,13.22,0,0,0-3.17-10c-2-2.43-4.79-2.29-7.59-2.15A7.81,7.81,0,0,1,195,26.63ZM43.05,56.2c2.45-2.42,4.17-4,5.79-5.75,1.3-1.36,2.29-3.08,3.8-4.16,1.07-.76,3.33-1.45,4.08-.92,2.7,1.91,4.9.47,7.3-.23,3.66-1.06,4-3.44,3.35-6.65-.32-1.69-1.53-2.63-3.34-1.81-2.31,1-4,.43-5.64-1.81.54-1.33,1.18-2.87,1.8-4.43A42.07,42.07,0,0,0,61.9,26c.43-1.57.5-3.25-1.11-4.34a4.93,4.93,0,0,0-5.49-.14,12,12,0,0,0-3.06,3.13c-.73.95-1.08,2.15-1.73,3.16-1.34,2.08-2.31,2.26-4.89,1.6-1.84-.47-2.54-1.67-3.38-3.15-1-1.79-2.23-4-4-4.79a7.89,7.89,0,0,0-10.69,5.78,44,44,0,0,0-.13,7.87c0,1.15,0,2.32-1.28,2.58a5.52,5.52,0,0,1-3-.5c-.72-.3-1.15-1.23-1.86-1.54-1.07-.46-2.37-1.06-3.39-.84a13.7,13.7,0,0,0-7.56,3.84c-3.3,3.55-3.48,5.92-.66,9.86,1.21,1.69,2.34,3.43,3.63,5.34-1.53,1-2.68,1.75-3.73,2.58a7.45,7.45,0,0,0-3.22,6.43c.15,4.93,2.74,7.2,7.71,5.84a27.81,27.81,0,0,0,6.18-3.12c3.27-1.88,4.17-1.8,5.67,1.52A6.87,6.87,0,0,0,29.83,71c3.52,1.3,7.25,1.62,10.16-1S45.14,64,43.76,59.7A25.28,25.28,0,0,1,43.05,56.2Zm68.46,12.66,34,39.84c4.13-2.08,5.74-3.61,8-7.61C149.42,95,122.28,67.17,117.67,64.3c-1.19.82-2.45,1.64-3.66,2.52C113.26,67.36,112.57,68,111.51,68.86ZM65.06,286.05a186.45,186.45,0,0,0,11.11-82.23l-7.12-2.18c0,1.76,0,3.07,0,4.38.07,5.42.31,10.85.19,16.27-.31,14.13.14,28.3-1.84,42.37-.66,4.67-.67,9.55-5.81,12.37-1.74,1-1.92,2.83-1.44,4.62C60.75,283.89,62.35,285.23,65.06,286.05ZM143,284.64c2.15-.41,3.51-.59,4.84-.93,3.63-.91,4.11-2.36,2-5.33a8.34,8.34,0,0,1-1.55-3.09c-.38-1.9-.28-3.89-.6-5.8a53.48,53.48,0,0,1-.59-15.82,273.06,273.06,0,0,0,2.68-37.23c0-3.79-.76-7.57-1.17-11.36H143.8c0,6.82.33,13.43-.06,20-1.06,17.84-2.9,35.65-1.46,53.55C142.43,280.57,142.72,282.5,143,284.64ZM156,94c3.14-9.25-1.07-21.84-9.38-27.18a59.19,59.19,0,0,0-11.37-5.53c-3.55-1.31-7.4-1.77-11.24.56ZM71,106.07c11-11.89,20-24.71,30.45-36.9l-6-4.34C84.24,75.55,77.36,89,66.34,99.64ZM63.57,92.42c2.85-1.08,6.66-5.63,12.91-14.52,3.71-5.3,7.87-10.32,12.38-16.18a74.15,74.15,0,0,0-8.28.05c-5.39.66-10.47,2.52-13.35,7.08C62.66,76.1,60.66,84,63.57,92.42Zm33.48,270c4.29-2.31,6.63,1.34,10,2.12.42-12,.48-23.68.21-35.12L96,332.08C96.34,341.82,96.68,351.72,97.05,362.45Zm26.63-32.53H113.26V359.4l8.44,1.54C122.36,350.6,123,340.36,123.68,329.92Zm-16.25,42.46-8.38-3.71a22.14,22.14,0,0,0-1.92,3.45,9.92,9.92,0,0,1-4.73,5.71c-2.62,1.46-5.22,2.95-7.74,4.54s-2.6,1.73-1.55,5.16c6.61,1.3,16.08.33,21.27-2.46a4.69,4.69,0,0,0,2.09-3.06C107,378.64,107.17,375.22,107.43,372.38ZM100.63,173c2.46,4.68,6.62,7.39,11.17,9.65a2.41,2.41,0,0,0,2,0c4.22-2.47,8.45-5,10.37-10.27-2,.13-3.47.18-5,.32-3.71.37-4.7-.55-4.56-4.13.1-2.33,0-4.67,0-6.94l-7.75.48c-.08,1.45-.13,2.75-.22,4C106.22,172.84,107.52,171.42,100.63,173ZM83,394.35a76.91,76.91,0,0,0,1.33,7.6c.85,3,2.29,3.84,5.51,3.37,5.31-.77,10.6-1.64,16-2.48,1.14-4.15,2.1-8.16,1.17-12.68C99.53,394.32,91.77,395.39,83,394.35ZM120,368.2c-1.79-.07-3.57-2.71-6.49-1.38-.72,5.51-1.52,11.06-.35,16.68,3.06.44,5.91.95,8.79,1.22,3.9.36,5.32-1.71,3.63-5.2C123.78,375.85,122,372.21,120,368.2Zm-12.81-46v-9c-4-.55-7.92-1.09-11.59-.59v11.1C100.23,326.21,103.78,324.81,107.16,322.24Zm6.08,78.25c3.87.29,7.36.47,10.92-.38,1.59-.38,2.53-1.13,2.76-2.51.37-2.28.51-4.6.72-6.58l-13.91-.66C113.57,393.77,113.41,397,113.24,400.49Zm11.1-86.66-12.57-.71c.41,3.35.78,6.3,1.16,9.32,3.66,1.06,7.2,1.83,10.9.05C124,319.71,124.15,317,124.34,313.83Zm36-263.55c-4.88,2.93-6.44,7.9-9.81,11.78l3.8,2.85,9.67-11.6Zm-88.23,79.1c-.64-2.32-1.2-4.06-1.58-5.83s-.66-3.63-.86-5.45c-.15-1.38-.28-2.8-2-2.94s-2.26,1.33-2.64,2.58C63.53,122.79,66.07,127.22,72.16,129.38Zm-20-73.22L63,63.82l2.47-2.48-9.72-9.78Zm92.08,71.24c4.26-1.8,6.7-5.88,6-9.51a2.8,2.8,0,0,0-1.53-1.94c-1.2-.37-2,.4-2.3,1.65C145.78,120.69,145.07,123.76,144.25,127.4Zm-71.33,6.7c-1.19,1.1-2.5,1.86-2.39,2.32a3.75,3.75,0,0,0,1.89,2.5c1.45.47,2.23-.95,2.29-2.06C74.75,136.14,73.79,135.37,72.92,134.1ZM146,135.17l.14-1c-1.43-1.2-2.86-.77-4.32.79Z"/><path class="cls-1" d="M141.3,305c-8.54,1.76-16.51,3.15-24.74,2.41a57.8,57.8,0,0,0-7.86-.55c-9.8.47-19.2-2.06-28.74-3.48-3.49-.52-6.81-2.11-10-3.15-2.08-3.37-1.9-6.69-.48-10,5.08-12,7.07-24.75,10.1-37.24,2.14-8.78,2.28-17.85,2.2-26.86,0-5.17-.11-10.34-.24-15.5a34.32,34.32,0,0,1,1.61-12.15c.22-.62.71-1.34.55-1.87a7,7,0,0,0-1.62-3c-1.11-1-2.41-.27-3.33.56-1.19,1.07-2.2,2.32-3.39,3.6l-5.64-2.39c-1.78-6.46.16-11.86,4.68-16.49s10.5-6.61,19.38-6.35c1.52,2.29,2.89,4.73,4.63,6.91a25.74,25.74,0,0,0,11.19,7.94,7.74,7.74,0,0,0,8.13-1.17c4.36-3.47,8.77-6.89,11.29-11.91,15.95,3.05,25,13,23.76,25.2-2.69,0-5.43,0-8.17,0-1.9,0-2.49-1.31-3.34-2.53-1.56-2.22-2-2.33-5.51-1.83a52.93,52.93,0,0,0,1,6.42c2.79,10.14.92,20.31.21,30.43-1.16,16.8-2.15,33.6-.35,50.39.63,5.89,2.39,11.67,3.63,17.5C140.53,301.39,140.86,302.93,141.3,305ZM96.56,221.59a14.81,14.81,0,0,0-5.44,8.9,7.29,7.29,0,0,0,3.93,8c6.8,3.4,14.13,3.21,21.46,2.85a9.84,9.84,0,0,0,3.15-1c7.61-3.23,9.39-11.92,3.67-17.76-1.12-1.14-2.17-2.33-3.23-3.47,5.89-6.22,5-12.35-2.59-16.09-4.82-2.38-10.09-3.58-15.57-1.6a38.31,38.31,0,0,1-4,1.13c-7.66,1.88-10.24,10.17-4.84,15.61C94.17,219.26,95.24,220.29,96.56,221.59Zm15.07,79.35c1.44,0,3.31-1.91,3.05-3.23a2.81,2.81,0,0,0-3-2.24,3.24,3.24,0,0,0-3,2.76A2.8,2.8,0,0,0,111.63,300.94Zm-9-5.7a3.3,3.3,0,0,0-3,3.18,3.16,3.16,0,0,0,3.12,2.59,3.07,3.07,0,0,0,3-3.17A2.9,2.9,0,0,0,102.6,295.24ZM95.65,297a3,3,0,0,0-2.8-2.88,3.53,3.53,0,0,0-3.21,3,2.71,2.71,0,0,0,3.06,2.51C94.46,299.62,95.65,298.55,95.65,297Zm29.51,1a6.9,6.9,0,0,0-2.36-1.46,2.72,2.72,0,1,0-.72,5.28C123.56,301.85,125.18,300.19,125.16,298Zm-47.84-3.84c-1.23-2.77-1.75-3.48-2.77-3.11a5.63,5.63,0,0,0-3,2.16c-.34.65.43,2.45,1.21,2.85C74.63,297,75.93,295.52,77.32,294.15Zm53.59,7a3.14,3.14,0,0,0,3.07-2.62,2.43,2.43,0,0,0-2.57-2.83c-1.55.17-2.91.83-3.18,2.54A2.78,2.78,0,0,0,130.91,301.19ZM85.65,295a7.83,7.83,0,0,0-2.6-1.57,2.73,2.73,0,0,0-3,2.95c.32,1.4,1.23,2.45,2.88,2.13C84.39,298.18,86,297.73,85.65,295Z"/><path class="cls-2" d="M107.21,72.51c11.5,13.88,24.18,26.29,33.79,40.74a51.5,51.5,0,0,0-1.48,5.11A56.92,56.92,0,0,1,130,141c-3.89,5.68-8.6,10.55-15.23,13.59a13.39,13.39,0,0,1-10,.61c-8.17-2.54-15.34-6.64-20.92-13a13.11,13.11,0,0,1-2.06-2.94c-4-8.35-7-16.92-7-26.27,0-2.72,2-4.2,3.51-6C82.79,101.46,87.43,96,92,90.54c3.84-4.67,7.57-9.43,11.4-14.1C104.38,75.2,105.61,74.13,107.21,72.51ZM88.62,102.34c-3.21,2-4.6,5.08-5.19,8.61-1.32,7.88,2.17,13.09,9.64,14.24a10.11,10.11,0,0,0,11.76-8.08c1-5.64-.87-10.38-4.65-14.61.15-1.29.63-2.66.37-3.87-.21-1-1.24-2.32-2.07-2.44s-2.1.93-2.74,1.77a9.19,9.19,0,0,0-.95,3l-.92,0a10.73,10.73,0,0,0-1.24-2.17c-.64-.69-1.74-1.76-2.27-1.6a3.78,3.78,0,0,0-1.93,2.23C88.14,100.27,88.52,101.27,88.62,102.34Zm25.09.83a17.08,17.08,0,0,0-1.28,1.85c-2.38,4.67-3.44,9.46-1.33,14.52,1.06,2.55,4.35,5,6.92,4.93,2.19-.06,4.37-.4,6.56-.46a5,5,0,0,0,4-2.38A14,14,0,0,0,124,101.05c-.24-1.56.43-3.73-2.06-4.14-3-.49-2.51,2.49-3.75,4.14l-2.78-4C111.81,98.77,111.7,99.19,113.71,103.17Zm3.9,38.44-.25-.07c0-.39.06-.79.06-1.18-.08-4.66-2-6.34-6.9-6.21a9.08,9.08,0,0,1-3.63-.21c-2.45-1.05-4.2-.32-5.88,1.38-1.85,1.85-1.41,3.76-.48,5.83a10.47,10.47,0,0,1,.81,3.35c.33,3.91,3.55,5.6,6.48,6.25a7.63,7.63,0,0,0,8.42-4.24A43.37,43.37,0,0,0,117.61,141.61Zm-11-15.16c.38-.56.85-1,.93-1.43a19.76,19.76,0,0,0,.12-2.78c-1,.05-2.21-.23-3,.2a4.69,4.69,0,0,0-1.4,7.4,25.2,25.2,0,0,0,3.22,2.75C109.83,130.34,109.83,130.08,106.61,126.45Z"/><path class="cls-3" d="M195,26.63a7.81,7.81,0,0,0,1.12.17c2.8-.14,5.6-.28,7.59,2.15a13.22,13.22,0,0,1,3.17,10,4.91,4.91,0,0,1-4.12,4.45,17,17,0,0,1-5.3.41,7.73,7.73,0,0,0-5.87,1.49c-.57,2.27.68,4,1.9,5.78a5.81,5.81,0,0,1,.12,7.07c-1.67,2.47-3.79,3.47-6.73,2.67A41.63,41.63,0,0,1,178,57.6c-1.78-1-3-3-4.35-4.59-.78-.89-1.22-2.11-2.14-2.81-3.21-2.44-6.57-4.72-9.93-7.11-6.79,2-12.33.08-14.34-5-1.89-4.81-.42-7.67,5.79-10.48a19.78,19.78,0,0,0-.86-4.65,5,5,0,0,1-.11-4.51c1.31-2.76,2.16-5.74,3.62-8.42,2-3.67,4.18-4.44,8.16-3,3,1.11,6.21,2.05,7.93,5.27,1.26,2.35,4.29,2.48,6.3.58a16.83,16.83,0,0,0,1.9-2.58c2.55-3.56,4.93-4.56,9.17-3.46,6,1.57,8.56,4.38,8,10.23a7.07,7.07,0,0,1-1.8,4.25C193.33,23.12,193.7,24.68,195,26.63Z"/><path class="cls-3" d="M43.05,56.2a25.28,25.28,0,0,0,.71,3.5C45.14,64,42.94,67.28,40,70s-6.64,2.32-10.16,1a6.87,6.87,0,0,1-3.89-3.88c-1.5-3.32-2.4-3.4-5.67-1.52a27.81,27.81,0,0,1-6.18,3.12c-5,1.36-7.56-.91-7.71-5.84A7.45,7.45,0,0,1,9.6,56.43c1.05-.83,2.2-1.53,3.73-2.58C12,51.94,10.91,50.2,9.7,48.51c-2.82-3.94-2.64-6.31.66-9.86a13.7,13.7,0,0,1,7.56-3.84c1-.22,2.32.38,3.39.84.71.31,1.14,1.24,1.86,1.54a5.52,5.52,0,0,0,3,.5c1.28-.26,1.3-1.43,1.28-2.58a44,44,0,0,1,.13-7.87,7.89,7.89,0,0,1,10.69-5.78c1.75.8,3,3,4,4.79.84,1.48,1.54,2.68,3.38,3.15,2.58.66,3.55.48,4.89-1.6.65-1,1-2.21,1.73-3.16a12,12,0,0,1,3.06-3.13,4.93,4.93,0,0,1,5.49.14c1.61,1.09,1.54,2.77,1.11,4.34a42.07,42.07,0,0,1-1.71,4.45c-.62,1.56-1.26,3.1-1.8,4.43,1.66,2.24,3.33,2.86,5.64,1.81,1.81-.82,3,.12,3.34,1.81.61,3.21.31,5.59-3.35,6.65-2.4.7-4.6,2.14-7.3.23-.75-.53-3,.16-4.08.92-1.51,1.08-2.5,2.8-3.8,4.16C47.22,52.16,45.5,53.78,43.05,56.2Z"/><path class="cls-3" d="M111.51,68.86c1.06-.87,1.75-1.5,2.5-2,1.21-.88,2.47-1.7,3.66-2.52,4.61,2.87,31.75,30.73,35.89,36.79-2.27,4-3.88,5.53-8,7.61Z"/><path class="cls-2" d="M65.06,286.05c-2.71-.82-4.31-2.16-4.9-4.4-.48-1.79-.3-3.66,1.44-4.62,5.14-2.82,5.15-7.7,5.81-12.37,2-14.07,1.53-28.24,1.84-42.37.12-5.42-.12-10.85-.19-16.27,0-1.31,0-2.62,0-4.38l7.12,2.18A186.45,186.45,0,0,1,65.06,286.05Z"/><path class="cls-2" d="M143,284.64c-.26-2.14-.55-4.07-.7-6-1.44-17.9.4-35.71,1.46-53.55.39-6.57.06-13.18.06-20h4.77c.41,3.79,1.14,7.57,1.17,11.36a273.06,273.06,0,0,1-2.68,37.23,53.48,53.48,0,0,0,.59,15.82c.32,1.91.22,3.9.6,5.8a8.34,8.34,0,0,0,1.55,3.09c2.13,3,1.65,4.42-2,5.33C146.49,284.05,145.13,284.23,143,284.64Z"/><path class="cls-4" d="M156,94,124,61.84c3.84-2.33,7.69-1.87,11.24-.56a59.19,59.19,0,0,1,11.37,5.53C155,72.15,159.17,84.74,156,94Z"/><path class="cls-3" d="M71,106.07l-4.61-6.43C77.36,89,84.24,75.55,95.4,64.83l6,4.34C91,81.36,82,94.18,71,106.07Z"/><path class="cls-4" d="M63.57,92.42C60.66,84,62.66,76.1,67.23,68.85c2.88-4.56,8-6.42,13.35-7.08a74.15,74.15,0,0,1,8.28-.05C84.35,67.58,80.19,72.6,76.48,77.9,70.23,86.79,66.42,91.34,63.57,92.42Z"/><path class="cls-5" d="M97.05,362.45c-.37-10.73-.71-20.63-1-30.37l11.23-2.63c.27,11.44.21,23.11-.21,35.12C103.68,363.79,101.34,360.14,97.05,362.45Z"/><path class="cls-5" d="M123.68,329.92c-.66,10.44-1.32,20.68-2,31l-8.44-1.54V329.92Z"/><path class="cls-6" d="M107.43,372.38c-.26,2.84-.42,6.26-1,9.63a4.69,4.69,0,0,1-2.09,3.06c-5.19,2.79-14.66,3.76-21.27,2.46-1-3.43-1.09-3.49,1.55-5.16s5.12-3.08,7.74-4.54a9.92,9.92,0,0,0,4.73-5.71,22.14,22.14,0,0,1,1.92-3.45Z"/><path class="cls-2" d="M100.63,173c6.89-1.53,5.59-.11,6-6.81.09-1.3.14-2.6.22-4l7.75-.48c0,2.27.08,4.61,0,6.94-.14,3.58.85,4.5,4.56,4.13,1.49-.14,3-.19,5-.32-1.92,5.29-6.15,7.8-10.37,10.27a2.41,2.41,0,0,1-2,0C107.25,180.34,103.09,177.63,100.63,173Z"/><path class="cls-7" d="M83,394.35c8.73,1,16.49,0,24-4.19.93,4.52,0,8.53-1.17,12.68-5.39.84-10.68,1.71-16,2.48-3.22.47-4.66-.33-5.51-3.37A76.91,76.91,0,0,1,83,394.35Z"/><path class="cls-6" d="M120,368.2c2,4,3.81,7.65,5.58,11.32,1.69,3.49.27,5.56-3.63,5.2-2.88-.27-5.73-.78-8.79-1.22-1.17-5.62-.37-11.17.35-16.68C116.4,365.49,118.18,368.13,120,368.2Z"/><path class="cls-2" d="M107.16,322.24c-3.38,2.57-6.93,4-11.59,1.48v-11.1c3.67-.5,7.55,0,11.59.59Z"/><path class="cls-7" d="M113.24,400.49c.17-3.49.33-6.72.49-10.13l13.91.66c-.21,2-.35,4.3-.72,6.58-.23,1.38-1.17,2.13-2.76,2.51C120.6,401,117.11,400.78,113.24,400.49Z"/><path class="cls-2" d="M124.34,313.83c-.19,3.17-.35,5.88-.51,8.66-3.7,1.78-7.24,1-10.9-.05-.38-3-.75-6-1.16-9.32Z"/><path class="cls-8" d="M160.39,50.28l3.66,3-9.67,11.6-3.8-2.85C154,58.18,155.51,53.21,160.39,50.28Z"/><path class="cls-2" d="M72.16,129.38c-6.09-2.16-8.63-6.59-7.13-11.64.38-1.25.9-2.7,2.64-2.58s1.9,1.56,2,2.94c.2,1.82.48,3.65.86,5.45S71.52,127.06,72.16,129.38Z"/><path class="cls-8" d="M52.17,56.16l3.62-4.6,9.72,9.78L63,63.82Z"/><path class="cls-2" d="M144.25,127.4c.82-3.64,1.53-6.71,2.2-9.8.27-1.25,1.1-2,2.3-1.65a2.8,2.8,0,0,1,1.53,1.94C151,121.52,148.51,125.6,144.25,127.4Z"/><path class="cls-9" d="M72.92,134.1c.87,1.27,1.83,2,1.79,2.76-.06,1.11-.84,2.53-2.29,2.06a3.75,3.75,0,0,1-1.89-2.5C70.42,136,71.73,135.2,72.92,134.1Z"/><path class="cls-9" d="M146,135.17l-4.18-.19c1.46-1.56,2.89-2,4.32-.79Z"/><path d="M96.56,221.59c-1.32-1.3-2.39-2.33-3.43-3.38-5.4-5.44-2.82-13.73,4.84-15.61a38.31,38.31,0,0,0,4-1.13c5.48-2,10.75-.78,15.57,1.6,7.57,3.74,8.48,9.87,2.59,16.09,1.06,1.14,2.11,2.33,3.23,3.47,5.72,5.84,3.94,14.53-3.67,17.76a9.84,9.84,0,0,1-3.15,1c-7.33.36-14.66.55-21.46-2.85a7.29,7.29,0,0,1-3.93-8A14.81,14.81,0,0,1,96.56,221.59Zm11-17.74a77.14,77.14,0,0,0-8.5,1.56,10.59,10.59,0,0,0-4.38,2.81c-2.19,2.28-2,4.77.22,7a22,22,0,0,0,4.19,3.16c2.65,1.57,2.7,2.66.25,4.63a18.06,18.06,0,0,0-3.64,3.72c-3.25,4.77-2,8.77,3.73,9.94,5.46,1.11,11.16,1.1,16.76,1.57.25,0,.52-.17.78-.24,5.65-1.53,7.85-6.11,5.27-11.17a10.54,10.54,0,0,0-5.55-5.11c-3-1.21-3-2.58-.24-4.34.22-.15.48-.26.71-.41,4.33-2.84,4.43-7.07.24-10.11C114.54,204.78,111.2,204.15,107.6,203.85Z"/><path class="cls-1" d="M111.63,300.94a2.8,2.8,0,0,1-2.95-2.71,3.24,3.24,0,0,1,3-2.76,2.81,2.81,0,0,1,3,2.24C114.94,299,113.07,300.91,111.63,300.94Z"/><path class="cls-1" d="M102.6,295.24a2.9,2.9,0,0,1,3.08,2.6,3.07,3.07,0,0,1-3,3.17,3.16,3.16,0,0,1-3.12-2.59A3.3,3.3,0,0,1,102.6,295.24Z"/><path class="cls-1" d="M95.65,297c0,1.52-1.19,2.59-3,2.66a2.71,2.71,0,0,1-3.06-2.51,3.53,3.53,0,0,1,3.21-3A3,3,0,0,1,95.65,297Z"/><path class="cls-1" d="M125.16,298c0,2.2-1.6,3.86-3.08,3.82a2.72,2.72,0,1,1,.72-5.28A6.9,6.9,0,0,1,125.16,298Z"/><path class="cls-1" d="M77.32,294.15c-1.39,1.37-2.69,2.89-4.61,1.9-.78-.4-1.55-2.2-1.21-2.85a5.63,5.63,0,0,1,3-2.16C75.57,290.67,76.09,291.38,77.32,294.15Z"/><path class="cls-1" d="M130.91,301.19a2.78,2.78,0,0,1-2.68-2.91c.27-1.71,1.63-2.37,3.18-2.54a2.43,2.43,0,0,1,2.57,2.83A3.14,3.14,0,0,1,130.91,301.19Z"/><path class="cls-1" d="M85.65,295c.32,2.78-1.26,3.23-2.73,3.51-1.65.32-2.56-.73-2.88-2.13a2.73,2.73,0,0,1,3-2.95A7.83,7.83,0,0,1,85.65,295Z"/><path d="M88.62,102.34c-.1-1.07-.48-2.07-.19-2.85a3.78,3.78,0,0,1,1.93-2.23c.53-.16,1.63.91,2.27,1.6A10.73,10.73,0,0,1,93.87,101l.92,0a9.19,9.19,0,0,1,.95-3c.64-.84,1.91-1.88,2.74-1.77s1.86,1.48,2.07,2.44c.26,1.21-.22,2.58-.37,3.87,3.78,4.23,5.67,9,4.65,14.61a10.11,10.11,0,0,1-11.76,8.08c-7.47-1.15-11-6.36-9.64-14.24C84,107.42,85.41,104.37,88.62,102.34Zm2,4.88c3.78,1.18,5.62,3.19,5.74,6.24s-2,5.18-4.52,7l.38.76,5.13-.57c3.31-4.31,2.66-8.36,0-12.33C95.83,106,94.85,105.83,90.67,107.22Z"/><path d="M113.71,103.17c-2-4-1.9-4.4,1.72-6.1l2.78,4c1.24-1.65.79-4.63,3.75-4.14,2.49.41,1.82,2.58,2.06,4.14a14,14,0,0,1,4.61,20.58,5,5,0,0,1-4,2.38c-2.19.06-4.37.4-6.56.46-2.57.07-5.86-2.38-6.92-4.93-2.11-5.06-1-9.85,1.33-14.52A17.08,17.08,0,0,1,113.71,103.17ZM117.08,120c2.06,0,3.39,0,4.71,0,2.32.1,3.52-1,4-3.1a12,12,0,0,0-1-8c-1.27-2.68-3.75-3-6.52-1.19C123.79,111.75,121.56,116.56,117.08,120Z"/><path d="M117.61,141.61a43.37,43.37,0,0,1-1.37,4.9,7.63,7.63,0,0,1-8.42,4.24c-2.93-.65-6.15-2.34-6.48-6.25a10.47,10.47,0,0,0-.81-3.35c-.93-2.07-1.37-4,.48-5.83,1.68-1.7,3.43-2.43,5.88-1.38a9.08,9.08,0,0,0,3.63.21c4.92-.13,6.82,1.55,6.9,6.21,0,.39,0,.79-.06,1.18Zm-12.44-3.53-1.68,2.14c3.2,1.33,6.1,1.57,9,.33.42-.18.54-1,.8-1.54-.66-.27-1.51-.93-2-.74a15.68,15.68,0,0,0-2.87,2.06Zm7.13,7.45a15.83,15.83,0,0,0-6.23.33C108.83,147.24,110.5,147.35,112.3,145.53Z"/><path d="M106.61,126.45c3.22,3.63,3.22,3.89-.11,6.14a25.2,25.2,0,0,1-3.22-2.75,4.69,4.69,0,0,1,1.4-7.4c.77-.43,2-.15,3-.2a19.76,19.76,0,0,1-.12,2.78C107.46,125.48,107,125.89,106.61,126.45Z"/><path class="cls-7" d="M107.6,203.85c3.6.3,6.94.93,9.84,3,4.19,3,4.09,7.27-.24,10.11-.23.15-.49.26-.71.41-2.73,1.76-2.72,3.13.24,4.34a10.54,10.54,0,0,1,5.55,5.11c2.58,5.06.38,9.64-5.27,11.17-.26.07-.53.26-.78.24-5.6-.47-11.3-.46-16.76-1.57-5.73-1.17-7-5.17-3.73-9.94A18.06,18.06,0,0,1,99.38,223c2.45-2,2.4-3.06-.25-4.63a22,22,0,0,1-4.19-3.16c-2.27-2.25-2.41-4.74-.22-7a10.59,10.59,0,0,1,4.38-2.81A77.14,77.14,0,0,1,107.6,203.85Zm2.53,20a27.57,27.57,0,0,0-4.4.82c-4,1.44-4.71,5-1.43,7.65a9.92,9.92,0,0,0,3.55,2,7.14,7.14,0,0,0,6.82-1.93,4,4,0,0,0,1-5.08C114.56,225.06,113,223.51,110.13,223.83Zm-3.31-7.67c4.06.06,6.06-1.41,6-4s-2.27-4.22-5.45-4.19a10.81,10.81,0,0,0-2,.22c-2.19.43-3.76,2-3.74,3.63a5.09,5.09,0,0,0,3.79,4.2A9,9,0,0,0,106.82,216.16Z"/><path class="cls-7" d="M90.67,107.22c4.18-1.39,5.16-1.22,6.7,1,2.69,4,3.34,8,0,12.33l-5.13.57-.38-.76c2.54-1.77,4.65-3.85,4.52-7S94.45,108.4,90.67,107.22Z"/><path class="cls-7" d="M117.08,120c4.48-3.44,6.71-8.25,1.23-12.33,2.77-1.85,5.25-1.49,6.52,1.19a12,12,0,0,1,1,8c-.5,2.12-1.7,3.2-4,3.1C120.47,120,119.14,120,117.08,120Z"/><path class="cls-10" d="M105.17,138.08l3.31,2.25a15.68,15.68,0,0,1,2.87-2.06c.44-.19,1.29.47,2,.74-.26.53-.38,1.36-.8,1.54-2.91,1.24-5.81,1-9-.33Z"/><path class="cls-10" d="M112.3,145.53c-1.8,1.82-3.47,1.71-6.23.33A15.83,15.83,0,0,1,112.3,145.53Z"/><path d="M110.13,223.83c2.9-.32,4.43,1.23,5.53,3.42a4,4,0,0,1-1,5.08,7.14,7.14,0,0,1-6.82,1.93,9.92,9.92,0,0,1-3.55-2c-3.28-2.65-2.62-6.21,1.43-7.65A27.57,27.57,0,0,1,110.13,223.83Zm2.56,6.57c-1.18-3.23-1.8-3.67-4.84-3.22-.89.13-2.29.89-2.36,1.49-.17,1.36,1.12,2,2.45,2S110.84,230.49,112.69,230.4Z"/><path d="M106.82,216.16a9,9,0,0,1-1.43-.12,5.09,5.09,0,0,1-3.79-4.2c0-1.64,1.55-3.2,3.74-3.63a10.81,10.81,0,0,1,2-.22c3.18,0,5.42,1.7,5.45,4.19S110.88,216.22,106.82,216.16Zm2.76-3.78c-2.75-2.09-2.81-2.08-4.63.14C106.55,214.75,108,212.58,109.58,212.38Z"/><path class="cls-1" d="M112.69,230.4c-1.85.09-3.3.24-4.75.23s-2.62-.6-2.45-2c.07-.6,1.47-1.36,2.36-1.49C110.89,226.73,111.51,227.17,112.69,230.4Z"/><path class="cls-1" d="M109.58,212.38c-1.54.2-3,2.37-4.63.14C106.77,210.3,106.83,210.29,109.58,212.38Z"/></g></g></svg>