<svg xmlns="http://www.w3.org/2000/svg" viewBox="0 0 290.01 117.09"><defs><style>.cls-1{fill:#006934;}.cls-2{fill:#80c053;}.cls-3{fill:#0dac67;}.cls-4{fill:#80c277;}</style></defs><title>img08</title><g id="レイヤー_2" data-name="レイヤー 2"><g id="レイヤー_2-2" data-name="レイヤー 2"><path d="M263.53,86c0,1.48,0,3.17,0,4.85.18,6.86.4,13.72.59,20.59,0,.56.17,1.29-.12,1.66a4.5,4.5,0,0,1-1.93,1.56,1.45,1.45,0,0,1-2-1.29,32.38,32.38,0,0,1-.48-4.39c-.23-7.52-.42-15-.63-22.9-4.21-.35-8.15-.86-12.11-1-8.53-.23-17.45-8-16.92-18a76.42,76.42,0,0,1,2.83-17.18c1.42-4.93,2.33-10,3.63-15a28.88,28.88,0,0,1,2.21-5.73c2.47-4.9,4.91-9.83,7.69-14.56C249.18,9.74,252.48,5,257.71,2.2c6.53-3.54,11-3.1,15.24,3.42,4.53,7,8.63,14.22,10.74,22.45a220.39,220.39,0,0,1,6.24,36.77,15.45,15.45,0,0,1-3,11.28c-2.24,2.87-5.44,4.12-8.58,5.28C273.65,83.13,268.77,84.38,263.53,86Zm.11-6.74a6.17,6.17,0,0,0,1.49.08c4.72-1.37,9.53-2.49,14.1-4.26s6.36-5.14,5.72-10.14c-1-7.83-2-15.66-3.4-23.44s-3.11-15.26-6.85-22.19c-1.85-3.42-3.82-6.79-6-10-2.64-4-5.12-4.46-9.4-2.51a16.53,16.53,0,0,0-6.59,5.88c-6.57,9.43-12.24,19.32-14.39,30.84-.31,1.68-.74,3.35-1.13,5-1.41,6-3.28,11.93-3.4,18.19-.13,7.06,5.55,13.47,12.61,13.47,3.82,0,7.64-.9,11.51-.29.26,0,.58-.29,1.33-.7-.38-5.61-.77-11.38-1.15-17-2.76-1.32-5.16-2.39-7.49-3.62a2.87,2.87,0,0,1-1.22-3.82c.59-1.19,1.93-1.6,3.5-1,1.35.52,2.67,1.1,4.38,1.82,0-1.29,0-2.16,0-3-.07-1.83-.21-3.65-.26-5.48-.06-2.06.68-3.57,2.81-3.93,1.69.57,1.91,1.81,2,3.3.24,5,.57,10.05.91,15.07a30.58,30.58,0,0,0,.62,3.3c3-.9,5.74-1.68,8.45-2.55,1.47-.47,2.91-.4,3.59,1a3.07,3.07,0,0,1-.9,3.74,8.62,8.62,0,0,1-2.74,1.38c-2.58.86-5.19,1.62-7.78,2.42a4.49,4.49,0,0,0-.29,1.06C263.63,74.22,263.64,76.61,263.64,79.24Z"/><path d="M193.45,92.88v12.28c0,2.74.17,5.5-.06,8.22s-1.54,3.94-3.19,3.67-2.25-1.82-2.21-4.41c.09-6.38,0-12.77,0-19.51-3.7-.51-7.16-1-10.64-1.43-5.15-.57-9.84-1.92-13.16-6.34A10.53,10.53,0,0,1,162,79.72a47.62,47.62,0,0,1,1.9-17.29,133.79,133.79,0,0,1,12.64-29.22,67.28,67.28,0,0,1,6.17-8.61c1.85-2.3,4.43-3,7.39-2.68A19.37,19.37,0,0,1,201.06,27c3.61,3.13,5.69,7.15,7.82,11.11a84.33,84.33,0,0,1,9.22,25.72,36.27,36.27,0,0,1-1,16,14.18,14.18,0,0,1-10.48,10.34C202.47,91.25,198.18,91.91,193.45,92.88Zm.3-5.76c2.88-.46,5.38-.72,7.81-1.26,5.07-1.14,8.66-4.11,10.24-9.14a21.8,21.8,0,0,0,.72-10.85c-2.29-11.74-7.17-22.41-13.56-32.41a16.25,16.25,0,0,0-4.31-4.36c-3.57-2.51-7.12-1.89-9.91,1.43a13.64,13.64,0,0,0-1,1.38,116.68,116.68,0,0,0-16.05,36.57,55.36,55.36,0,0,0-1.27,10.21c-.25,4.44,1.26,6.53,5.36,8.15,5.48,2.15,10.9,1.35,16.66-.31-.3-4.68-.59-9.22-.88-13.71-1.71-.77-3.21-1.34-4.6-2.1s-2.09-2.82-1.44-3.86a2.9,2.9,0,0,1,3.33-1.17c.76.15,1.49.42,2.44.7,0-1.35-.07-2.48,0-3.6.11-1.44.51-2.75,2.31-2.88,1.56-.11,2.63.81,2.8,2.74.26,3.08.34,6.18.55,9.26a12.05,12.05,0,0,0,.49,2.09,3.88,3.88,0,0,0,.95,0c1.19-.4,2.37-.85,3.56-1.25,2.39-.82,3.81-.43,4.34,1.19s-.35,3.16-2.25,3.95c-2.09.86-4.23,1.61-6.29,2.39Z"/><path class="cls-1" d="M263.64,79.24c0-2.63,0-5,0-7.41a4.49,4.49,0,0,1,.29-1.06c2.59-.8,5.2-1.56,7.78-2.42A8.62,8.62,0,0,0,274.47,67a3.07,3.07,0,0,0,.9-3.74c-.68-1.41-2.12-1.48-3.59-1-2.71.87-5.44,1.65-8.45,2.55a30.58,30.58,0,0,1-.62-3.3c-.34-5-.67-10-.91-15.07-.07-1.49-.29-2.73-2-3.3C257.69,43.46,257,45,257,47c.05,1.83.19,3.65.26,5.48,0,.87,0,1.74,0,3-1.71-.72-3-1.3-4.38-1.82-1.57-.61-2.91-.2-3.5,1a2.87,2.87,0,0,0,1.22,3.82c2.33,1.23,4.73,2.3,7.49,3.62.38,5.63.77,11.4,1.15,17-.75.41-1.07.74-1.33.7-3.87-.61-7.69.29-11.51.29-7.06,0-12.74-6.41-12.61-13.47.12-6.26,2-12.17,3.4-18.19.39-1.66.82-3.33,1.13-5,2.15-11.52,7.82-21.41,14.39-30.84a16.53,16.53,0,0,1,6.59-5.88c4.28-1.95,6.76-1.45,9.4,2.51,2.16,3.23,4.13,6.6,6,10,3.74,6.93,5.5,14.53,6.85,22.19s2.38,15.61,3.4,23.44c.64,5-1.08,8.34-5.72,10.14s-9.38,2.89-14.1,4.26A6.17,6.17,0,0,1,263.64,79.24Z"/><path class="cls-2" d="M193.75,87.12V80.27c2.06-.78,4.2-1.53,6.29-2.39,1.9-.79,2.77-2.41,2.25-3.95s-1.95-2-4.34-1.19c-1.19.4-2.37.85-3.56,1.25a3.88,3.88,0,0,1-.95,0,12.05,12.05,0,0,1-.49-2.09c-.21-3.08-.29-6.18-.55-9.26-.17-1.93-1.24-2.85-2.8-2.74-1.8.13-2.2,1.44-2.31,2.88-.09,1.12,0,2.25,0,3.6-1-.28-1.68-.55-2.44-.7a2.9,2.9,0,0,0-3.33,1.17c-.65,1,.12,3.14,1.44,3.86s2.89,1.33,4.6,2.1c.29,4.49.58,9,.88,13.71-5.76,1.66-11.18,2.46-16.66.31-4.1-1.62-5.61-3.71-5.36-8.15a55.36,55.36,0,0,1,1.27-10.21,116.68,116.68,0,0,1,16.05-36.57,13.64,13.64,0,0,1,1-1.38c2.79-3.32,6.34-3.94,9.91-1.43A16.25,16.25,0,0,1,199,33.46c6.39,10,11.27,20.67,13.56,32.41a21.8,21.8,0,0,1-.72,10.85c-1.58,5-5.17,8-10.24,9.14C199.13,86.4,196.63,86.66,193.75,87.12Z"/><path d="M11.66,81.4C8.52,80.24,5.32,79,3.07,76.12a15.4,15.4,0,0,1-3-11.28A220.37,220.37,0,0,1,6.31,28.07c2.11-8.23,6.22-15.43,10.75-22.45,4.21-6.52,8.71-7,15.24-3.42C37.53,5,40.82,9.74,43.72,14.67c2.78,4.73,5.22,9.66,7.69,14.56A28.88,28.88,0,0,1,53.62,35c1.29,5,2.21,10,3.62,15A75.86,75.86,0,0,1,60.07,67.1c.54,10-8.38,17.76-16.92,18-3.95.11-7.89.62-12.1,1-.22,7.86-.4,15.38-.64,22.9a30.86,30.86,0,0,1-.48,4.39,1.45,1.45,0,0,1-2,1.29A4.59,4.59,0,0,1,26,113.08c-.28-.37-.13-1.1-.12-1.66q.3-10.31.6-20.59c.05-1.68,0-3.37,0-4.85C21.23,84.38,16.36,83.13,11.66,81.4Zm14.69-9.57a4.49,4.49,0,0,0-.29-1.06c-2.59-.8-5.21-1.56-7.78-2.42A8.52,8.52,0,0,1,15.54,67a3.07,3.07,0,0,1-.9-3.74c.68-1.41,2.12-1.48,3.59-1,2.71.87,5.44,1.65,8.45,2.55a30.58,30.58,0,0,0,.62-3.3c.34-5,.67-10,.91-15.07.07-1.49.29-2.73,2-3.3C32.32,43.46,33.06,45,33,47c0,1.83-.19,3.65-.27,5.48,0,.87,0,1.74,0,3,1.71-.72,3-1.3,4.38-1.82,1.57-.61,2.91-.2,3.49,1a2.85,2.85,0,0,1-1.22,3.82c-2.32,1.23-4.72,2.3-7.48,3.62-.38,5.63-.78,11.4-1.16,17,.76.41,1.08.74,1.34.7,3.86-.61,7.69.29,11.51.29,7,0,12.73-6.41,12.6-13.47-.11-6.26-2-12.17-3.39-18.19-.39-1.66-.82-3.33-1.13-5C49.52,32,43.84,22.07,37.27,12.64a16.4,16.4,0,0,0-6.59-5.88c-4.27-1.95-6.75-1.45-9.39,2.51-2.16,3.23-4.13,6.6-6,10-3.74,6.93-5.5,14.53-6.85,22.19S6.07,57.09,5.06,64.92c-.64,5,1.08,8.34,5.72,10.14s9.38,2.89,14.1,4.26a6.09,6.09,0,0,0,1.48-.08C26.36,76.61,26.37,74.22,26.35,71.83Z"/><path d="M83.37,90.12A14.16,14.16,0,0,1,72.89,79.78a36,36,0,0,1-1-16,84.06,84.06,0,0,1,9.22-25.72c2.13-4,4.21-8,7.81-11.11a19.4,19.4,0,0,1,11-5.08c2.95-.32,5.54.38,7.39,2.68a66.24,66.24,0,0,1,6.16,8.61,132.84,132.84,0,0,1,12.64,29.22A47.63,47.63,0,0,1,128,79.72a10.53,10.53,0,0,1-2.21,5.64c-3.32,4.42-8,5.77-13.17,6.34-3.47.38-6.93.92-10.63,1.43,0,6.74-.07,13.13,0,19.51,0,2.59-.58,4.15-2.22,4.41s-3-1-3.19-3.67,0-5.48,0-8.22V92.88C91.83,91.91,87.54,91.25,83.37,90.12Zm12.89-9.85c-2.07-.78-4.2-1.53-6.29-2.39-1.9-.79-2.77-2.41-2.26-3.95s2-2,4.35-1.19c1.19.4,2.37.85,3.56,1.25a3.88,3.88,0,0,0,.95,0,13,13,0,0,0,.49-2.09c.21-3.08.28-6.18.55-9.26.17-1.93,1.23-2.85,2.8-2.74,1.8.13,2.2,1.44,2.31,2.88.08,1.12,0,2.25,0,3.6,1-.28,1.69-.55,2.45-.7a2.9,2.9,0,0,1,3.33,1.17c.65,1-.12,3.14-1.44,3.86s-2.89,1.33-4.6,2.1c-.29,4.49-.58,9-.89,13.71,5.76,1.66,11.18,2.46,16.67.31,4.1-1.62,5.6-3.71,5.36-8.15a55.36,55.36,0,0,0-1.27-10.21,116.68,116.68,0,0,0-16-36.57,13.64,13.64,0,0,0-1-1.38c-2.79-3.32-6.35-3.94-9.92-1.43A16.4,16.4,0,0,0,91,33.46c-6.39,10-11.26,20.67-13.55,32.41a21.8,21.8,0,0,0,.72,10.85c1.58,5,5.17,8,10.23,9.14,2.44.54,4.94.8,7.82,1.26Z"/><path class="cls-3" d="M26.36,79.24c0-2.63,0-5,0-7.41a4.49,4.49,0,0,0-.29-1.06c-2.59-.8-5.21-1.56-7.78-2.42A8.52,8.52,0,0,1,15.54,67a3.07,3.07,0,0,1-.9-3.74c.68-1.41,2.12-1.48,3.59-1,2.71.87,5.44,1.65,8.45,2.55a30.58,30.58,0,0,0,.62-3.3c.34-5,.67-10,.91-15.07.07-1.49.29-2.73,2-3.3C32.32,43.46,33.06,45,33,47c0,1.83-.19,3.65-.27,5.48,0,.87,0,1.74,0,3,1.71-.72,3-1.3,4.38-1.82,1.57-.61,2.91-.2,3.49,1a2.85,2.85,0,0,1-1.22,3.82c-2.32,1.23-4.72,2.3-7.48,3.62-.38,5.63-.78,11.4-1.16,17,.76.41,1.08.74,1.34.7,3.86-.61,7.69.29,11.51.29,7,0,12.73-6.41,12.6-13.47-.11-6.26-2-12.17-3.39-18.19-.39-1.66-.82-3.33-1.13-5C49.52,32,43.84,22.07,37.27,12.64a16.4,16.4,0,0,0-6.59-5.88c-4.27-1.95-6.75-1.45-9.39,2.51-2.16,3.23-4.13,6.6-6,10-3.74,6.93-5.5,14.53-6.85,22.19S6.07,57.09,5.06,64.92c-.64,5,1.08,8.34,5.72,10.14s9.38,2.89,14.1,4.26A6.09,6.09,0,0,0,26.36,79.24Z"/><path class="cls-4" d="M96.26,87.12V80.27c-2.07-.78-4.2-1.53-6.29-2.39-1.9-.79-2.77-2.41-2.26-3.95s2-2,4.35-1.19c1.19.4,2.37.85,3.56,1.25a3.88,3.88,0,0,0,.95,0,13,13,0,0,0,.49-2.09c.21-3.08.28-6.18.55-9.26.17-1.93,1.23-2.85,2.8-2.74,1.8.13,2.2,1.44,2.31,2.88.08,1.12,0,2.25,0,3.6,1-.28,1.69-.55,2.45-.7a2.9,2.9,0,0,1,3.33,1.17c.65,1-.12,3.14-1.44,3.86s-2.89,1.33-4.6,2.1c-.29,4.49-.58,9-.89,13.71,5.76,1.66,11.18,2.46,16.67.31,4.1-1.62,5.6-3.71,5.36-8.15a55.36,55.36,0,0,0-1.27-10.21,116.68,116.68,0,0,0-16-36.57,13.64,13.64,0,0,0-1-1.38c-2.79-3.32-6.35-3.94-9.92-1.43A16.4,16.4,0,0,0,91,33.46c-6.39,10-11.26,20.67-13.55,32.41a21.8,21.8,0,0,0,.72,10.85c1.58,5,5.17,8,10.23,9.14C90.88,86.4,93.38,86.66,96.26,87.12Z"/></g></g></svg>