<svg xmlns="http://www.w3.org/2000/svg" viewBox="0 0 181.17 292.5"><defs><style>.cls-1{fill:#f9e2c5;}.cls-2{fill:#500813;}.cls-3{fill:#fff;}.cls-4{fill:#eaba26;}.cls-5{fill:#0e3484;}.cls-6{fill:#bd173a;}.cls-7{fill:#eba7b0;}</style></defs><title>img05</title><g id="レイヤー_2" data-name="レイヤー 2"><g id="レイヤー_2-2" data-name="レイヤー 2"><path d="M174.11,109.43c6.21,9.2,9.76,19.36,5.26,30.53-1.92,4.79-5.8,8.08-10.15,10.7-4.84,2.94-9.79,5.7-14.67,8.55s-10.48,3.44-16,4.17c-1.22.16-2.44.37-3.34.5,1.94,3.15,4.16,6.13,5.73,9.43,3.63,7.62,3.5,15.79,2.27,23.86-.78,5.12-2.49,10.08-3.6,15.15a12.77,12.77,0,0,0,.07,4.65c.28,1.89,1.37,3.76,1.27,5.59-.19,3.61-2.54,5.6-6.27,5.91a27.42,27.42,0,0,1-4.34.14,37.55,37.55,0,0,1-4.27-.9c-.5,6.06-1,11.79-1.42,17.51-.38,5-3.1,7.26-9.34,7.57,2,6,1.08,12.25,1.08,18.36,0,4.93-.21,4.64,3.83,7.05a43.39,43.39,0,0,1,8,6.81A3.49,3.49,0,0,1,127,290.4a42,42,0,0,1-9.48,2.1,44.36,44.36,0,0,1-16.86-1.68c-1.78-.51-2.9-1.32-2.79-3.39.16-3.57-1.22-7.25,1-10.68.41-.62.1-1.86-.17-2.72-2.13-7.22-1.78-14.55-1.17-22.35-5.51.16-10-1.56-9.77-8.89l-1.12.29c-.48,1.6-1.07,3.18-1.43,4.82-.42,1.95-.5,4.08-3.37,3.47.22,6.2.51,18.75.61,24.68,0,1.93.27,3.42,1.93,4.8,2.79,2.33,1.46,8.17-2.14,9.37-7.81,2.6-15.76,3.28-23.76.81-3.16-1-4.68-3.87-2.82-6.5a19.41,19.41,0,0,1,6.77-5.87c1.79-.91,2.24-1.62,2.09-3.34-.36-3.95-.7-7.91-.86-11.87-.08-1.8.25-10.24.43-12.44-2.23-.54-4.52-1.12-6.81-1.66-3.44-.82-4.68-2.41-4.7-5.89,0-4.92-.15-9.86-.23-14.79a6.73,6.73,0,0,0-.22-1.17c-4.34.85-8.44,2-12.84.36-5-1.85-6.63-5.75-3.76-10.36A49.09,49.09,0,0,1,39,213.12c-7.55-17.25-9.75-34.27,1.14-51.2-3.85-1.74-8.13-3.28-12-5.52-8.55-4.94-17.21-9.87-23.5-17.75-5.68-7.11-5.17-15.21-2-23,4.05-10,11.91-16.86,20.22-23.28,4-3.1,6.21-6.71,6.2-12.49,0-4.31-1.28-7.68-2.72-11.31-4.57-11.62-2.45-22.28,4.39-32.39s16.74-15.67,28.12-19a23,23,0,0,1,3.48-.38c-2.69-2.34-4.86-4.32-7.12-6.18-1.56-1.29-2.6-2.75-1.49-4.7,1.24-2.2,3.23-1.4,4.81-.6A60.66,60.66,0,0,1,64,8.89c.8-2.17,1.56-4.43,2.48-6.63.66-1.6,2-2.65,3.61-1.65,1.45.89,4.22,1.18,2.65,4.33-1,2-1.32,4.36-2.16,7.34,2.45-.94,4.16-1.64,5.92-2.23A63.69,63.69,0,0,1,98.74,6.3c10,.3,20,1.18,28.38,7.18,10.68,7.65,20.9,15.92,25.95,28.8A59,59,0,0,1,157,63.2c.07,6.32-1.07,12.63-1.34,19s1.44,11.84,6.9,16C166.81,101.46,171.17,105.05,174.11,109.43Zm-2.66,29.9c3.5-6.77,1.94-21.26-3.15-26.77-3.39-3.66-6.92-7.2-10.63-10.52-5.39-4.82-9.49-10.15-9.2-17.84,0-.48-.32-1.29-.66-1.4a18.13,18.13,0,0,0-5.05-1.2c-6.81-.13-13.63.26-20.42-.11-7.88-.44-15.7-1.71-23.58-2.12-4.11-.2-7.43-1.17-9.83-4.6-.08-.11-.37,0-.56-.06-1.83,1.54-3.87,3.1-6,3.27s-4.49-1-6.06-1.45c-2.35.74-4.25,1.82-6.18,1.85-5.48.09-11-.25-16.47-.39-5.85-.14-11.74-.94-17.83,1.05,1.79,4.59,1,8.6-2.14,12a69.91,69.91,0,0,1-7.29,7.11c-6.83,5.5-13.11,11.44-16.61,19.69-2.41,5.65-2.56,15.86,3.47,20.73,4.11,3.32,8.45,6.36,12.74,9.44,8.47,6.08,17.89,9.85,28.32,10.41s20.79.77,31.19.8c7.5,0,15-.63,22.51-.72,5.43-.06,10.86.46,16.28.44a89.91,89.91,0,0,0,12.39-.77c4.8-.7,9.74-1,14-3.82,3.59-2.37,7.49-4.25,11.14-6.53S169.33,143.42,171.45,139.33ZM148.87,75.62c-.13-6.29-.18-12.24-.41-18.18A38.77,38.77,0,0,0,140,34.49c-3.65-4.59-8.56-8.19-12.93-12.22-4-3.71-8.47-6.83-13.94-7.76a108.87,108.87,0,0,0-14.17-1.45,48.74,48.74,0,0,0-22.66,4.88c-2.83,1.33-5.34,3.46-8.79,2.63-.25-.05-.76,0-.77.06-.73,2.83-3.33,1.62-5,2.38-4.77,2.22-9.69,4.24-14.16,7C39.48,34.91,34.4,42.32,32,51.43c-1.89,7.31-.26,14.16,3.86,20.51,2.74-.21,5.7-.65,8.65-.62,7.34.06,14.67.29,22,.54a4.34,4.34,0,0,0,4.31-2.12c1.85-2.76,3.2-2.95,6-1.29,1.52.92,3,2,4.43,3,.31-.24.55-.39.76-.58,5.54-5.26,8-5.17,13.39.22a5.64,5.64,0,0,0,3.2,1.49c5.77.64,11.55,1.13,17.33,1.64,3.89.34,7.76.8,11.65.9,4.23.11,8.47-.23,12.69-.18C142.86,75,145.42,75.34,148.87,75.62ZM132,210.45c3.5-7.09,4.23-14.33,4.24-21.7s-1.53-14.32-6.89-20A73.43,73.43,0,0,1,124,210.39Zm-1.56,12.68,2.71,0a14.39,14.39,0,0,0-.29-3c-1.17-3.77-4.39-4.39-7.93-4.73-.4,6.24-.4,6.24,5.23,7.68A1,1,0,0,0,130.41,223.13Zm-9.84,63.6a35.5,35.5,0,0,0-15-8.73,61.92,61.92,0,0,0-.45,6.2,2.7,2.7,0,0,0,1.29,2.06C110.83,287.73,115.34,287.67,120.57,286.73Zm-24.1-41.36,20.73,1.7c0-10-.06-19.31-.15-28.62,0-2.48-.83-4.25-3.93-3.8a30,30,0,0,1-4.63-.1c-10.33-.19-20.67-.27-31-.57-5.94-.18-11.87-.71-17.39-1.06a43.55,43.55,0,0,1,.42,4.73q-.27,11.88-.7,23.76c-.07,1.7.61,2.57,2.18,2.78,5.13.67,10.25,1.31,15.11,1.93,2.61-4.33,3.15-10.29,8.67-10.25C91.46,235.9,96.3,238.61,96.47,245.37Zm20.28-47.62a124.11,124.11,0,0,0,1-33.25l-3,.1a18.9,18.9,0,0,1,1.3,3.84,73.74,73.74,0,0,1,.72,10.88c-.23,5.06-1.56,6.25-6.78,6.74-6,.57-10.82-2.4-15.53-5.64a6.68,6.68,0,0,0-3.18-.86c-1.59-.09-3.25.39-4.81.14-2.81-.44-5.56-1.25-8.35-1.91-1.09,1.14-2.22,2.46-3.52,3.62a45.42,45.42,0,0,1-4.1,3.19c-4.17,2.94-10.26,1.35-11-4.52a30.68,30.68,0,0,0-.78-3.07c-.18-.88-.27-1.8-.4-2.7l-1.21.17c.41,6,.8,12,1.21,17.93.29,4.33,2.7,8.39,1.52,12.94-.1.36,1.33,1.53,2.13,1.63,2,.24,4-.06,6,.08,3.92.28,7.83.77,11.75,1a3.36,3.36,0,0,0,2.48-.68c2.24-2.81,4.18-3.47,6.52-1,2,2.09,4.06,2.1,6.36,2.14,4.73.06,9.46,0,14.2,0,2.6,0,5.19,0,7.36-.08-.4-1.77-1.07-3.32-1-4.84C115.69,201.69,116.42,199.74,116.75,197.75Zm-8.14,75.75c.26-.15.52-.32.77-.48-.29-.76-.38-1.94-.92-2.2a9.51,9.51,0,0,0-3.15-.34c-.07.34-.14.67-.2,1Zm.07-8.67c-.09-4.35-.17-8.33-.25-12.4l-2.87.12-.91,11.13Zm-2.61-85.33c1.75,1,3.19,1,2.9-1.81-.23-2.18-.06-4.41-.4-6.57-.19-1.17-1-3.16-1.69-3.2a21.12,21.12,0,0,0-7.3.86c-.81.25-1,2.35-1.52,3.61-.24.61-.42,1.23-.65,1.88C100.36,176.07,103.16,177.9,106.07,179.5ZM89.53,173c.92-2.27,1.1-4.85,1.63-7.66l-7.23.32c0,2.1-.08,4,.13,5.9.09.73.84,1.89,1.36,1.94C86.83,173.63,89.27,173.67,89.53,173ZM77.66,287.15l.31-3.86c-5.45,1.3-11.42-2.68-15.35,3.58ZM76,278.31A51,51,0,0,0,74.4,273c-.09-.19-2.21,0-2.29.36a24.08,24.08,0,0,0-.47,4.38Zm-1.75-10.76c.25-3.1.49-12.67.76-16l-4-.11c0,3.25.05,13,.08,16.12Zm-7.12-88.63c3-2.85,5.88-5.71,8.91-8.65-2.64-1.17-5-2.15-7.33-3.28-1.59-.76-2.5-.29-2.56,1.37-.11,3.41-.07,6.83-.09,10.24ZM52.72,221.8c.27-1.94.57-4.12.92-6.68a19.26,19.26,0,0,1-3.92,0,6,6,0,0,0-6.5,2.66c-.87,1.27-1.75,3.33-1.29,4.51.76,2,2.91,1.64,4.79,1S50.63,222.34,52.72,221.8Zm-3.43-12.36c2.07.22,3.3-1.06,2.74-3-.79-2.76-2-5.46-2.37-8.28-1.17-8.34-2.24-16.72-2.92-25.11-.22-2.78.9-5.66,1.45-8.71a17.27,17.27,0,0,0-6.36,9.51,48.71,48.71,0,0,0,.89,30.3C44,207.64,45.93,209.09,49.29,209.44Z" transform="translate(-0.23 -0.22)"/><path class="cls-1" d="M168.3,112.56c5.09,5.51,6.65,20,3.15,26.77-2.12,4.09-5.95,6.21-9.59,8.49s-7.55,4.16-11.14,6.53c-4.3,2.86-9.24,3.12-14,3.82a89.91,89.91,0,0,1-12.39.77c-5.42,0-10.85-.5-16.28-.44-7.5.09-15,.75-22.51.72-10.4,0-20.8-.24-31.19-.8S34.46,154.09,26,148c-4.29-3.08-8.63-6.12-12.74-9.44-6-4.87-5.88-15.08-3.47-20.73,3.5-8.25,9.78-14.19,16.61-19.69A69.91,69.91,0,0,0,33.68,91c3.16-3.4,3.93-7.41,2.14-12,6.09-2,12-1.19,17.83-1.05,5.5.14,11,.48,16.47.39,1.93,0,3.83-1.11,6.18-1.85,1.57.42,3.86,1.62,6.06,1.45s4.18-1.73,6-3.27c.19,0,.48,0,.56.06,2.4,3.43,5.72,4.4,9.83,4.6,7.88.41,15.7,1.68,23.58,2.12,6.79.37,13.61,0,20.42.11a18.13,18.13,0,0,1,5.05,1.2c.34.11.68.92.66,1.4-.29,7.69,3.81,13,9.2,17.84C161.38,105.36,164.91,108.9,168.3,112.56Zm-37.77.15c2.69-.92,4.81-2.42,4.85-5.4a127.25,127.25,0,0,0-.44-13.53c-.5-5.42-2.75-7.45-8.24-8.18-2.62-.35-5.23-.88-7.87-1-5.14-.19-10.42-1.21-15.1,2.2-.61.46-1.76.31-2.64.27-2.17-.11-3.56.65-3.67,3-.1,1.88-.15,3.77-.21,5.37l-17.27-.61c-.71-6.42-3.32-9.54-9.08-10.68a13.74,13.74,0,0,0-3.44-.53c-6.3.4-12.59.88-18.89,1.5a3,3,0,0,0-2,1.79,14.72,14.72,0,0,0-.95,5.36c.38,5,1,10,1.72,14.93.65,4.58.73,4.86,5.49,5.12,7.44.39,14.93,1.18,22.24-1.27a7,7,0,0,0,5.12-6c.16-1.53.25-3,.41-4.92l17.13-.06c.57,2.07,1.1,4,1.64,5.92a8.3,8.3,0,0,0,8.86,6.34,23.73,23.73,0,0,1,2.51.26C117.32,113.14,123.9,114.94,130.53,112.71Zm-28.87,34.38a60.46,60.46,0,0,0,.37-8.84c.06-4.09-2-6.27-6-7.26-3.12-.79-5.32.64-7.48,2.32-5.55-3.5-10.92-3.38-13.33.23-1.91,2.85-1.52,8.06.73,9.7-1.36,5.67-.55,8.27,4.44,11.16,3.83,2.24,8.09,2.27,12.53,1.32C97.91,154.66,100.89,152,101.66,147.09ZM90.17,126.72c.67-.2,1.14-1.06,1.71-1.61-.6-.54-1.12-1.3-1.81-1.56-1.52-.55-3.17-.71-4.7-1.26-1-.36-2.38-1-2.55-1.72a3.8,3.8,0,0,1,1.25-2.92,30.55,30.55,0,0,1,4.38-3.32c2.46-1.67,3-4,2.24-7.36-.54-2.47-2.82-3.31-4.91-3.19-2.3.12-2.46,2.37-2.07,4s-.18,2.28-1.3,3.09c-1.48,1.07-2.82,2.33-4.26,3.44-4.13,3.21-3.82,8.69.78,10.91a51.88,51.88,0,0,0,6.62,2.2A35.1,35.1,0,0,0,90.17,126.72Z" transform="translate(-0.23 -0.22)"/><path class="cls-2" d="M148.46,57.44c.23,5.94.28,11.89.41,18.18-3.45-.28-6-.65-8.59-.67-4.22,0-8.46.29-12.69.18-3.89-.1-7.76-.56-11.65-.9-5.78-.51-11.56-1-17.33-1.64a5.64,5.64,0,0,1-3.2-1.49C90,65.71,87.56,65.62,82,70.88c-.21.19-.45.34-.76.58-1.48-1-2.91-2.09-4.43-3-2.79-1.66-4.14-1.47-6,1.29a4.34,4.34,0,0,1-4.31,2.12c-7.32-.25-14.65-.48-22-.54-2.95,0-5.91.41-8.65.62-4.12-6.35-5.75-13.2-3.86-20.51C34.4,42.32,39.48,34.91,47.55,30c4.47-2.73,9.39-4.75,14.16-7,1.67-.76,4.27.45,5-2.38,0-.09.52-.11.77-.06,3.45.83,6-1.3,8.79-2.63a48.74,48.74,0,0,1,22.66-4.88,108.87,108.87,0,0,1,14.17,1.45c5.47.93,9.92,4,13.94,7.76,4.37,4,9.28,7.63,12.93,12.22A38.77,38.77,0,0,1,148.46,57.44Z" transform="translate(-0.23 -0.22)"/><path class="cls-3" d="M136.21,188.75c0,7.37-.74,14.61-4.24,21.7l-8-.06a73.43,73.43,0,0,0,5.35-41.65C134.68,174.43,136.23,181.32,136.21,188.75Z" transform="translate(-0.23 -0.22)"/><path class="cls-1" d="M133.12,223.08l-2.71,0a1,1,0,0,1-.28-.07c-5.63-1.44-5.63-1.44-5.23-7.68,3.54.34,6.76,1,7.93,4.73A14.39,14.39,0,0,1,133.12,223.08Z" transform="translate(-0.23 -0.22)"/><path d="M135.38,107.31c0,3-2.16,4.48-4.85,5.4-6.63,2.23-13.21.43-19.82-.08a23.73,23.73,0,0,0-2.51-.26A8.3,8.3,0,0,1,99.34,106c-.54-1.93-1.07-3.85-1.64-5.92l-17.13.06c-.16,1.87-.25,3.39-.41,4.92a7,7,0,0,1-5.12,6c-7.31,2.45-14.8,1.66-22.24,1.27-4.76-.26-4.84-.54-5.49-5.12-.72-5-1.34-9.93-1.72-14.93a14.72,14.72,0,0,1,.95-5.36,3,3,0,0,1,2-1.79c6.3-.62,12.59-1.1,18.89-1.5a13.74,13.74,0,0,1,3.44.53c5.76,1.14,8.37,4.26,9.08,10.68l17.27.61c.06-1.6.11-3.49.21-5.37.11-2.35,1.5-3.11,3.67-3,.88,0,2,.19,2.64-.27,4.68-3.41,10-2.39,15.1-2.2,2.64.1,5.25.63,7.87,1,5.49.73,7.74,2.76,8.24,8.18A127.25,127.25,0,0,1,135.38,107.31Zm-13.52,1.08c5,.53,6-.33,5.91-5.3,0-2.6-.31-5.2-.42-7.81-.11-3-1.7-4.4-4.66-4.82A43.23,43.23,0,0,0,104.54,92c.69,4.46,1.35,9.09,2.18,13.68.09.49,1,1.09,1.67,1.17C112.87,107.42,117.37,107.9,121.86,108.39Zm-55.24-.66c4.47.07,6.14-1.62,5.88-6-.16-2.4-.33-4.81-.64-7.2-.41-3.34-2.82-5.8-5.82-5.69-3.9.15-7.77.63-11.68.83-1.75.09-2.5.89-2.28,2.53.63,4.74,1.29,9.48,2.14,14.2.1.57,1.49,1.29,2.29,1.3,2.69,0,5.4-.21,7.63-.31C65.27,107.54,66,107.7,66.62,107.73Z" transform="translate(-0.23 -0.22)"/><path class="cls-4" d="M105.59,278a35.5,35.5,0,0,1,15,8.73c-5.23.94-9.74,1-14.14-.47a2.7,2.7,0,0,1-1.29-2.06A61.92,61.92,0,0,1,105.59,278Z" transform="translate(-0.23 -0.22)"/><path class="cls-5" d="M117.2,247.07l-20.73-1.7c-.17-6.76-5-9.47-10.69-9.5-5.52,0-6.06,5.92-8.67,10.25-4.86-.62-10-1.26-15.11-1.93-1.57-.21-2.25-1.08-2.18-2.78q.43-11.86.7-23.76a43.55,43.55,0,0,0-.42-4.73c5.52.35,11.45.88,17.39,1.06,10.33.3,20.67.38,31,.57a30,30,0,0,0,4.63.1c3.1-.45,3.9,1.32,3.93,3.8C117.14,227.76,117.16,237.06,117.2,247.07Z" transform="translate(-0.23 -0.22)"/><path class="cls-3" d="M127.77,103.09c.07,5-.93,5.83-5.91,5.3-4.49-.49-9-1-13.47-1.56-.62-.08-1.58-.68-1.67-1.17-.83-4.59-1.49-9.22-2.18-13.68a43.23,43.23,0,0,1,18.15-1.52c3,.42,4.55,1.77,4.66,4.82C127.46,97.89,127.74,100.49,127.77,103.09Z" transform="translate(-0.23 -0.22)"/><path class="cls-3" d="M117.71,164.5a124.11,124.11,0,0,1-1,33.25c-.33,2-1.06,3.94-1.14,5.93-.06,1.52.61,3.07,1,4.84-2.17,0-4.76.07-7.36.08-4.74,0-9.47,0-14.2,0-2.3,0-4.41-.05-6.36-2.14-2.34-2.5-4.28-1.84-6.52,1a3.36,3.36,0,0,1-2.48.68c-3.92-.26-7.83-.75-11.75-1-2-.14-4.05.16-6-.08-.8-.1-2.23-1.27-2.13-1.63,1.18-4.55-1.23-8.61-1.52-12.94-.41-6-.8-11.95-1.21-17.93l1.21-.17c.13.9.22,1.82.4,2.7a30.68,30.68,0,0,1,.78,3.07c.73,5.87,6.82,7.46,11,4.52a45.42,45.42,0,0,0,4.1-3.19c1.3-1.16,2.43-2.48,3.52-3.62,2.79.66,5.54,1.47,8.35,1.91,1.56.25,3.22-.23,4.81-.14a6.68,6.68,0,0,1,3.18.86c4.71,3.24,9.51,6.21,15.53,5.64,5.22-.49,6.55-1.68,6.78-6.74a73.74,73.74,0,0,0-.72-10.88,18.9,18.9,0,0,0-1.3-3.84ZM86.23,199.6c2.79.36,5-.75,5-2.72,0-2.39-2.24-2.5-3.94-2.89-2.12-.49-3.9.47-4.14,2.51C83,198.21,84,199.93,86.23,199.6Zm.24-11.48c2.23.33,5-1.35,4.41-2.84s-2.31-2.27-4.08-3.86c-1.32,1.44-2.63,2.24-2.93,3.33C83.37,186.59,84.58,187.84,86.47,188.12Z" transform="translate(-0.23 -0.22)"/><path class="cls-3" d="M109.38,273c-.25.16-.51.33-.77.48l-3.5-2c.06-.34.13-.67.2-1a9.51,9.51,0,0,1,3.15.34C109,271.08,109.09,272.26,109.38,273Z" transform="translate(-0.23 -0.22)"/><path class="cls-1" d="M108.43,252.43c.08,4.07.16,8.05.25,12.4l-4-1.15.91-11.13Z" transform="translate(-0.23 -0.22)"/><path class="cls-6" d="M109,177.69c.29,2.77-1.15,2.79-2.9,1.81-2.91-1.6-5.71-3.43-8.66-5.23.23-.65.41-1.27.65-1.88.47-1.26.71-3.36,1.52-3.61a21.12,21.12,0,0,1,7.3-.86c.64,0,1.5,2,1.69,3.2C108.91,173.28,108.74,175.51,109,177.69Z" transform="translate(-0.23 -0.22)"/><path d="M102,138.25a60.46,60.46,0,0,1-.37,8.84c-.77,4.86-3.75,7.57-8.72,8.63-4.44.95-8.7.92-12.53-1.32-5-2.89-5.8-5.49-4.44-11.16-2.25-1.64-2.64-6.85-.73-9.7,2.41-3.61,7.78-3.73,13.33-.23,2.16-1.68,4.36-3.11,7.48-2.32C100,132,102.09,134.16,102,138.25Zm-21.64,3.1,14.36,1.18c-.09-1.9-.16-3.52-.25-5.73-4.76,2.4-9.25,6.31-13.27-.68Zm8.41,10c3.15-.36,4.66-1.81,5-5.1-2.11.22-4,.5-5.9.62s-3.74.08-5.7.12C83.41,150.53,85.33,151.72,88.8,151.33Z" transform="translate(-0.23 -0.22)"/><path d="M91.24,196.88c0,2-2.22,3.08-5,2.72-2.27.33-3.25-1.39-3.07-3.1.24-2,2-3,4.14-2.51C89,194.38,91.22,194.49,91.24,196.88Z" transform="translate(-0.23 -0.22)"/><path class="cls-7" d="M94.75,142.53l-14.36-1.18.84-5.23c4,7,8.51,3.08,13.27.68C94.59,139,94.66,140.63,94.75,142.53Z" transform="translate(-0.23 -0.22)"/><path d="M90.88,185.28c.58,1.49-2.18,3.17-4.41,2.84-1.89-.28-3.1-1.53-2.6-3.37.3-1.09,1.61-1.89,2.93-3.33C88.57,183,90.36,183.9,90.88,185.28Z" transform="translate(-0.23 -0.22)"/><path class="cls-7" d="M93.8,146.23c-.34,3.29-1.85,4.74-5,5.1-3.47.39-5.39-.8-6.6-4.36,2,0,3.84,0,5.7-.12S91.69,146.45,93.8,146.23Z" transform="translate(-0.23 -0.22)"/><path class="cls-6" d="M91.16,165.35c-.53,2.81-.71,5.39-1.63,7.66-.26.66-2.7.62-4.11.5-.52,0-1.27-1.21-1.36-1.94-.21-1.87-.11-3.8-.13-5.9Z" transform="translate(-0.23 -0.22)"/><path class="cls-4" d="M78,283.29l-.31,3.86-15-.28C66.55,280.61,72.52,284.59,78,283.29Z" transform="translate(-0.23 -0.22)"/><path d="M91.88,125.11c-.57.55-1,1.41-1.71,1.61a35.1,35.1,0,0,1-4.62.75,51.88,51.88,0,0,1-6.62-2.2c-4.6-2.22-4.91-7.7-.78-10.91,1.44-1.11,2.78-2.37,4.26-3.44,1.12-.81,1.67-1.51,1.3-3.09s-.23-3.93,2.07-4c2.09-.12,4.37.72,4.91,3.19.73,3.35.22,5.69-2.24,7.36a30.55,30.55,0,0,0-4.38,3.32,3.8,3.8,0,0,0-1.25,2.92c.17.74,1.57,1.36,2.55,1.72,1.53.55,3.18.71,4.7,1.26C90.76,123.81,91.28,124.57,91.88,125.11Z" transform="translate(-0.23 -0.22)"/><path class="cls-3" d="M74.4,273A51,51,0,0,1,76,278.31l-4.4-.6a24.08,24.08,0,0,1,.47-4.38C72.19,273,74.31,272.78,74.4,273Z" transform="translate(-0.23 -0.22)"/><path class="cls-1" d="M75.05,251.58c-.27,3.3-.51,12.87-.76,16l-3.14,0c0-3.15-.06-12.87-.08-16.12Z" transform="translate(-0.23 -0.22)"/><path class="cls-6" d="M76.08,170.27c-3,2.94-6,5.8-8.91,8.65l-1.07-.32c0-3.41,0-6.83.09-10.24.06-1.66,1-2.13,2.56-1.37C71.07,168.12,73.44,169.1,76.08,170.27Z" transform="translate(-0.23 -0.22)"/><path class="cls-3" d="M72.5,101.72c.26,4.39-1.41,6.08-5.88,6-.67,0-1.35-.19-2.48-.35-2.23.1-4.94.35-7.63.31-.8,0-2.19-.73-2.29-1.3-.85-4.72-1.51-9.46-2.14-14.2-.22-1.64.53-2.44,2.28-2.53,3.91-.2,7.78-.68,11.68-.83,3-.11,5.41,2.35,5.82,5.69C72.17,96.91,72.34,99.32,72.5,101.72Z" transform="translate(-0.23 -0.22)"/><path class="cls-1" d="M53.64,215.12c-.35,2.56-.65,4.74-.92,6.68-2.09.54-4.08.95-6,1.57s-4,.94-4.79-1c-.46-1.18.42-3.24,1.29-4.51a6,6,0,0,1,6.5-2.66A19.26,19.26,0,0,0,53.64,215.12Z" transform="translate(-0.23 -0.22)"/><path class="cls-3" d="M52,206.43c.56,1.95-.67,3.23-2.74,3-3.36-.35-5.32-1.8-6.57-5.3a48.71,48.71,0,0,1-.89-30.3,17.27,17.27,0,0,1,6.36-9.51c-.55,3-1.67,5.93-1.45,8.71.68,8.39,1.75,16.77,2.92,25.11C50.06,201,51.24,203.67,52,206.43Z" transform="translate(-0.23 -0.22)"/></g></g></svg>