<svg xmlns="http://www.w3.org/2000/svg" viewBox="0 0 167.37 381.81"><defs><style>.cls-1{fill:#3e200f;}.cls-2{fill:#19306f;}.cls-3{fill:#a87d46;}.cls-4{fill:#fff;}.cls-5{fill:#d72e46;}.cls-6{fill:#231815;}.cls-7{stroke:#000;stroke-miterlimit:10;stroke-width:0.56px;}</style></defs><title>img07</title><g id="レイヤー_2" data-name="レイヤー 2"><g id="レイヤー_2-2" data-name="レイヤー 2"><path d="M127.73,245.46c-.31,3,.23,6.26-1.09,8.36-2,3.17-.73,5.91-.49,8.82.71,8.41,1.45,16.82,2.35,25.21.66,6.23,1.6,12.42,2.37,18.63.31,2.46.52,4.92.8,7.65l-3.47,1.55c.24,3.91.58,8.07.74,12.25.41,10.48.53,21,1.2,31.44.26,4,1.79,7.9,2.6,11.88.42,2.06.53,4.19.75,6-7.06,3.9-13.93,2.47-20.63,1.52-4.6-.65-6.53-3.88-6.06-8.54a6.59,6.59,0,0,1,.22-1.74c1.56-4.06,1.26-8.25,1.17-12.48-.29-12.8-.43-25.61-.62-38.61a20.18,20.18,0,0,0-2.18-.32c-3.57-.17-4-.53-5.25-4-2-5.65-4-11.28-6.2-17.65-1.66,4-1.33,7.56-1.81,11s-.76,7-1.15,10.63l-7.91.16c.24,6.81.87,13.34.53,19.9s-.5,13.4-.33,20.09a99.61,99.61,0,0,1-1.34,20.18c-7,1.41-13.94,2.85-20.89,4.21-4.22.82-7.66-1.09-9.95-5.4-3.25-6.14-2.69-8.13,3.48-11.51,2.55-1.39,5.23-2.54,7.74-3.75-1-15.23-2-30.31-3-45.5-4.56-1.51-6-5.14-5.71-9.54.73-13.26,1.67-26.51,2.31-39.78.26-5.36-.05-10.75-.1-16.13,0-.87-.14-1.75-.08-2.62,1-12.81,1.79-25.62,3-38.41.75-8,2.17-15.89,3.11-23.86.4-3.46.13-7,.56-10.46.32-2.53-.82-3.79-2.76-4.83-3.35-1.77-6.76-3.45-10-5.42a36.08,36.08,0,0,1-4.51-3.92,21.32,21.32,0,0,0-3-2.41c-8.55-5-17.21-9.87-25.69-15a148.21,148.21,0,0,1-12.89-9c-4-3-4.7-7.19-1.86-11.64,3-4.66,6.39-9,9.73-13.46q8.87-11.67,17.88-23.19c3.06-3.9,6.28-7.67,9.58-11.68-2.62-8.84-4.46-17.85-1.17-27.2,3.13-8.92,9-15.81,16.22-22.4-2.22-1-3.78-1.66-5.36-2.33-2.26-.94-2.7-2.42-1.33-4.72l5.7.6c.34-3.87-2.08-7.57.07-11.1,4.28.46,4.58.76,5,4.47.19,1.52.49,3,.84,5.13,1-1,1.84-1.51,2.22-2.21,1.92-3.56,5.33-5.18,8.64-7,16.25-9,33.34-8.89,50.59-4.11,10.67,3,19,9.73,26.4,18,9.9,11.11,12.93,24.49,13.82,38.7.54,8.65-2,16.74-5.66,24.36-1.67,3.44-4.72,6.23-7.19,9.27a30.84,30.84,0,0,1-2.57,2.49c5.61,4.72,5.81,10.74,3.38,16.48-2.14,5.06-6.77,7.8-12.58,8-5.7,11.27-11.32,22.65-23.27,29.29,8,.81,14.39,4.92,21.23,8a16.18,16.18,0,0,1,7.15,6.18c4.38,6.73,8.8,13.43,13.2,20.15,1,1.47,1.84,2.85,1.3,4.86-.23.85.56,2.15,1.2,3a71,71,0,0,1,9.62,18.1c1.69,4.79,1.45,9.13-3,12.51-6.59,5-12.92,10.5-19.83,15C138.7,240.9,133,242.94,127.73,245.46ZM85.55,70.7a6.38,6.38,0,0,0,1.28-.62c6.1-5,9.22-6.17,15.17,1.43a2.92,2.92,0,0,0,4.22.77,32.58,32.58,0,0,1,3.09-1.64c5.57-2.4,8.28-1.88,12.55,2.33.61.59,1.19,1.21,1.68,1.73,2.32-.1,4.32-2.15,6.46-.4,2.68,2.19,5.61,4.17,6.35,8,.64,3.21,1.45,6.38,2.23,9.8.64-.34,1.15-.57,1.61-.86,10.19-6.5,13.35-16.85,13.82-27.84.5-12-2.94-23.31-9-33.76a16.8,16.8,0,0,0-1.49-2.15c-8.14-10-17.93-17.27-31.07-19.6-14.2-2.53-27.82-2-40.73,5.18a23.67,23.67,0,0,0-7.82,6.83c-3.24,4.43-6.24,9-10.46,12.73C43,41.78,39.57,53.32,42.68,66.89A21.23,21.23,0,0,0,51.8,80.27,7.68,7.68,0,0,0,58,81.9c.41-3.9.74-7.81,1.27-11.69.31-2.3.92-4.59,3.64-5.27l6.23,4.18c2-1,3.64-1.7,5.13-2.56,2.68-1.53,5-1,7.16,1C82.73,68.69,84.18,69.66,85.55,70.7ZM55.69,142.28c-1.75,4.13-3.73,8-4.8,12.16-.58,2.22.31,3.86,2.5,5a101.83,101.83,0,0,1,11.42,6.4c2.8,1.92,5.63,4.36,3.4,8.56A4.83,4.83,0,0,0,68,176.1c-.74,7.41-1.36,14.83-2.26,22.23s-2.39,14.7-3,22.1C62,228.69,62,237,61.63,245.31a7.28,7.28,0,0,0,.41,1.75A59.43,59.43,0,0,0,68,248.7a275.48,275.48,0,0,0,38.23,3.9c5.45.18,10.49-1.58,15.71-2.94-1.33-8.6-2.84-16.91-3.86-25.28-.85-6.92-1-13.92-1.68-20.87-.66-7.3.66-14.72-1.9-21.95-1.31-3.69-.24-4.55,3.91-5.23a21.19,21.19,0,0,0,2.29-.66c4,5.49,7.94,10.9,11.85,16.34.77,1.05,1.34,2.63,2.94,2,4.42-1.72,9.12-3,12.66-6.37a4.72,4.72,0,0,0-.33-1.44q-6-9.17-12.05-18.28a6,6,0,0,0-1.39-1.68c-9.28-6.36-19.25-10.73-30.32-10.62-2.32,2.94-4.35,5.58-6.47,8.14a4.22,4.22,0,0,1-2,1.42,7.85,7.85,0,0,1-9.18-3.94c-1.71-3-3.19-6.13-4.55-8.77C72.72,150.08,64.43,146.33,55.69,142.28Zm8.72-69c-2,5.4,0,11.24-3.62,15.85-.13.17.07.57.07.85-.17,5.38-.22,10.76-.53,16.13-.59,10.28,2.55,19.54,7.61,28.24a20.62,20.62,0,0,0,4.94,5.44c7,5.6,15.27,6.82,23.9,6.67,10.58-.18,18.41-4.91,24.59-13.51,7.32-10.18,10.74-21.5,11.95-33.72a6.3,6.3,0,0,0-.22-2.06c-.45-1.76-1-3.5-1.46-5.27-1-4.14-.45-8.74-3.55-12.26-5.4,2.08-6.26,1.89-10.06-2.11a6.09,6.09,0,0,1-.58-.66c-1.47-2-3.32-2.12-5.4-1.11-1.44.71-2.82,1.55-4.3,2.16-3.81,1.6-6.66,1-9.5-2-1.19-1.25-2.3-2.58-3.74-4.21-1.29,1.1-2.34,2-3.44,2.91-3.24,2.59-5.69,2.66-9,.25-1.52-1.08-3-2.22-4.51-3.35-2.28,1.6-4.16,3.28-6.35,4.34C68.4,77.23,67,73.75,64.41,73.29ZM84.82,311.42c.77-7.29,1.43-14.12,2.25-20.92a29.78,29.78,0,0,1,1.5-6.82c1.15-3.16,3.79-3.47,5.7-.7a28.6,28.6,0,0,1,3.31,6.1c2.29,6.14,4.35,12.37,6.53,18.55.48,1.35.81,3,2.72,2.95,2.85-.07,5.7-.27,8.85-.44-.85-6.84-1.72-13-2.38-19.26-.92-8.83-1.64-17.68-2.56-26.51a44.55,44.55,0,0,0-1.23-5.49c-6.72-.36-12.85-.57-19-1.05s-12.11-1.25-18.51-1.92c-.15,1.39-.33,2.65-.4,3.92q-.45,7.86-.82,15.71Q70.1,291.26,69.4,307c-.05,1.12-.07,2.24-.12,3.66ZM42.19,80.19c-5.46,4.74-34.66,43-36.12,47.34,3.84,3.08,7.77,6.2,11.69,9.35.56.45,1,1.06,1.6,1.47,2.73,1.83,5.27,4.46,8.27,5.23a41.41,41.41,0,0,1,11,5.06l7,4.13,5.28-12.9c-1.23-.76-2.06-1.35-3-1.81-6.83-3.55-12.9-8.48-20.27-11.1-2.79-1-3.19-1.9-2.47-4.7a18.56,18.56,0,0,1,2.52-5.46c6.85-10.37,14.75-20,22-30.12ZM126.3,238.73a104.42,104.42,0,0,0,26.44-15.42c2.26-1.83,4.46-3.75,6.62-5.69a4.56,4.56,0,0,0,1.44-5.06c-1.89-7.22-6-13.09-10.51-19-1.55.75-2.86,1.32-4.11,2s-2.37,1.46-3.16,1.95c2.3,4.33,4.51,8.23,6.41,12.28a4,4,0,0,1-.3,3.55,25.09,25.09,0,0,1-5.51,4.77c-4.3,2.71-8.76,5.18-13.2,7.65-6.46,3.6-6,1.79-4.83,9.07C125.79,236.05,126,237.29,126.3,238.73Zm-72-129.19c-4.4-.51-6-4.5-8.69-7.67L31.46,121.68c.47.5.63.82.87.9,7.73,2.82,14.34,7.67,21.4,11.71,3.31,1.9,6.71,3.65,10.08,5.46l.64-.63C57.45,130.65,56.41,120.24,54.33,109.54Zm69.28,111.84c7.8-2.36,13.75-6.65,19.74-11-1-2.1-1.85-4-2.83-5.74-.79-1.42-1.81-2.83-3.73-2.5-4.28.75-6.27-1.82-8.17-5.05a93.74,93.74,0,0,0-5.68-7.86l-.88.4A267.89,267.89,0,0,0,123.61,221.38Zm-61.86,32c-.16,1.52-.33,2.5-.36,3.49-.16,6.1-.13,12.22-.47,18.31-.56,10.32-1.37,20.63-2,30.94-.2,3.17.08,3.35,3.66,3.22,1.55-6.69,4-50.59,3-54.88Zm5.1,100.43c3.86-2.86,7.12-3.08,10.93-.7.13-7.17.24-13.74.36-20.54-4.54-.34-8.47-1.14-12.5-.05C66.05,339.62,66.42,346.24,66.85,353.8ZM125,309.34c-1.86-17.55-3.66-34.51-5.49-51.77l-4,.76c2,17.31,2.71,34.53,5.9,51.73Zm-.84,41.19q-.33-8.55-.66-17.15c-3.77-1.24-7-.54-10.19.4.22,6.61.43,12.71.63,18.8Zm-52,7.31c-.85,1.35-1.29,1.91-1.58,2.53-1.68,3.6-4.18,6.18-8.15,7.28a19.57,19.57,0,0,0-4.28,2.11c-1.3.74-2.55,1.68-1.85,3.45a3,3,0,0,0,3.78,2.08c3.85-.71,7.75-1.17,11.6-1.88A43,43,0,0,0,76.43,372C78.12,366.29,75.74,362.28,72.14,357.84Zm-7-31.53,13-.1c-.21-3.38-.39-6.34-.58-9.56L64.84,316C65,319.53,65.05,322.66,65.16,326.31Zm62.13,47.08c-1.4-4.45-2.58-8.27-3.81-12.07-.61-1.9-1.78-3.58-3.82-3.7-2.2-.12-3.83,1.41-4.72,3.34a24.78,24.78,0,0,0-2.09,11.62A39.19,39.19,0,0,0,127.29,373.39Zm-14.07-45.81,9.81-.5c-.24-3.9-.46-7.29-.7-11.16l-9.3.4C113.09,320.11,113.15,323.51,113.22,327.58Zm25.05-213.52c4.95-3.16,6.61-6,5.76-9.38-.55-2.21-1.7-3.55-4.44-3.06Zm-46,46.45c2.61-2.29,4.64-4,5.34-7.11l-9.44-.1ZM53.88,102.66c1.21-2.26,1.5-7.21.69-11.66C49.81,93.68,49.59,97.41,53.88,102.66Z"/><path class="cls-1" d="M85.55,70.7c-1.37-1-2.82-2-4.12-3.15-2.2-2-4.48-2.52-7.16-1-1.49.86-3.09,1.55-5.13,2.56l-6.23-4.18c-2.72.68-3.33,3-3.64,5.27C58.74,74.09,58.41,78,58,81.9a7.68,7.68,0,0,1-6.2-1.63,21.23,21.23,0,0,1-9.12-13.38c-3.11-13.57.3-25.11,10.79-34.3,4.22-3.7,7.22-8.3,10.46-12.73A23.67,23.67,0,0,1,71.75,13c12.91-7.2,26.53-7.71,40.73-5.18,13.14,2.33,22.93,9.56,31.07,19.6A16.8,16.8,0,0,1,145,29.6c6,10.45,9.47,21.79,9,33.76-.47,11-3.63,21.34-13.82,27.84-.46.29-1,.52-1.61.86-.78-3.42-1.59-6.59-2.23-9.8-.74-3.79-3.67-5.77-6.35-8-2.14-1.75-4.14.3-6.46.4-.49-.52-1.07-1.14-1.68-1.73-4.27-4.21-7-4.73-12.55-2.33a32.58,32.58,0,0,0-3.09,1.64,2.92,2.92,0,0,1-4.22-.77c-6-7.6-9.07-6.41-15.17-1.43A6.38,6.38,0,0,1,85.55,70.7Zm43.68-9.88a4.45,4.45,0,0,0-3.89-3.51c-4.71-.63-8.91-2.16-11.84-6.35-1.34-1.92-3.28-1.39-4.45.66-.92,1.6-.17,2.74.69,4,3.62,5.11,8.82,7.21,14.81,8C127,63.89,128.47,63.16,129.23,60.82Z"/><path class="cls-2" d="M55.69,142.28c8.74,4.05,17,7.8,26.13,10.2,1.36,2.64,2.84,5.77,4.55,8.77a7.85,7.85,0,0,0,9.18,3.94,4.22,4.22,0,0,0,2-1.42c2.12-2.56,4.15-5.2,6.47-8.14,11.07-.11,21,4.26,30.32,10.62a6,6,0,0,1,1.39,1.68q6.06,9.12,12.05,18.28a4.72,4.72,0,0,1,.33,1.44c-3.54,3.42-8.24,4.65-12.66,6.37-1.6.62-2.17-1-2.94-2-3.91-5.44-7.86-10.85-11.85-16.34a21.19,21.19,0,0,1-2.29.66c-4.15.68-5.22,1.54-3.91,5.23,2.56,7.23,1.24,14.65,1.9,21.95.64,7,.83,14,1.68,20.87,1,8.37,2.53,16.68,3.86,25.28-5.22,1.36-10.26,3.12-15.71,2.94A275.48,275.48,0,0,1,68,248.7,59.43,59.43,0,0,1,62,247.06a7.28,7.28,0,0,1-.41-1.75c.32-8.3.39-16.62,1.11-24.88.64-7.4,2.13-14.72,3-22.1S67.29,183.51,68,176.1a4.83,4.83,0,0,1,.18-1.73c2.23-4.2-.6-6.64-3.4-8.56a101.83,101.83,0,0,0-11.42-6.4c-2.19-1.11-3.08-2.75-2.5-5C52,150.24,53.94,146.41,55.69,142.28Z"/><path class="cls-3" d="M64.41,73.29c2.58.46,4,3.94,6.75,2.59,2.19-1.06,4.07-2.74,6.35-4.34,1.52,1.13,3,2.27,4.51,3.35,3.36,2.41,5.81,2.34,9-.25,1.1-.88,2.15-1.81,3.44-2.91,1.44,1.63,2.55,3,3.74,4.21,2.84,3,5.69,3.59,9.5,2,1.48-.61,2.86-1.45,4.3-2.16,2.08-1,3.93-.89,5.4,1.11a6.09,6.09,0,0,0,.58.66c3.8,4,4.66,4.19,10.06,2.11,3.1,3.52,2.56,8.12,3.55,12.26.43,1.77,1,3.51,1.46,5.27a6.3,6.3,0,0,1,.22,2.06c-1.21,12.22-4.63,23.54-11.95,33.72-6.18,8.6-14,13.33-24.59,13.51-8.63.15-16.92-1.07-23.9-6.67a20.62,20.62,0,0,1-4.94-5.44c-5.06-8.7-8.2-18-7.61-28.24.31-5.37.36-10.75.53-16.13,0-.28-.2-.68-.07-.85C64.4,84.53,62.44,78.69,64.41,73.29ZM67.7,91.53a90.18,90.18,0,0,0,1.71,9.33c1.52,5.21,6.1,6.76,10.71,7.73,3,.64,5.43-1.27,7-3.54,3.76-5.31,5.44-11.19,3.51-17.68-1.31-4.42-6.55-8.73-10.4-7.85C73,81.19,68.93,82.73,67.7,91.53ZM115.85,86c-5.38-.56-11.55,3.8-12.67,9.22a28.64,28.64,0,0,0-.77,8.22c.21,2.34.83,5.28,2.39,6.73,4.8,4.45,11.23,4.93,16.39.19,2.79-2.57,3.58-5.83,4.55-9.18C127.91,93.72,123.47,86.83,115.85,86Zm-30.4,41.31c1.7,3.51,4.23,5.25,7.62,4.74a49.79,49.79,0,0,0,9.23-2.35c3.56-1.27,3.67-2,1.56-6-3,.82-6.1,1.53-9.09,2.54S88.49,124.42,85.45,127.33Zm.84-15.63c1.61,2.1,3,4,4.42,5.78,1.59,2,3.29,2.15,5.42-.14L93.92,112c1.34-1.57,3-3.35,1.09-5.82C90.79,105.68,89.33,109.26,86.29,111.7Z"/><path class="cls-2" d="M84.82,311.42l-15.54-.78c0-1.42.07-2.54.12-3.66q.7-15.72,1.43-31.44.38-7.85.82-15.71c.07-1.27.25-2.53.4-3.92,6.4.67,12.44,1.44,18.51,1.92s12.23.69,19,1.05a44.55,44.55,0,0,1,1.23,5.49c.92,8.83,1.64,17.68,2.56,26.51.66,6.22,1.53,12.42,2.38,19.26-3.15.17-6,.37-8.85.44-1.91.05-2.24-1.6-2.72-2.95-2.18-6.18-4.24-12.41-6.53-18.55a28.6,28.6,0,0,0-3.31-6.1c-1.91-2.77-4.55-2.46-5.7.7a29.78,29.78,0,0,0-1.5,6.82C86.25,297.3,85.59,304.13,84.82,311.42Z"/><path class="cls-3" d="M42.19,80.19l7.55,6.49c-7.24,10.14-15.14,19.75-22,30.12a18.56,18.56,0,0,0-2.52,5.46c-.72,2.8-.32,3.7,2.47,4.7,7.37,2.62,13.44,7.55,20.27,11.1.89.46,1.72,1.05,3,1.81l-5.28,12.9-7-4.13a41.41,41.41,0,0,0-11-5.06c-3-.77-5.54-3.4-8.27-5.23-.59-.41-1-1-1.6-1.47-3.92-3.15-7.85-6.27-11.69-9.35C7.53,123.15,36.73,84.93,42.19,80.19Z"/><path class="cls-3" d="M126.3,238.73c-.26-1.44-.51-2.68-.71-3.93-1.14-7.28-1.63-5.47,4.83-9.07,4.44-2.47,8.9-4.94,13.2-7.65a25.09,25.09,0,0,0,5.51-4.77,4,4,0,0,0,.3-3.55c-1.9-4-4.11-7.95-6.41-12.28.79-.49,1.94-1.28,3.16-1.95s2.56-1.26,4.11-2c4.52,5.95,8.62,11.82,10.51,19a4.56,4.56,0,0,1-1.44,5.06c-2.16,1.94-4.36,3.86-6.62,5.69A104.42,104.42,0,0,1,126.3,238.73Z"/><path class="cls-4" d="M61.75,253.37l3.8,1.08c1,4.29-1.44,48.19-3,54.88-3.58.13-3.86-.05-3.66-3.22.65-10.31,1.46-20.62,2-30.94.34-6.09.31-12.21.47-18.31C61.42,255.87,61.59,254.89,61.75,253.37Z"/><path class="cls-5" d="M66.85,353.8c-.43-7.56-.8-14.18-1.21-21.29,4-1.09,8-.29,12.5.05-.12,6.8-.23,13.37-.36,20.54C74,350.72,70.71,350.94,66.85,353.8Z"/><path class="cls-4" d="M125,309.34l-3.55.72c-3.19-17.2-3.85-34.42-5.9-51.73l4-.76C121.37,274.83,123.17,291.79,125,309.34Z"/><path class="cls-5" d="M124.19,350.53,114,352.58c-.2-6.09-.41-12.19-.63-18.8,3.18-.94,6.42-1.64,10.19-.4Q123.86,342,124.19,350.53Z"/><path d="M72.14,357.84c3.6,4.44,6,8.45,4.29,14.13a43,43,0,0,1-4.77,1.44c-3.85.71-7.75,1.17-11.6,1.88a3,3,0,0,1-3.78-2.08c-.7-1.77.55-2.71,1.85-3.45a19.57,19.57,0,0,1,4.28-2.11c4-1.1,6.47-3.68,8.15-7.28C70.85,359.75,71.29,359.19,72.14,357.84Z"/><path class="cls-3" d="M65.16,326.31c-.11-3.65-.21-6.78-.32-10.33l12.7.67c.19,3.22.37,6.18.58,9.56Z"/><path d="M127.29,373.39a39.19,39.19,0,0,1-14.44-.81A24.78,24.78,0,0,1,114.94,361c.89-1.93,2.52-3.46,4.72-3.34,2,.12,3.21,1.8,3.82,3.7C124.71,365.12,125.89,368.94,127.29,373.39ZM114.17,366l.49,1.39a33.32,33.32,0,0,0,5.65,1.27,2.43,2.43,0,0,0,1.54-4.5A7.91,7.91,0,0,0,117.1,363C116,363.23,115.13,365,114.17,366Z"/><path class="cls-3" d="M113.22,327.58c-.07-4.07-.13-7.47-.19-11.26l9.3-.4c.24,3.87.46,7.26.7,11.16Z"/><path class="cls-3" d="M138.27,114.06l1.32-12.44c2.74-.49,3.89.85,4.44,3.06C144.88,108.11,143.22,110.9,138.27,114.06Z"/><path class="cls-3" d="M92.29,160.51l-4.1-7.21,9.44.1C96.93,156.52,94.9,158.22,92.29,160.51Z"/><path class="cls-3" d="M53.88,102.66c-4.29-5.25-4.07-9,.69-11.66C55.38,95.45,55.09,100.4,53.88,102.66Z"/><path d="M129.23,60.82c-.76,2.34-2.24,3.07-4.68,2.75-6-.79-11.19-2.89-14.81-8-.86-1.21-1.61-2.35-.69-4,1.17-2,3.11-2.58,4.45-.66,2.93,4.19,7.13,5.72,11.84,6.35A4.45,4.45,0,0,1,129.23,60.82Z"/><path d="M67.7,91.53c1.23-8.8,5.32-10.34,12.58-12,3.85-.88,9.09,3.43,10.4,7.85,1.93,6.49.25,12.37-3.51,17.68-1.62,2.27-4,4.18-7,3.54-4.61-1-9.19-2.52-10.71-7.73A90.18,90.18,0,0,1,67.7,91.53Zm10.16-5c1.71,2.44,3.82,4.52,3.44,8s-3,5-5.42,6.79c3.79,2.18,4.94,2.17,7.05-.34a13.3,13.3,0,0,0,2.88-11C85.17,86.08,81.92,84.73,77.86,86.51Z"/><path d="M115.85,86c7.62.81,12.06,7.7,9.89,15.18-1,3.35-1.76,6.61-4.55,9.18-5.16,4.74-11.59,4.26-16.39-.19-1.56-1.45-2.18-4.39-2.39-6.73a28.64,28.64,0,0,1,.77-8.22C104.3,89.82,110.47,85.46,115.85,86Zm-6.5,20.6c.92.49,1.39.92,1.9,1a8.84,8.84,0,0,0,9.11-11.53c-1.25-3.78-4.62-5-8-3C115.62,99.32,114.93,102.85,109.35,106.62Z"/><path d="M85.45,127.33c3-2.91,6.35,0,9.32-1s6.09-1.72,9.09-2.54c2.11,3.9,2,4.68-1.56,6a49.79,49.79,0,0,1-9.23,2.35C89.68,132.58,87.15,130.84,85.45,127.33Z"/><path d="M86.29,111.7c3-2.44,4.5-6,8.72-5.53,1.92,2.47.25,4.25-1.09,5.82l2.21,5.35c-2.13,2.29-3.83,2.19-5.42.14C89.29,115.65,87.9,113.8,86.29,111.7Z"/><path class="cls-6" d="M114.17,366c1-1.05,1.81-2.77,2.93-3a7.91,7.91,0,0,1,4.75,1.14,2.43,2.43,0,0,1-1.54,4.5,33.32,33.32,0,0,1-5.65-1.27Z"/><path class="cls-4" d="M77.86,86.51c4.06-1.78,7.31-.43,8,3.5a13.3,13.3,0,0,1-2.88,11c-2.11,2.51-3.26,2.52-7.05.34,2.45-1.82,5-3.25,5.42-6.79S79.57,89,77.86,86.51Z"/><path class="cls-4" d="M109.35,106.62c5.58-3.77,6.27-7.3,3-13.54,3.37-2.06,6.74-.8,8,3a8.84,8.84,0,0,1-9.11,11.53C110.74,107.54,110.27,107.11,109.35,106.62Z"/><path class="cls-7" d="M91.2,201.13l-5.31-.56c-.14,1.4-.23,2.61-.41,3.8a18,18,0,0,1-.64,2.82,2.07,2.07,0,0,1-2.48,1.5c-1.83-.29-3.67-.59-5.49-.95s-2.24-1.68-2.34-3.15c-.18-2.55-.23-5.11-.26-7.66,0-2.09,0-4.19.07-6.28,0-1.62.62-2.35,2.24-2.24,5.2.34,10.41.72,15.6,1.22,3.52.34,7,1.06,10.53,1.31,2,.14,3.15,1.45,4.31,2.67a2.83,2.83,0,0,1,.15,2.45c-2.47,5.85-5.07,11.63-7.57,17.47-1.64,3.81-3.15,7.67-4.74,11.5-.91,2.18-1.56,2.37-3.54,1.32a5.31,5.31,0,0,0-2.16-.61c-1.59-.07-3.19.07-4.77,0a4.62,4.62,0,0,1-2.27-.5c-3-1.91-3-2.91-1.17-5.94,3.29-5.43,6.41-11,9.59-16.47A11.89,11.89,0,0,0,91.2,201.13Zm.6,21c3.67-9,7.94-17.85,11.57-27.21a171.3,171.3,0,0,0-25.75-2.61c0,4-.33,7.84.14,11.88l3.61.64c.38-2.18.7-4,1-5.8a1.77,1.77,0,0,1,1.5-1.57c3-.83,6-.34,8.92.21,1.66.31,3.06,3.81,2.23,5.29-2.67,4.77-5.4,9.5-8.12,14.24-.9,1.58-1.83,3.15-3,5.14Z"/><path class="cls-4" d="M91.8,222.16l-7.9.21c1.17-2,2.1-3.56,3-5.14,2.72-4.74,5.45-9.47,8.12-14.24.83-1.48-.57-5-2.23-5.29-2.94-.55-5.91-1-8.92-.21a1.77,1.77,0,0,0-1.5,1.57c-.3,1.81-.62,3.62-1,5.8l-3.61-.64c-.47-4-.09-7.87-.14-11.88A171.3,171.3,0,0,1,103.37,195C99.74,204.31,95.47,213.15,91.8,222.16Z"/></g></g></svg>