<svg viewBox="0 0 259.38 463.86" xmlns="http://www.w3.org/2000/svg"><path d="m180.38 390.42c2.42 11.72 4.7 22.64 6.91 33.56.35 1.69.35 3.45.6 5.16.31 2.08.7 4.16 1.09 6.23a7 7 0 0 0 .5 1.21c5.31 13.17 1.16 20.64-13 23.32-1.72.33-3.48.55-5.16 1a20.18 20.18 0 0 1 -16.41-2.3c-10 7.14-20.9 5.57-31.78 3.51-2.42-.46-4-1.79-4-4.43-.2-22.61-7.69-44.28-8.24-67.59-5.35-.74-10.47-1.36-15.56-2.18-8-1.29-16-2.42-23.93-4.21-4.18-1-8.17-3-12.09-4.84-4.44-2.12-5.41-6.68-6.47-10.88-.28-1.12.73-3 1.7-3.92 12-12.06 21-26.34 30.68-40.18 2-2.87 2.48-5.41.38-8.32-.63-.88-.84-2.06-1.48-2.92-13.34-17.89-11.2-36.44-2.26-55.18a76.58 76.58 0 0 1 20.7-26.85 29.61 29.61 0 0 1 4-2.18c-5.54-1.82-9.18-2.95-12.78-4.22-2.26-.8-4.48-1.76-6.68-2.72-4.69-2.06-7.94-5.22-8.62-10.64-.38-3-1.3-5.94-2.13-9.57a44.88 44.88 0 0 0 -7.06.06c-8.48 1.39-16.56-1-24.73-2.44-5.81-1-11.53-2.52-17.31-3.71a29.08 29.08 0 0 1 -17.81-11.12c-10.54-13.39-11.22-27.84-7.07-43.4 6.63-24.74 19.47-46.35 33.7-67.22 8.14-11.93 16.37-23.91 25.74-34.85 8.19-9.6 17.92-17.99 27.29-26.55 6.41-5.85 14.07-9 22.83-10.73 10.57-2.04 20.91-1.32 31.36-.49a30.44 30.44 0 0 1 14.13 4.9 190.24 190.24 0 0 1 20.76 15.76c16 13.59 27 30.92 38.92 47.68q14.43 20.37 28.37 41.07c5.38 8 9.93 16.5 12.33 26 2.22 8.72 2.27 17.36-.89 25.87a20.12 20.12 0 0 1 -2.57 5.29c-10.91 14.28-24.33 24.46-43 25.84-1.49.12-3 .31-4.34.46-5.24 22.24-8 25.66-29.34 30.69 4.41 5.36 8.65 11 13.44 16.21 6.8 7.33 10 16.38 12.95 25.54 2.24 7.06 4.56 14.31 5.18 21.61 1 11.56-2.16 22.14-11.73 29.9-2.17 1.76-4.25 3.64-6.68 5.73 6 13.44 12.57 26.48 21.77 38 .27.35.58.66.86 1 6 7.36 5.77 9-2 14.38-8.35 5.8-17.12 10.62-27.32 12.31a22.84 22.84 0 0 0 -3.75 1.35zm8.56-205.67c7-.33 13.06-.63 19.15-.9 13.24-.58 25-4.35 33.36-15.46a5.55 5.55 0 0 1 1.48-1.29c3.74-2.31 4.95-6.08 5.51-10 1.51-10.7.34-21-5.15-30.54-3-5.12-5.88-10.29-9.23-15.15-12.7-18.41-25.46-36.77-38.44-54.96a168.06 168.06 0 0 0 -14.14-17.26 160.79 160.79 0 0 0 -17.63-16.71c-8.61-6.78-17.85-12.76-29.54-12.78-4.17 0-8.35-.32-12.5 0-11.54.85-22.21 3.58-30.95 12.21-10.77 10.61-22.06 20.72-30.86 33.16-5.8 8.22-11.29 16.67-17 25-13.62 19.75-25 40.59-31.84 63.76-2.86 9.65-3.27 19.32 1 28.25 3.7 7.83 8.63 15.49 19.25 15.57a26.83 26.83 0 0 1 7.73 1.47c17.32 5.49 35 4.61 52.75 3.38 1.72-.11 3.39-.75 6.3-1.43-6.18-2.77-11-4.72-15.7-7.08-10.37-5.23-16.64-13.16-16.66-25.38 0-5.82 2.19-10.33 6.81-13.41 4.34-2.9 9.09-5.21 13.71-7.67 7.34-3.89 14.82-7.52 22-11.6a15.55 15.55 0 0 0 7.83-10.93c.91-4.93 1.57-9.91 2.23-14.88.26-2 .45-4.45 2.78-4.57a9.74 9.74 0 0 1 5.82 2c1.48 1.11 2.12 3.27 3.28 4.86 6.84 9.38 14.29 17.89 27 19.11 3 .3 6 1 9.08 1.37 23.67 2.86 37.76 33.82 27.17 51.9-1.77 2.89-2.91 6.21-4.6 9.96zm-46.56 55.73a12.64 12.64 0 0 1 -13.89 1.75c-5.35-2.41-5.86-8.26-7.73-13.14a19.08 19.08 0 0 1 -3.47 2.36c-10.46 3.9-17.12 11.91-22.63 21.05-5.22 8.63-10.3 17.38-10.85 27.84-.57 10.81.07 21.29 8.88 30.06 1.6-2.77 3-5.17 4.37-7.63 5.81-10.71 9.8-22 10.08-34.32.06-2.89 1.41-4.7 4.4-4.42 2.82.26 3.24 2.48 3.16 4.86-.27 8.13-1 16.21-4.46 23.71-3.86 8.32-7.7 16.67-12 24.77a240.75 240.75 0 0 1 -31.6 45.87 90.34 90.34 0 0 0 -5.49 7.81c3 1.26 5.14 2.56 7.42 3q13.5 2.64 27.11 4.81a367.29 367.29 0 0 0 59.52 4.79c15.76-.06 30.92-2.86 45.28-9.41 2.46-1.12 4.52-3.12 7-4.9-1.47-2.25-2.51-3.87-3.57-5.48-16.08-24.57-29.53-50.2-32.38-80.12-.48-5-1.17-10-1.64-15-.18-1.9.45-3.84 2.72-3.57a6.43 6.43 0 0 1 4 2.37 11.45 11.45 0 0 1 1.53 5c.79 5.64 1.26 11.32 2.15 16.94 1.4 8.75 2.68 17.57 7.35 25.83 3-3.42 6.45-6.12 8.14-9.67 4-8.41 6.3-17.29 2.76-26.65a49.44 49.44 0 0 1 -2.11-6.9 71.23 71.23 0 0 0 -16.67-33c-3.8-4.24-8.39-6.61-13.49-8.55-4.65 12.46-10.98 15.11-23.89 9.94zm35.3-103c.18 1.74.19 2.61.38 3.45 1.9 8.57-.74 15.88-5.88 22.68-7.08 9.39-23.53 7.22-26.37-3.81a81 81 0 0 1 -2.14-10.17c-1-7.82 2.32-14.43 6.88-20.86-10.43-3.51-17.31-11.13-24-19-2.52 6.49-4.76 12.26-7.1 18.27a16.29 16.29 0 0 1 10.61 8.58c3.73 7.78 1.62 21.59-4.29 27.9-6.84 7.3-18.29 7.07-23.12-1-1.9-3.17-2.28-7.42-2.74-11.25s-.09-7.59-.09-12.13c-7.19 3.43-14 6.35-20.5 9.89-5.07 2.76-6 6.09-4.76 11.59 1.44 6.38 4.78 11.38 10.7 14.2 5.12 2.46 10.42 4.52 15.65 6.76l9.38 4c-1.45 2.46-3 4.17-3.5 6.15-1 4.41-4 5.92-8 6.58-4.47.74-8.91 1.62-13.66 2.49.28 5.46-.14 11 5.85 13 5.77 1.92 11.86 4.06 17.82 4.06 24.52 0 49.06-.63 73.31-5 9.87-1.78 15.54-10.3 13.56-21.27-2.28.35-4.6.61-6.88 1.08-1.92.39-3.77 1.24-5.7 1.53-5.57.8-7.74-2-5.49-7.24 2.52-5.83 5.25-11.57 7.83-17.37 5.18-11.59 2.09-25.72-7.75-33.12zm-24.37 255.62h-12.31c0 11.76.09 23.07 0 34.38-.07 6.32 1.48 11.43 7.77 14.33 2 .94 3.64 2.85 5.44 4.32 2.82-2.57 5.37-4.91 8-7.27-3.05-15.25-5.95-30.38-8.9-45.76zm-34.87-1.32c1.4 9.68 2.75 19 4.09 28.2 2.26 0 3.77.11 5.26 0 1.65-.15 3.28-.52 4.18-.67v-27.53zm58.73 27.16c-2.14-9.62-4-18.26-6.12-27.59l-8.54 1.65c1.74 9.24 3.34 17.74 5.05 26.86zm-21.61-259.65c2.2 3.47 4.69 2.6 7.05 1.37 6.31-3.3 9.31-13.27 5.83-19.55-2-3.6-5.53-4.82-9.39-5.1-3.28-.24-4.52 1.83-5.18 5.11 4.49 1.35 9.36 2.19 9.35 8.37 0 5.27-2.49 8.51-7.66 9.8zm-38.42-22.29-1.33 1.14c2.71 3.79 2.47 7.69 1.32 11.89-1.33 4.81-5.39 6.36-9.64 8 5.21 4.52 7.51 4.71 11.3 1.47 4.71-4 6.46-13.55 3.09-18.68-1.06-1.61-3.13-2.57-4.74-3.82zm44.23 314.64c5.62 1.14 13.55.44 17.57-1.3 4.64-2 5-3.06 2.49-8.79-7.54.98-15.5 1.09-20.06 10.08zm-33.31 2.36c6.38 1.71 12.34 1.9 18.54-.36-5.82-8.21-8.87-9.28-18.54-6.73zm-2.71-16.9h7.92l-.56-8.24-8.53-.4c.43 3.21.82 5.72 1.17 8.65zm30.65-209.94h-8.61c1 6.6 2.32 8.64 5.31 7.91 4.06-.99 3.63-4.26 3.3-7.91zm-21.08 9.5 4.35-8.79h-8.86c-.49 3.61.22 6.31 4.49 8.79zm44 191.22-8.9 1.28c1.68 5.68 2.43 5.91 9.26 3.3-.07-1.19-.16-2.46-.28-4.58z"/><path d="m188.94 184.75c1.69-3.77 2.83-7.07 4.55-10 10.59-18.08-3.5-49-27.17-51.9-3-.37-6-1.07-9.08-1.37-12.66-1.22-20.11-9.73-27-19.11-1.16-1.59-1.8-3.75-3.28-4.86a9.74 9.74 0 0 0 -5.82-2c-2.33.12-2.52 2.54-2.78 4.57-.66 5-1.32 10-2.23 14.88a15.55 15.55 0 0 1 -7.82 10.91c-7.22 4.08-14.7 7.71-22 11.6-4.61 2.53-9.31 4.79-13.7 7.69-4.62 3.08-6.81 7.59-6.81 13.41 0 12.22 6.29 20.15 16.66 25.38 4.66 2.36 9.52 4.31 15.7 7.08-2.91.68-4.58 1.32-6.3 1.43-17.73 1.23-35.43 2.11-52.75-3.38a26.83 26.83 0 0 0 -7.73-1.47c-10.62-.08-15.55-7.74-19.25-15.57-4.23-8.93-3.82-18.6-1-28.25 6.87-23.17 18.26-44.01 31.87-63.79 5.72-8.29 11.21-16.74 17-25 8.8-12.37 20.09-22.48 30.86-33.11 8.74-8.63 19.41-11.36 31-12.21 4.15-.3 8.33 0 12.5 0 11.67 0 20.93 6 29.54 12.78a160.79 160.79 0 0 1 17.63 16.71 168.06 168.06 0 0 1 14.14 17.26c13 18.19 25.74 36.53 38.44 54.92 3.35 4.86 6.27 10 9.23 15.15 5.49 9.52 6.66 19.84 5.15 30.54-.56 4-1.77 7.73-5.51 10a5.55 5.55 0 0 0 -1.48 1.29c-8.37 11.11-20.12 14.88-33.36 15.46-6.14.33-12.22.63-19.2.96zm-16.52-82c1.53-1.27 3.72-2.23 4-3.61s-.74-3.68-1.88-5c-.85-1-2.73-1.26-4.21-1.46-4.57-.62-9.17-.83-12-5.46-.51-.82-3.45-1.3-3.93-.76-1.14 1.29-2.47 3.74-1.94 4.91 1.11 2.44 3 5.19 5.26 6.3 4.43 2.21 9.38 3.33 14.7 5.1z" fill="#e2c851"/><path d="m142.38 240.48c12.91 5.17 19.24 2.52 23.94-10 5.1 1.94 9.69 4.31 13.49 8.55a71.23 71.23 0 0 1 16.67 33 49.44 49.44 0 0 0 2.11 6.9c3.54 9.36 1.27 18.24-2.76 26.65-1.69 3.55-5.18 6.25-8.14 9.67-4.67-8.26-5.95-17.08-7.35-25.83-.89-5.62-1.36-11.3-2.15-16.94a11.45 11.45 0 0 0 -1.53-5 6.43 6.43 0 0 0 -4-2.37c-2.27-.27-2.9 1.67-2.72 3.57.47 5 1.16 10 1.64 15 2.85 29.92 16.3 55.55 32.38 80.12 1.06 1.61 2.1 3.23 3.57 5.48-2.51 1.78-4.57 3.78-7 4.9-14.36 6.55-29.52 9.35-45.28 9.41a367.29 367.29 0 0 1 -59.52-4.79q-13.59-2.17-27.11-4.81c-2.28-.44-4.39-1.74-7.42-3a90.34 90.34 0 0 1 5.49-7.81 240.75 240.75 0 0 0 31.6-45.87c4.3-8.1 8.14-16.45 12-24.77 3.48-7.5 4.19-15.58 4.46-23.71.08-2.38-.34-4.6-3.16-4.86-3-.28-4.34 1.53-4.4 4.42-.28 12.35-4.27 23.61-10.08 34.32-1.33 2.46-2.77 4.86-4.37 7.63-8.81-8.77-9.45-19.25-8.88-30.06.55-10.46 5.63-19.21 10.85-27.84 5.51-9.14 12.17-17.15 22.63-21.05a19.08 19.08 0 0 0 3.47-2.36c1.87 4.88 2.38 10.73 7.73 13.14a12.64 12.64 0 0 0 13.84-1.69z" fill="#b1dae6"/><path d="m177.68 137.47c9.84 7.4 12.93 21.49 7.78 33.12-2.58 5.8-5.31 11.54-7.83 17.37-2.25 5.19-.08 8 5.49 7.24 1.93-.29 3.78-1.14 5.7-1.53 2.28-.47 4.6-.73 6.88-1.08 2 11-3.69 19.49-13.56 21.27-24.25 4.37-48.79 5-73.31 5-6 0-12-2.14-17.82-4.06-6-2-5.57-7.54-5.85-13 4.75-.87 9.19-1.75 13.66-2.49 4-.66 6.93-2.17 8-6.58.46-2 2-3.69 3.5-6.15l-9.38-4c-5.23-2.24-10.53-4.3-15.65-6.76-5.95-2.82-9.29-7.82-10.71-14.17-1.24-5.5-.31-8.83 4.76-11.59 6.49-3.54 13.31-6.46 20.5-9.89 0 4.54-.35 8.38.09 12.13s.84 8.08 2.74 11.25c4.83 8.07 16.28 8.3 23.12 1 5.91-6.31 8-20.12 4.29-27.9a16.29 16.29 0 0 0 -10.61-8.58c2.34-6 4.58-11.78 7.1-18.27 6.67 7.83 13.55 15.45 24 19-4.56 6.43-7.84 13-6.88 20.86a81 81 0 0 0 2.14 10.17c2.84 11 19.29 13.2 26.37 3.81 5.14-6.8 7.78-14.11 5.88-22.68-.21-.88-.22-1.75-.4-3.49zm-39.09 60.26c3.32-1.14 7.84-2.56 12.25-4.23 2.22-.84 3.58-2.43 2.53-5.12a4.83 4.83 0 0 0 -5.6-3.38 6.26 6.26 0 0 0 -2.4.9 22.93 22.93 0 0 1 -16.26 2.88 4.17 4.17 0 0 0 -3.58 1.63c-.48 1.07 0 3 .74 4.09a5.3 5.3 0 0 0 3.17 1.95c2.56.55 5.12.75 9.15 1.28zm-.72-28.18a19.25 19.25 0 0 0 2.14-1c2.19-1.29 3.18-3.12 1.5-5.37s-3.93-2.46-6.28-.79-5.12 3.34-7.44 5.29-2.6 5.7-.32 7.42a30.76 30.76 0 0 0 7.92 4.31c2.54.93 5.33.66 6.67-2.32s-.7-4.36-3-5.56c-.25-.14-.37-.62-1.19-1.98z" fill="#fae4cd"/><path d="m118.44 391.78h13.56v27.51c-.9.15-2.53.52-4.18.67-1.49.13-3 0-5.26 0-1.37-9.19-2.72-18.5-4.12-28.18z" fill="#fae4cd"/><path d="m177.17 418.94-9.61.95c-1.71-9.12-3.31-17.62-5.05-26.86l8.54-1.68c2.07 9.33 3.95 17.97 6.12 27.59z" fill="#fae4cd"/><path d="m155.56 159.29c5.17-1.28 7.66-4.53 7.66-9.8 0-6.18-4.86-7-9.35-8.37.66-3.28 1.9-5.35 5.18-5.11 3.86.28 7.4 1.5 9.39 5.1 3.48 6.28.48 16.25-5.83 19.55-2.36 1.23-4.85 2.1-7.05-1.37z" fill="#fff"/><path d="m117.14 137c1.61 1.26 3.68 2.22 4.74 3.84 3.37 5.13 1.62 14.65-3.09 18.68-3.79 3.24-6.09 3.05-11.3-1.47 4.25-1.66 8.31-3.21 9.64-8 1.15-4.2 1.39-8.1-1.32-11.89z" fill="#fff"/><path d="m161.37 451.63c4.56-9 12.52-9.1 20.06-10.09 2.47 5.73 2.15 6.8-2.49 8.79-4.02 1.74-11.94 2.44-17.57 1.3z" fill="#eba7b0"/><path d="m128.06 454v-7.09c9.67-2.55 12.72-1.48 18.54 6.73-6.2 2.27-12.16 2.08-18.54.36z" fill="#eba7b0"/><g fill="#fff"><path d="m125.35 437.11c-.4-2.93-.74-5.44-1.17-8.64l8.53.4.56 8.24z"/><path d="m156 227.16c.35 3.65.78 6.92-3.3 7.91-3 .73-4.34-1.31-5.31-7.91z"/><path d="m134.9 236.66c-4.27-2.48-5-5.18-4.51-8.79h8.86z"/><path d="m179 427.88c.17 2.14.26 3.39.36 4.58-6.83 2.61-7.58 2.38-9.26-3.3z"/></g><path d="m172.42 102.77c-5.32-1.75-10.27-2.89-14.71-5.06-2.29-1.11-4.15-3.86-5.26-6.3-.53-1.17.8-3.62 1.94-4.91.48-.54 3.42-.06 3.93.76 2.87 4.63 7.47 4.84 12 5.46 1.48.2 3.36.48 4.21 1.46 1.14 1.3 2.22 3.49 1.88 5s-2.41 2.32-3.99 3.59z"/><path d="m138.59 197.73c-4-.53-6.63-.72-9.15-1.28a5.3 5.3 0 0 1 -3.17-1.95c-.71-1.14-1.22-3-.74-4.09a4.17 4.17 0 0 1 3.58-1.63 22.93 22.93 0 0 0 16.26-2.88 6.26 6.26 0 0 1 2.4-.9 4.83 4.83 0 0 1 5.6 3.38c1 2.69-.31 4.28-2.53 5.12-4.41 1.67-8.93 3.09-12.25 4.23z"/><path d="m137.87 169.55c.82 1.36.94 1.84 1.23 2 2.26 1.2 4.27 2.61 3 5.56s-4.13 3.25-6.67 2.32a30.76 30.76 0 0 1 -7.92-4.31c-2.28-1.72-2-5.43.32-7.42s5-3.52 7.44-5.29 4.56-1.49 6.28.79.69 4.08-1.5 5.37a19.25 19.25 0 0 1 -2.18.98z"/></svg>