<svg viewBox="0 0 330.57 388.57" xmlns="http://www.w3.org/2000/svg"><g transform="translate(-.36 -.37)"><path d="m322.85 212.7c9.81 2.22 8.52 8.61 7.13 14.82-2 8.87-6.16 13.29-13.71 14-8.24.83-16.6.8-24.82 1.86-2.85.37-5.43 2.92-7.87 4.32 4.87 12.77 9.69 25.23.85 36.33-9.79 12.29-23.29 17.64-39.37 13.63-2 10 .17 12.73 13 17 4.89 1.62 9.62 3.65 14.4 5.58 7.17 2.89 11.26 8.59 13.87 15.52 1.59 4.21-2.63 11.25-9.2 12.94a70.2 70.2 0 0 1 -35.26-.14c-1-.23-1.72-1.31-2.56-2-5.9 6.28-5.23 10.37 1.74 14.72a58.65 58.65 0 0 1 11.67 9c5 5.27 3.39 10.12-3.36 12.85-8.15 3.3-16.23 5.86-25.42 5.13-8.61-.69-17.35.42-26 .53-5 .05-7.25-2.63-9-7.59-3.64-10.3-8.56-20.15-13.07-30.13-.49-1.08-1.73-1.82-4.26-4.35-.73 10.57-1.67 19.35-1.84 28.14-.18 9.22-1.37 11.83-10.71 12.48-15.81 1.11-31.69 1.4-47.53 1.58-6.07.06-13-8.47-14.2-16.14-.72-4.66 4.64-11.45 11-13.79 2.1-.77 4.32-1.23 8.14-2.29-1.92-6.24-3-12.1-5.47-17.34-6.1-13-8.24-26.81-9.15-41.71-5 2.18-9.46 4.47-14.17 6.09-12.62 4.36-24.67.13-35.63-5-3.93-1.84-6.43-10.12-6.74-15.63a56.41 56.41 0 0 1 8-32.2 26.39 26.39 0 0 0 1.36-2.74c-6.74-5.19-14.19-9-18.81-15-5-6.56-4.37-14.83 2.28-21.92a52.31 52.31 0 0 0 -5.24-3.91c-27.19-15.43-35.29-39.54-31.76-69.06 3.91-32.83 22.52-56.47 47.68-75.93 2.94-2.28 6.72-3.47 10.5-5.36-12.75-8.15-18.19-19.32-14.73-33.87a24.6 24.6 0 0 1 5.79-10.92c19.62-20.39 59.73-13.2 69.26 12.15 2.21 5.88 2 12.69 3 19.73 16.46-.94 32.93-2.91 49.34-2.51 18.14.45 36.24 2.94 54.33 4.91 3.81.43 5.15-.59 7.19-3.79 4.37-6.84 8.74-14.57 15.13-19 11.22-7.79 23-2.45 32.86 4.12 9.18 6.11 12.88 16.07 11.23 27.11-.59 4-3.41 7.61-5.33 11.68 18.61 14.48 34.13 30.4 35.43 56.4 1.26 24.85-7.33 44.42-26.14 60.59 10.52-1.52 22.26-4 27.93 6.46 3.15 5.74 9.45 15.19-1.76 22.65zm-9.38 12.57c-3-1.1-5.74-1.75-8.12-3.09-3.43-2-8.52-3.82-9.39-6.75-1.81-6.06 4.25-7.88 8.62-10 .79-.39 2-.22 2.53-.78.88-1 2.1-2.64 1.81-3.59-.38-1.32-2.22-3.32-3.15-3.17-9.25 1.43-18.44 3.23-26.22 4.67-.15 7.65-.25 13.13-.39 19.85 10.92 8.28 27.03 10.33 34.31 2.86zm-30.87-52.83c22.88-11.82 27.55-40.8 18.31-62-6.28-14.44-16.67-25.28-28.62-35.06-5.22-4.28-5.9-11.43-2.26-16 6.5-8.17 5.29-16.92-3.8-22-2.68-1.52-8.32-2.23-9.77-.66-3.95 4.23-8.78 9.83-8.87 15-.16 8-3.26 10.53-10 10.71a54.51 54.51 0 0 1 -11.17-1c-6.12-1.15-12.11-3.31-18.27-4a357.35 357.35 0 0 0 -74.49-.14c-5.81.6-11.85 1.36-16.53-3.81-.69-.77-2.54-.85-3.79-.69-9.21 1.22-9.46 1.26-8.94-8.42 1.18-22.81-14.31-32.6-33.15-29.07-12 2.27-16.15 14.87-8.37 24.24 3.49 4.2 6.19 9 9.4 13.44.72 1 2.31 1.34 3.14 2.29 1.77 2 5 4.67 4.55 6.33-.56 2.3-3.6 4.46-6.07 5.76-6.13 3.26-13.59 4.76-18.63 9.13-17.84 15.51-33.19 32.92-34.92 46.8-6.13 38.63 2.59 62 30.38 76.27 20.05 10.3 41.48 11.15 63 11.52a388.1 388.1 0 0 0 40.27-1.82c18.5-1.58 37.06-3.2 55.39-6.08 11.78-1.85 23.79-4.66 34.67-9.41 13.36-5.85 25.48-14.57 38.54-21.33zm-19.55 110.64c6.37-3.34 9.14-9.73 7.72-17.78-1.33-7.48-4.44-10.33-12.15-11.15-.66-.08-1.32-.08-2.86-.17-5.49-3.77-7.1.76-8.19 5.47-1 4.29-2.07 8.69-2.07 13-.01 12.81 6.36 16.55 17.55 10.63zm-1.15-41.95c2.33.1 4.71-.68 8.07-1.21-6.08-7.33-19.62-10.58-26.06-6.86a5.61 5.61 0 0 0 -2.15 4.25c0 .82 2.06 2.23 3.3 2.38 5.59.7 11.22 1.21 16.84 1.44zm5.67 96.76c-3.25-6.28-16.53-12.71-23.61-12l-1.49 9.24zm-5.57-121.89c.56-.74 1.12-1.5 1.68-2.25-2.06-2.76-4.27-7.93-6.13-7.81-4 .26-9.17 1.9-9.12 8.83zm-31.53 158.5-6.12-5.13c-3.94-3.26-6.9-18.24-5.23-23.05 3.15-9 7.17-18.09 8.27-27.44 1.76-14.85 1.73-30-15.11-38.09a13.34 13.34 0 0 1 -6.06-6.16c-2.15-5.05-3.33-10.53-5-16.22a12.74 12.74 0 0 0 -2.88.25c-21.58 6-43 4.14-64.34-1.19-2.15-.54-6.18-1.11-6.38-.58-1.06 2.93-1.25 6.19-1.68 9.33-.35 2.65-.23 5.44-1 7.93-1.64 5-4.89 9.76-5.47 14.85-1.64 14.22-.42 28.53 4.82 41.86 3.43 8.71 6.69 17.15 8.09 26.5 1.25 8.52.59 10.28-8.24 11.17-3.25.32-6.43 1.41-9.64 2.17l.25 2.81c11.56 9.38 24.55 1.79 37.12 2.65.37-4.09.41-7.27 1-10.34 1.63-9 3.07-18.15 5.37-27 1.42-5.49 4.63-10.79 11-11.15 4.36-.24 11.13 0 12.83 2.64 8.37 12.84 18.72 24.85 22 40.4 1.2 5.61 4 6.77 9 5.92 5.22-.97 10.55-1.39 17.36-2.18zm-3.15-102.07c1.79-7 3.47-13.62 5.09-19.94l-8-7.33c-3.37 1.83-6.46 3.53-10 5.48 7.76 5.76 1.21 19.2 12.87 21.74zm-19-36c6.83-6 12.88-12.87 19.66-19.73l-111.8 10.87c3.23 6.37 7.56 11.77 15.14 14.39 11.37 3.92 23 5.13 35 6.09 15.68 1.24 29.95-1.13 41.99-11.65zm-95.46 13.32c.39-.83-.28-2.58-1-3.39-2.64-2.93-5.52-5.65-9.25-9.4-2.1 3-5.32 5.49-5.34 8-.07 11.23.79 22.48 1.31 33.87a3.63 3.63 0 0 0 1.26-1.21c4.4-9.28 8.81-18.54 13.01-27.9zm-29.1-17.67c2.84-.35 5.41-3.13 9.11-5.43-13.61-3.09-25.11-5.66-36.58-8.31-4-.94-5.93 1-6.74 4.59-1.21 5.35 2.25 10.48 8.22 10.57a193 193 0 0 0 25.98-1.45zm-13.94 55.52c11.73-8.5 13.44-18.36 9.11-37.49-.32-1.46-2.07-3.92-2.64-3.78-1.71.41-3.93 1.54-4.59 3-3.7 8.13-7 16.44-10.19 24.18 0 4.12-.23 7.51.18 10.8.81 6.51 2.79 7.17 8.13 3.29z"/><path d="m305.35 222.18c2.38 1.34 5.16 2 8.12 3.09-7.28 7.47-23.39 5.42-34.31-2.9.14-6.72.24-12.2.39-19.85 7.78-1.44 17-3.24 26.22-4.67.93-.15 2.77 1.85 3.15 3.17.29.95-.93 2.56-1.81 3.59-.5.56-1.74.39-2.53.78-4.37 2.16-10.43 4-8.62 10 .87 2.97 5.96 4.84 9.39 6.79z" fill="#d72e46"/><g fill="#ecb957"><path d="m300.91 110.43c9.24 21.21 4.57 50.19-18.31 62-13.06 6.76-25.18 15.48-38.59 21.33-10.88 4.75-22.89 7.56-34.67 9.41-18.33 2.88-36.89 4.5-55.39 6.08a388.1 388.1 0 0 1 -40.18 1.82c-21.56-.37-43-1.22-63-11.52-27.79-14.28-36.51-37.64-30.38-76.27 1.69-13.87 17.04-31.28 34.86-46.81 5-4.37 12.5-5.87 18.63-9.13 2.47-1.3 5.51-3.46 6.07-5.76.41-1.66-2.78-4.29-4.55-6.33-.83-.95-2.4-1.25-3.14-2.25-3.21-4.42-5.91-9.24-9.4-13.44-7.78-9.37-3.65-22 8.37-24.24 18.84-3.53 34.33 6.26 33.15 29.07-.52 9.68-.27 9.64 8.94 8.42 1.25-.16 3.1-.08 3.79.69 4.68 5.17 10.72 4.41 16.53 3.81a357.35 357.35 0 0 1 74.49.14c6.16.65 12.15 2.81 18.27 4a54.51 54.51 0 0 0 11.17 1c6.76-.18 9.86-2.68 10-10.71.09-5.13 4.92-10.73 8.87-15 1.45-1.57 7.09-.86 9.77.66 9.09 5.11 10.3 13.86 3.8 22-3.64 4.6-3 11.75 2.26 16 11.97 9.76 22.36 20.6 28.64 35.03zm-42-51.37 12.78-6.94c-3.11-2.83-5.85-6.5-9.49-8.08-1.41-.62-6 3.06-7 5.62-.76 1.91 1.92 5.18 3.73 9.4zm-31.49 76.8c12.58-4.31 24.74-9.19 25.54-23.06 3.64-14.74-6.22-32.91-18.58-37.32-10.18-3.61-23.63-1.21-29.39 5.4-11.23 12.91-13.06 27.76-8.26 43.61a19.44 19.44 0 0 0 19.09 14.14c3.9-.04 7.86-1.5 11.62-2.77zm-11.73 33.54c2-1.81 3.81-6.11 3-8.26-1.81-4.89-11.89-6.95-15.87-3.13-8.54 8.18-19.21 8.69-31.13 10.26-.2-7.61-.21-14.49-.59-21.35-.21-3.95.35-6.75 4.54-8.63 5-2.2 6.14-7 5.25-12-1.2-6.77-12.06-16.22-18.92-16.43a9.94 9.94 0 0 0 -6.22 2c-7.56 6.38-8.31 19.52-1.84 26.8a5.35 5.35 0 0 1 1.54 2.67c.64 8.88 1.14 17.76 1.75 28-6.87-2.11-12.79-3.37-18.17-5.79-3.33-1.49-5.55-5.4-8.85-7.05-3.15-1.57-7.11-6.19-10.58-1.4-2.83 3.91-3.29 8.93 1.24 12.65 3.61 3 7.1 6.26 11.15 8.41 15.35 8.23 31.76 8.36 48.55 6 12.71-1.72 25.26-3.78 35.15-12.75zm-112.92-25.4c20.93 1.32 40.26-10.43 43-32.53 3.08-16.8-6.58-27.41-21.24-31.62-14-4-29.73 3.2-35.58 16a37.31 37.31 0 0 0 1.61 35.37c2.76 4.78 4.44 12.29 12.21 12.78zm-13.58-106c.59-3.07-4.73-9.39-8.91-8.88-3.32.39-7.63 2.9-9 5.7-1 2 2.09 6 2.87 8 8.78 1.67 14.23-.57 15.04-4.82z"/><path d="m270.77 265.3c1.42 8.05-1.35 14.44-7.72 17.78-11.19 5.88-17.56 2.18-17.55-10.59 0-4.35 1.07-8.75 2.07-13 1.09-4.71 2.7-9.24 8.19-5.47 1.54.09 2.2.09 2.86.17 7.71.81 10.82 3.63 12.15 11.11z"/><path d="m270 239.92c-3.36.53-5.74 1.31-8.07 1.21-5.62-.23-11.25-.74-16.84-1.44-1.24-.15-3.3-1.56-3.3-2.38a5.61 5.61 0 0 1 2.15-4.25c6.41-3.72 19.95-.47 26.06 6.86z"/><path d="m244 325.93c7.08-.75 20.36 5.68 23.61 12l-25.1-2.72z"/></g><path d="m263.64 213.7c-.56.75-1.12 1.51-1.68 2.25l-13.57-1.23c0-6.93 5.1-8.57 9.12-8.83 1.86-.12 4.07 5.05 6.13 7.81z" fill="#d72e46"/><path d="m224.31 369.32 6.12 5.13c-6.81.79-12.14 1.21-17.4 2.08-5.06.85-7.84-.31-9-5.92-3.28-15.55-13.63-27.56-22-40.4-1.7-2.63-8.47-2.88-12.83-2.64-6.42.36-9.63 5.66-11 11.15-2.3 8.9-3.74 18-5.37 27-.56 3.07-.6 6.25-1 10.34-12.57-.86-25.56 6.73-37.12-2.65l-.25-2.81c3.21-.76 6.39-1.85 9.64-2.17 8.83-.89 9.49-2.65 8.24-11.17-1.4-9.35-4.66-17.79-8.09-26.5-5.24-13.33-6.46-27.64-4.82-41.86.58-5.09 3.83-9.82 5.47-14.85.81-2.49.69-5.28 1-7.93.43-3.14.62-6.4 1.68-9.33.2-.53 4.23 0 6.38.58 21.36 5.33 42.76 7.18 64.34 1.19a12.74 12.74 0 0 1 2.88-.25c1.69 5.69 2.87 11.17 5 16.22a13.34 13.34 0 0 0 6.06 6.16c16.84 8.1 16.87 23.24 15.11 38.09-1.1 9.35-5.12 18.41-8.27 27.44-1.67 4.86 1.29 19.84 5.23 23.1zm-40.52-60.87c-.81-1.87-1-2.91-1.56-3.46-5.8-5.29-5.74-9.45 1.87-13 .71-.34.71-4.72-.39-6.05-4.18-5-12.31-4.41-17.18.38-1.33 1.3-4 1.31-6.08 1.8-2.39.57-6.22.29-6.93 1.67-1.05 2.07 0 5.27.28 7.95.27 2.22 1.29 4.44 1.1 6.58-.63 7.18 2.44 9.65 9.22 7.21 1.74-.63 4.4-1.92 5.27-1.22 5.61 4.51 9.24-.47 14.4-1.86z" fill="#ecb957"/><path d="m271.71 52.12-12.78 6.94c-1.81-4.22-4.49-7.49-3.73-9.4 1-2.56 5.61-6.24 7-5.62 3.66 1.58 6.4 5.25 9.51 8.08z"/><path d="m232.37 252.44c-1.62 6.32-3.3 12.94-5.09 19.94-11.66-2.54-5.11-16-12.92-21.79 3.57-2 6.66-3.65 10-5.48z" fill="#ecb957"/><path d="m253 112.8c-.8 13.87-13 18.75-25.54 23.06-3.76 1.27-7.72 2.73-11.6 2.77a19.44 19.44 0 0 1 -19.09-14.14c-4.8-15.85-3-30.7 8.26-43.61 5.76-6.61 19.21-9 29.39-5.4 12.34 4.41 22.2 22.58 18.58 37.32zm-17.68 4.47c-10.47-3.56-15.43-9.09-16.13-26.64a7.8 7.8 0 0 0 -2.51.7c-7.5 5.3-10.39 23.71-4.74 30.87 1 1.24 3.36 2.58 4.55 2.19 6.34-2.07 12.51-4.69 18.81-7.12z"/><path d="m228 216.67c-6.78 6.86-12.83 13.76-19.66 19.73-12 10.52-26.27 12.89-42 11.62-11.95-1-23.6-2.17-35-6.09-7.58-2.62-11.91-8-15.14-14.39z" fill="#d72e46"/><path d="m218.7 161.14c.8 2.15-1 6.45-3 8.26-9.89 9-22.44 11-35.14 12.81-16.79 2.34-33.2 2.21-48.55-6-4-2.15-7.54-5.44-11.15-8.41-4.53-3.72-4.07-8.74-1.24-12.65 3.47-4.79 7.43-.17 10.58 1.4 3.3 1.65 5.52 5.56 8.85 7.05 5.38 2.42 11.3 3.68 18.17 5.79-.61-10.26-1.11-19.14-1.75-28a5.35 5.35 0 0 0 -1.54-2.67c-6.47-7.28-5.72-20.42 1.84-26.8a9.94 9.94 0 0 1 6.22-2c6.86.21 17.72 9.66 18.92 16.43.89 5-.29 9.76-5.25 12-4.19 1.88-4.75 4.68-4.54 8.63.38 6.86.39 13.74.59 21.35 11.92-1.57 22.59-2.08 31.13-10.26 3.97-3.88 14.05-1.82 15.86 3.07z"/><path d="m219.17 90.63c.7 17.55 5.66 23.08 16.13 26.64-6.27 2.43-12.47 5-18.83 7.12-1.19.39-3.57-1-4.55-2.19-5.65-7.16-2.76-25.57 4.74-30.87a7.8 7.8 0 0 1 2.51-.7z" fill="#fff"/><path d="m182.23 305c.59.55.75 1.59 1.56 3.46-5.16 1.39-8.82 6.37-14.4 1.88-.87-.7-3.53.59-5.27 1.22-6.78 2.44-9.85 0-9.22-7.21.19-2.14-.83-4.36-1.1-6.58-.3-2.68-1.33-5.88-.28-7.95.71-1.38 4.54-1.1 6.93-1.67 2.08-.49 4.75-.5 6.08-1.8 4.87-4.79 13-5.42 17.18-.38 1.1 1.33 1.1 5.71.39 6.05-7.61 3.52-7.67 7.68-1.87 12.98z"/><path d="m145.77 111.47c-2.74 22.1-22.07 33.85-43 32.53-7.8-.49-9.45-8-12.21-12.82a37.31 37.31 0 0 1 -1.56-35.37c5.85-12.76 21.63-20 35.58-16 14.61 4.25 24.27 14.86 21.19 31.66zm-36.57 17.65c6.76 2.48 11.21-1.26 15.57-5.94-11.93-5.61-13.09-8.31-12.7-28.19-8.59 1.3-12.07 5.62-13.62 16.87a16.16 16.16 0 0 0 10.75 17.26z"/><path d="m111.83 246.33c.74.81 1.41 2.56 1 3.39-4.2 9.36-8.61 18.62-13 27.88a3.63 3.63 0 0 1 -1.26 1.21c-.52-11.39-1.38-22.64-1.31-33.87 0-2.52 3.24-5 5.34-8 3.71 3.74 6.59 6.46 9.23 9.39z" fill="#ecb957"/><path d="m124.77 123.18c-4.36 4.68-8.81 8.42-15.57 5.94a16.16 16.16 0 0 1 -10.75-17.26c1.55-11.25 5-15.57 13.62-16.87-.39 19.88.77 22.58 12.7 28.19z" fill="#fff"/><path d="m92.86 226.62c-3.7 2.3-6.27 5.08-9.11 5.43a193 193 0 0 1 -26 1.42c-6-.09-9.43-5.22-8.22-10.57.81-3.56 2.71-5.53 6.74-4.59 11.48 2.69 22.98 5.22 36.59 8.31z" fill="#ecb957"/><path d="m78.93 250.11c4.33 19.13 2.62 29-9.11 37.49-5.34 3.88-7.32 3.22-8.13-3.29-.41-3.29-.14-6.68-.18-10.8 3.21-7.74 6.49-16.05 10.19-24.18.66-1.46 2.88-2.59 4.59-3 .57-.14 2.32 2.32 2.64 3.78z" fill="#ecb957"/><path d="m80.28 29.15c4.18-.51 9.5 5.81 8.91 8.88-.81 4.22-6.26 6.46-15.06 4.82-.78-2-3.87-6-2.87-8 1.39-2.8 5.74-5.31 9.02-5.7z"/></g></svg>