<svg viewBox="0 0 123.51 10.37" xmlns="http://www.w3.org/2000/svg"><g fill="#2f2725"><path d="m7.7 1a3.6 3.6 0 0 0 -2.55-.83h-5a.13.13 0 0 0 -.15.13v9.77a.13.13 0 0 0 .13.13h3a.13.13 0 0 0 .13-.13v-3.49h1.56a4 4 0 0 0 2.81-.87 3.19 3.19 0 0 0 .93-2.41 3.09 3.09 0 0 0 -.86-2.3zm-4.4 1.42h.7a1.45 1.45 0 0 1 1 .28 1 1 0 0 1 .27.69.84.84 0 0 1 -.27.67 1.78 1.78 0 0 1 -1.13.27h-.57z"/><path d="m15.17.17h-3.3a.13.13 0 0 0 -.12.08l-3.67 9.75a.15.15 0 0 0 0 .13.16.16 0 0 0 .11 0h3.09a.12.12 0 0 0 .12-.09l.45-1.52h3.23l.46 1.52a.14.14 0 0 0 .13.09h3.16a.16.16 0 0 0 .11 0 .15.15 0 0 0 .06-.13l-3.71-9.75a.13.13 0 0 0 -.12-.08zm-.79 6h-1.78l.88-2.92z"/><path d="m27.82.17h-7.46a.13.13 0 0 0 -.14.13v9.77a.13.13 0 0 0 .14.13h3a.13.13 0 0 0 .13-.13v-3.86h3.65a.13.13 0 0 0 .14-.13v-2a.14.14 0 0 0 -.11-.08h-3.65v-1.47h4.3a.13.13 0 0 0 .18-.13v-2.1a.13.13 0 0 0 -.18-.13z"/><path d="m36.92.17h-7.46a.13.13 0 0 0 -.14.13v9.77a.13.13 0 0 0 .14.13h3a.13.13 0 0 0 .13-.13v-3.86h3.65a.13.13 0 0 0 .14-.13v-2a.14.14 0 0 0 -.11-.08h-3.65v-1.47h4.3a.13.13 0 0 0 .13-.13v-2.1a.13.13 0 0 0 -.13-.13z"/><path d="m47.91.17h-3a.13.13 0 0 0 -.13.13v6a1.58 1.58 0 0 1 -.41 1.16 1.51 1.51 0 0 1 -1.12.4 1.54 1.54 0 0 1 -1.14-.41 1.56 1.56 0 0 1 -.4-1.15v-6a.13.13 0 0 0 -.14-.13h-3a.13.13 0 0 0 -.13.13v5.82a5.94 5.94 0 0 0 .28 1.69 3.25 3.25 0 0 0 .65 1.19 3.84 3.84 0 0 0 1.08.88 4.36 4.36 0 0 0 1.45.41 13 13 0 0 0 1.58.1 6.23 6.23 0 0 0 2.15-.39 3.66 3.66 0 0 0 1.26-.84 3.74 3.74 0 0 0 .88-1.4 5.15 5.15 0 0 0 .28-1.68v-5.78a.13.13 0 0 0 -.14-.13z"/><path d="m57.64 7.53h-4.58v-7.23a.13.13 0 0 0 -.13-.13h-3a.13.13 0 0 0 -.13.13v9.77a.13.13 0 0 0 .13.13h7.73a.13.13 0 0 0 .13-.13v-2.41a.13.13 0 0 0 -.15-.13z"/><path d="m70.3 1a3.6 3.6 0 0 0 -2.55-.83h-5a.13.13 0 0 0 -.15.13v9.77a.13.13 0 0 0 .13.13h3a.13.13 0 0 0 .14-.13v-3.49h1.51a4 4 0 0 0 2.81-.87 3.15 3.15 0 0 0 .93-2.41 3.08 3.08 0 0 0 -.82-2.3zm-4.4 1.42h.72a1.46 1.46 0 0 1 1.06.28 1 1 0 0 1 .27.69.84.84 0 0 1 -.31.67 1.79 1.79 0 0 1 -1.14.27h-.6z"/><path d="m77.76.17h-3.29a.12.12 0 0 0 -.12.08l-3.68 9.75a.15.15 0 0 0 0 .13.14.14 0 0 0 .11 0h3.08a.14.14 0 0 0 .13-.09l.45-1.52h3.22l.46 1.52a.14.14 0 0 0 .13.09h3.16a.13.13 0 0 0 .11 0 .13.13 0 0 0 0-.13l-3.63-9.75a.13.13 0 0 0 -.13-.08zm-.78 6h-1.79l.89-2.92z"/><path d="m90.41.17h-7.41a.13.13 0 0 0 -.13.13v9.77a.13.13 0 0 0 .13.13h3a.13.13 0 0 0 .14-.13v-3.86h3.65a.13.13 0 0 0 .13-.13v-2a.13.13 0 0 0 -.15-.08h-3.65v-1.47h4.29a.13.13 0 0 0 .14-.13v-2.1a.13.13 0 0 0 -.14-.13z"/><rect height="10.04" rx=".13" width="3.29" x="92.3" y=".17"/><path d="m107.53.17h-2.85a.13.13 0 0 0 -.13.13v5l-3.43-5a.14.14 0 0 0 -.12-.13h-2.81a.13.13 0 0 0 -.14.13v9.77a.13.13 0 0 0 .14.13h2.81a.13.13 0 0 0 .13-.13v-4.93l3.41 5a.14.14 0 0 0 .11.06h2.85a.13.13 0 0 0 .13-.13v-9.77a.13.13 0 0 0 -.1-.13z"/><path d="m111.52.51a1.53 1.53 0 0 0 -1.52 1.59 1.54 1.54 0 0 0 .69 1.32c.17.15.27.24.27.35a1.58 1.58 0 0 1 -.56 1c-.17.18-.3.31-.3.46 0 .36.47.54.73.54 1 0 2.35-2.07 2.35-3.51a1.69 1.69 0 0 0 -1.66-1.75z"/><path d="m123.1 5.38a3.06 3.06 0 0 0 -1.3-1.14 13 13 0 0 0 -2.87-.87 2.16 2.16 0 0 1 -.93-.37.43.43 0 0 1 -.18-.32.57.57 0 0 1 .22-.44 1.08 1.08 0 0 1 .71-.19 1.42 1.42 0 0 1 .92.27 1.36 1.36 0 0 1 .42.88.16.16 0 0 0 .15.11l2.84-.17a.14.14 0 0 0 .1-.05.17.17 0 0 0 0-.1 3.14 3.14 0 0 0 -1.18-2.27 5 5 0 0 0 -3-.72 6.36 6.36 0 0 0 -2.46.39 3.12 3.12 0 0 0 -1.34 1.11 2.72 2.72 0 0 0 -.46 1.5 2.56 2.56 0 0 0 .9 2 6.78 6.78 0 0 0 2.89 1.22 3.49 3.49 0 0 1 1.49.53.8.8 0 0 1 .29.58.76.76 0 0 1 -.31.6 1.34 1.34 0 0 1 -.91.27 1.46 1.46 0 0 1 -1.22-.54 1.93 1.93 0 0 1 -.35-1 .14.14 0 0 0 -.15-.12l-2.87.18a.16.16 0 0 0 -.09 0 .12.12 0 0 0 0 .1 3.9 3.9 0 0 0 1.12 2.52 5 5 0 0 0 3.55 1 6 6 0 0 0 2.4-.42 3.42 3.42 0 0 0 1.52-1.22 3.34 3.34 0 0 0 .54-1.81 2.87 2.87 0 0 0 -.44-1.51z"/></g></svg>