<svg xmlns="http://www.w3.org/2000/svg" viewBox="0 0 481.58 78.44"><title>アセット 4</title><g id="レイヤー_2" data-name="レイヤー 2"><g id="レイヤー_2-2" data-name="レイヤー 2"><path d="M6,70.41C2.09,67.49,0,63.32,0,57.68,0,42.14,17,22.43,37.86,9.6,47.88,3.34,57.27,0,64.05,0a9.94,9.94,0,0,1,8.44,4c3.45,4.18,3.13,5.84,2.09,6.16C39.32,21.28,11.89,45.58,10.43,63.42a6,6,0,0,0,2.61.42c8.76,0,24.82-6.37,34.73-14,.94-.73,1.36-.63,1.36.1a15,15,0,0,1-2.92,8.45C37.13,69,25.56,75.73,16.27,75.73,11.58,75.73,8.34,74.27,6,70.41Z"/><path d="M85,71.56a7.92,7.92,0,0,1-1.88-9.39C85.74,56.54,91.06,50.28,94,44.75a120.85,120.85,0,0,0-18,16.06c-1,1.88-2.19,3.76-3.23,5.74-3.23,5.84-4.07,7-5.63,7a16.45,16.45,0,0,1-5.74-1.67C58,70.41,56.74,69,56.74,66.76,56.74,63.94,59,60,64.25,52,75,35.46,87.93,16.27,97.11,2c1-1.46,1.46-1.46,2.4-1.15A26.79,26.79,0,0,1,106,3.44c2.4,1.57,2.08,7-4.39,16-4.38,6.05-9.7,14.08-17.42,27,7.41-5.32,14.19-9.29,17-9.29a6.79,6.79,0,0,1,4.69,2.09c2.51,2.19,2.61,4.07,1,7.61C104.52,52.47,96.59,63,95.86,68c5-1.36,10.64-5.74,18.36-16.06l.31-.42c.73-.94.94-1,1.25-.73l.31.31a1.37,1.37,0,0,1,.21,2l-.31.52c-7.3,12.1-18,21.08-24.3,21.08C89,74.69,87.3,73.75,85,71.56Z"/><path d="M122.56,70.3A11.33,11.33,0,0,1,118,65.71c-2.4-4-1.57-10,4.59-17.31A43.48,43.48,0,0,1,142,34.94a11.37,11.37,0,0,1,6.47-.41,13.45,13.45,0,0,1,6.88,5,4,4,0,0,1,3,.42,29.85,29.85,0,0,1,7,5.95,2.17,2.17,0,0,1-.42,2.39,46.48,46.48,0,0,0-9,17.11c4.69-.83,9.59-4.07,16.58-13.45l.32-.42c.73-.94.93-1,1.25-.73l.31.31a1.37,1.37,0,0,1,.21,2l-.31.52c-3.76,6.26-15.44,19.61-26.29,19.61-4.69,0-6.47-3.85-5.53-9.8-4.27,4.9-8,8.14-10.95,9.39C128.92,74,126.63,73.85,122.56,70.3Zm23.57-17.73a102.86,102.86,0,0,1,6-9.91C140.4,46.42,130,58.1,130.17,66,135.49,63.73,141.13,59.14,146.13,52.57Z"/><path d="M179.93,71.87c-3.13-.84-5.85-1.77-5.85-5.22,0-3,2-7.92,7.2-14.7,4.07-5.32,10.85-14.92,12.42-18,.31-.73,1.14-.73,1.77-.52,1.77.63,3,.73,4.48,1.57a3.63,3.63,0,0,1,1.67,3.44,15,15,0,0,1-.62,4c5.94-5.42,11.26-9.07,16-11.26,2.29-1.15,3.75-1.67,4.59-1.67s1,.52,1.77,1.15c.31.31.94.73.94.94s-.21.41-.52.62C213.2,38.8,200.68,50.8,190.67,66c-4.17,6.26-5.11,7.09-6.26,7.09C183.68,73.12,182.85,72.7,179.93,71.87Z"/><path d="M244,62.38c-5.63,7.82-10.22,10.95-13.56,10.95-4.17,0-8.34-3.44-10.85-7.82-2.29-4-2.08-9.29,3.76-16.9,6.78-8.87,17.1-14.19,23.05-14.19,3.13,0,5.74,2.82,7.41,5.63a2.49,2.49,0,0,1,2.29-1.25c.94,0,2.82.52,5.95,2,2.4,1.15,3.44,2.4,3.44,3.55,0,1.36-.84,3.44-4.17,10.22-2.09,4.38-4,8.77-4.28,11.69,4.59-1,9.18-4.7,16.48-14.29l.31-.42c.73-.94.94-1,1.25-.73l.32.31a1.38,1.38,0,0,1,.21,2l-.32.52c-7,11.58-16.48,20.45-24.72,20.45C245.74,74.06,242.2,71.24,244,62.38Zm8-19.3c-4.48,1.15-9,4.17-12.51,7.72-4.91,4.9-8.14,10.85-7.51,15C238.13,63.63,244.28,57.27,252,43.08Z"/><path d="M281.31,70.2c-5.84-7.09-5.42-14.39,1.36-22.84,7.82-9.5,18.57-14.09,23.57-14.09,2.61,0,4.49,1.36,7.2,5.12,1.67,2.29,2.71,4.27.94,4.9-16.17,5.84-25.35,13.56-26.6,23.26a8.07,8.07,0,0,0,2.29.31c9.29,0,19.93-5.21,27.12-14.91l.32-.42c.73-.94.94-1,1.25-.73l.31.31a1.37,1.37,0,0,1,.21,2l-.31.52c-6.05,10.12-19.61,20.66-29.1,20.66A10.55,10.55,0,0,1,281.31,70.2Z"/><path d="M324.29,70.72c-4.49-4.17-5-8.55,1.67-18.77,2.71-4.18,5.11-7.83,7.3-11.27a4.85,4.85,0,0,1-2.72-1c-1.35-1.25-2.5-3.34-2.5-4.18,0-.41.31-.73,2-.93,2.51-.32,5.22-.73,8.14-.94,3.86-5.74,7.41-10.64,11.37-16,3.13-4.17,4.38-5,5.22-5,1.46,0,2,1.67,3.85,3.34,4.39,3.65,3.45,6.05-3,16.17,3.44-.21,6.57-.32,8.87-.32,1,0,1.14.32,1.14.73a2.55,2.55,0,0,1-2.19,2.4c-1.25.21-1.35.84-5.21,1.78l-6.68,1.56c-11.26,17.21-15.65,24.51-16.58,28.27a23.1,23.1,0,0,0,13.87-5.84c.21-.21.52-.21.62,0a6.69,6.69,0,0,1,.21,1.56,3.11,3.11,0,0,1-.83,2c-2.82,3.86-9.7,10-16.27,10A11.67,11.67,0,0,1,324.29,70.72Z"/><path d="M370.6,72.91a18,18,0,0,1-7.83-8.55c-1.56-3.55-.1-9.91,4.39-16,5.84-7.72,16.06-14,23.15-14,2.82,0,5,.94,7.93,5.32,2.29,2,3.65,3.86,3.65,6.26s-2.19,5.74-8.87,9.91A73.58,73.58,0,0,1,376.13,63a15.94,15.94,0,0,0-.21,3.86,14.21,14.21,0,0,0,4.38.63c8.34,0,18.36-5.53,25.87-15.54l.31-.42c.73-.94.94-1,1.25-.73l.31.31a1.37,1.37,0,0,1,.21,2l-.31.52C401.16,65,387.6,74.27,377.17,74.27A13.63,13.63,0,0,1,370.6,72.91Zm24.93-30.25c-6.47,1.57-14,8.14-17.53,15.34a54.42,54.42,0,0,0,11.69-6.26C394.28,48.4,395.74,45.69,395.53,42.66Z"/><path d="M411.07,71.35c-2.4-1.67-3.45-3-3.45-5.32,0-3.55,2.3-7.41,7.31-14.08A177,177,0,0,0,427,34c.31-.62.83-.83,2.08-.73a15.59,15.59,0,0,1,5.64,1.46c1.46.84,2.39,2.3,1.25,6.89a101.62,101.62,0,0,1,16.79-11.47c1.88-1,2.82-1.57,3.34-1.57.83,0,1.15,1.67,1.15,2.71s-.73,1.67-2,2.61c-9.8,7.09-19.81,16.59-31.81,33-4.48,6.16-5.11,6.78-6.78,6.78S413.36,72.91,411.07,71.35Z"/><path d="M466.14,75.52a14,14,0,0,1-8.45,2.92,12.31,12.31,0,0,1-8.45-3.23C447.37,73.54,447,72,448,71.66c6.05-2,15.13-8,15.13-13.25,0-3.75-6.05-5.32-6.05-11.58,0-9.7,11.37-10.95,18.25-15.33.63-.52,1.77-.21,3.34,1.77,2.29,2.93,2.92,5.32,2.92,6.68,0,3.65-3.23,5.95-10.12,8.34-3.86,1.36-5.94,2.3-5.94,4.39,0,3.44,6.25,6,6.25,13C471.77,69.16,470,72.6,466.14,75.52Z"/></g></g></svg>