<svg xmlns="http://www.w3.org/2000/svg" viewBox="0 0 303.96 44.21"><title>アセット 5</title><g id="レイヤー_2" data-name="レイヤー 2"><g id="レイヤー_2-2" data-name="レイヤー 2"><path d="M17.24,39.48c3.28-4.89,7.44-11.28,11.5-17.57-3.13.31-6.4.67-9.73,1.14C16.1,27,13.19,30.9,10.69,34,9,36.05,8.35,36.62,6.43,37.45a52.75,52.75,0,0,1-5.46,2c-.73.26-1.36.1-.68-1q4.14-6.78,9-14a1.85,1.85,0,0,1-.94-.73,3.8,3.8,0,0,1-.78-1.82c0-.21.1-.31.42-.36l3.74-.68Q17.9,11.86,25,2.09c.52-.67,1.09-.93,1.61-.41a22.1,22.1,0,0,1,3.18,3.79c.57,1,.36,1.77-.89,3.59-1.82,2.65-4.31,6.19-7,10,3.59-.63,6.87-1.15,9.73-1.62C36.53,9.84,40.8,3.24,42.25,1.05c.32-.46.47-.57,1-.26a29.77,29.77,0,0,1,3.43,2.55c.88.78,1.14,2.08.1,3.59-3.22,4.84-16.17,23.71-21.27,30.63a4.38,4.38,0,0,1-2.65,1.92,18.55,18.55,0,0,1-4.06.89C17.92,40.37,16.83,40.11,17.24,39.48Z"/><path d="M43,36.15c-2.34-2.13-2.44-3.32,1.46-9.36a95.67,95.67,0,0,1,5.93-8.21.91.91,0,0,1,.83-.37c1.3,0,4.58.26,4.58,2.24,0,1-1,2.86-2.86,5.41-2.86,4.05-4.58,6.81-5.2,8.68a10.09,10.09,0,0,0,6-3.38c.1-.1.26-.1.31,0a3.69,3.69,0,0,1,.1.78,1.58,1.58,0,0,1-.41,1c-1.35,2-4.27,4.94-7.07,4.94C45.22,37.87,44.49,37.35,43,36.15Zm11.7-22.93a19.22,19.22,0,0,1,3-4.47c.78-.88,1.25-1.2,1.66-1.09a8.68,8.68,0,0,1,3,1.51c.52.41.78.72.36,1.14-1.35,1.35-2.86,2.76-3.48,3.38a2.73,2.73,0,0,1-2.34,1,5,5,0,0,1-2.19-.57C54.53,14,54.53,13.69,54.73,13.22Z"/><path d="M61.39,39c-2.34,1.36-4.32,2.19-6.14,2.19-1.25,0-1.77-.16-1.77-.42s.11-.26.42-.52a37.41,37.41,0,0,0,6.09-6c1.14-1.61,1.55-2.6,1.55-3.12s-.2-.62-.2-1,.26-.47.57-.47a8.87,8.87,0,0,1,2.34.47,2.49,2.49,0,0,1,2.08,2.5C66.33,34.75,64.3,37.35,61.39,39Z"/><path d="M81.15,38.23c-.83,0-.83-.67-.31-1.45,6.81-10.14,17.52-25.9,24.39-35.26.77-1.09,1.09-1.2,1.71-.68a19,19,0,0,1,2.76,2.71c1,1.35.62,2.7-.63,4.58-6.34,9.25-13.73,19.7-18.56,26.05-1.51,2-2.81,2.86-4,3.07A48.08,48.08,0,0,1,81.15,38.23Z"/><path d="M113.08,13.43c-.73,0-.94-.57-.47-1C115.68,9.37,118.12,6,118.8,4c.31-.94.52-1.3.83-1.3a11.74,11.74,0,0,1,2.7.88c1.3.52,1.3,1.77.68,3.28a12.63,12.63,0,0,1-4.53,5,5.37,5.37,0,0,1-2.7,1.09A23.23,23.23,0,0,1,113.08,13.43Z"/><path d="M118.74,38c-1.5-.42-3.9-1.72-4.16-3.49-.26-1.61,1.25-4.21,3.9-7.75a89.15,89.15,0,0,0,6.09-8.58c.26-.46.52-.78.88-.78a15,15,0,0,1,1.87.63c2.6.78,3.38,1.35,2.92,3.27,2.8-1.82,5-2.75,6-2.75a4.34,4.34,0,0,1,2.7,1,2.37,2.37,0,0,1,1,3,24.62,24.62,0,0,1-1.19,3.12c3.84-3.28,4.78-3.85,5.82-3.85a4.12,4.12,0,0,1,2.08.52,2.43,2.43,0,0,1,1.46,2.19c-.11,2.6-2.76,5.4-4.42,8.94,1.76-.31,4-1.4,6.76-3.48.26-.16.47-.11.36.15a10,10,0,0,1-.78,1.82,8.19,8.19,0,0,1-1.46,1.51c-2.54,2.08-4.42,3.69-6.76,3.69a6.39,6.39,0,0,1-3-.73c-1.56-.93-1.72-1.76-1.46-3.38a31.21,31.21,0,0,1,1.88-5.4,23.63,23.63,0,0,0-5.46,6.24c-1.88,2.75-2.4,3.53-3.18,3.53s-1.3-.52-2.49-1c-1.93-.72-2-1.92-1.46-3.27a54.62,54.62,0,0,1,4.73-7.65,15.39,15.39,0,0,0,2.14-3.64A58.83,58.83,0,0,0,127,27.57c-1.92,2.86-3.9,5.52-5.82,8.69C120.46,37.45,119.47,38.23,118.74,38Z"/><path d="M164,39.69c-.26,0-.57-.1-.26-.62A334.91,334.91,0,0,1,183.22,9.48c-1,0-1.56-.73-1.71-1.82-.11-.73-.21-2.34-.21-2.81,0-.78.41-1.09,1.61-1.4a32.61,32.61,0,0,1,5.46-.73A21.71,21.71,0,0,1,189.72,1C190.5,0,191-.2,191.7.17a18.62,18.62,0,0,1,2.39,1.56,1.52,1.52,0,0,1,.52,1c3.23.36,5.93,1.35,7.75,3.38A7.2,7.2,0,0,1,204,10.57c0,7.8-10.76,16.07-18.15,17.26-2.23.37-3.22-.26-3.74-.88a9.52,9.52,0,0,1-1.2-1.92c-3.43,5.14-6.81,9.93-9.15,12.84a3.29,3.29,0,0,1-2.86,1.25C166.48,39.22,165,39.69,164,39.69ZM192,7.92c-2.29,3.59-5.51,8.68-8.89,13.78,6.71-1,16.53-7.13,17.78-12.69-1.09-.83-2.8-1.3-5.35-1.3A29,29,0,0,0,192,7.92Z"/><path d="M214.37,32c-2.81,3.9-5.1,5.46-6.76,5.46-2.08,0-4.16-1.71-5.41-3.9-1.14-2-1-4.62,1.87-8.42,3.38-4.42,8.53-7.07,11.5-7.07,1.56,0,2.86,1.4,3.69,2.81a1.24,1.24,0,0,1,1.14-.63,8.61,8.61,0,0,1,3,1c1.19.57,1.71,1.2,1.71,1.77s-.41,1.71-2.08,5.09a22.09,22.09,0,0,0-2.13,5.83,11.71,11.71,0,0,0,4-2.76.21.21,0,0,1,.32,0,3.69,3.69,0,0,1,.1.78,1.55,1.55,0,0,1-.42,1c-1.66,2.08-4.21,4.89-7.22,4.89C215.25,37.82,213.49,36.41,214.37,32Zm4-9.62a14.81,14.81,0,0,0-6.24,3.85c-2.44,2.39-4,5.41-3.74,7.49C211.46,32.62,214.53,29.45,218.37,22.37Z"/><path d="M226.43,44.21c-.83,0-1.14-.52-.73-1.66a108.81,108.81,0,0,1,8.53-15.76c1.3-2,2.55-3.9,3.7-5.61a1.75,1.75,0,0,1-1.41-.68,5.38,5.38,0,0,1-1.25-1.87c0-.16.16-.26.58-.36,1.09-.21,2.6-.37,4.42-.52,5.09-7.34,9-12.28,12.63-15.76A3.42,3.42,0,0,1,255.29.74a7.3,7.3,0,0,1,3.38.89A2.22,2.22,0,0,1,259.4,4a24.49,24.49,0,0,1-2.55,7.64,2.16,2.16,0,0,1-2.23.78,4.51,4.51,0,0,1-1.35-.16c-.32-.1-.58-.41-.89-1-1.19,1.62-2.55,3.64-4.11,6.19h2.08c3.44,0,3.9.31,4.37.63.68.41,1.15.78,1.15,1.09s-.21.41-.78.47c-3.07.26-6.14.57-8.69.83-4.42,7-11.49,17.73-14.4,21.11-1.3,1.51-2.14,2-3.38,2.24A12.24,12.24,0,0,1,226.43,44.21Z"/><path d="M250.66,36.15c-2.34-2.13-2.44-3.32,1.46-9.36a97.93,97.93,0,0,1,5.93-8.21.92.92,0,0,1,.83-.37c1.3,0,4.58.26,4.58,2.24,0,1-1,2.86-2.86,5.41-2.86,4.05-4.58,6.81-5.2,8.68,2.44-.21,5.72-1.71,10.24-7.75l.16-.2c.36-.47.47-.52.62-.37l.16.16a.69.69,0,0,1,.1,1l-.15.26c-2.34,3.9-8.27,10.24-12.17,10.24C252.85,37.87,252.12,37.35,250.66,36.15Zm11.71-22.93a19.19,19.19,0,0,1,3-4.47c.78-.88,1.25-1.2,1.67-1.09a8.71,8.71,0,0,1,3,1.51c.52.41.78.72.36,1.14-1.35,1.35-2.86,2.76-3.48,3.38a2.73,2.73,0,0,1-2.34,1,4.92,4.92,0,0,1-2.18-.57C262.16,14,262.16,13.69,262.37,13.22Z"/><path d="M270.58,37.92a4.56,4.56,0,0,1-2.65-1.19,3.8,3.8,0,0,1-1.67-3c0-1.51,1.56-4.11,3.75-7,3.27-4.31,5.67-7.59,6.34-8.78a.75.75,0,0,1,.73-.47,7.5,7.5,0,0,1,4.27,2.13,2.31,2.31,0,0,1,.78,2.76c2.75-1.46,5-2.45,6.18-2.45a3.6,3.6,0,0,1,2.45,1c1.19,1.09,1.25,2,.41,3.8-1.3,2.81-4.73,7.07-5.2,9.46a10.66,10.66,0,0,0,5.31-3.12c.1-.1.26-.1.31,0a3.69,3.69,0,0,1,.1.78,1.58,1.58,0,0,1-.41,1c-1.25,1.72-4.16,4.52-7,4.52a5.12,5.12,0,0,1-3.69-1.87c-1.25-1.4-1.77-2.86-.94-4.68,1.3-2.75,3.9-5.15,5.51-7.59a94.63,94.63,0,0,0-7.69,6.08,62.4,62.4,0,0,1-5.62,7.7C271.26,37.71,271,37.92,270.58,37.92Z"/><path d="M296.63,35.37a18.82,18.82,0,0,1,1.67-4.1,2.13,2.13,0,0,1,2-1.2,15.32,15.32,0,0,1,3,.57c.94.37.73,1.25.36,1.93-.67,1.19-1.5,2.75-1.92,3.64a2.17,2.17,0,0,1-2.29,1.35,8.14,8.14,0,0,1-2.5-.42C296.53,37,296.27,36.78,296.63,35.37Z"/></g></g></svg>